<svg version="1.1" xmlns="http://www.w3.org/2000/svg" xmlns:xlink="http://www.w3.org/1999/xlink" width="38.2168" height="33.751">
 <g>
  <rect height="33.751" opacity="0" width="38.2168" x="0" y="0"/>
  <path d="M11.5879 24.3877C16.3857 29.1855 22.2295 32.8877 26.9941 32.8877C29.1357 32.8877 31.0117 32.1406 32.5225 30.4805C33.4023 29.501 33.9502 28.3555 33.9502 27.2266C33.9502 26.3965 33.6348 25.5996 32.8379 25.0352L27.7578 21.416C26.9775 20.8848 26.3301 20.6191 25.7324 20.6191C24.9688 20.6191 24.3047 21.0508 23.541 21.7979L22.3623 22.96C22.1797 23.1426 21.9473 23.2256 21.7314 23.2256C21.4658 23.2256 21.2334 23.126 21.0508 23.043C20.0381 22.4951 18.2783 20.9844 16.6348 19.3574C15.0078 17.7305 13.4971 15.9707 12.9658 14.9414C12.8662 14.7588 12.7832 14.5264 12.7832 14.2773C12.7832 14.0615 12.8496 13.8457 13.0322 13.6631L14.1943 12.4512C14.9414 11.6875 15.373 11.0234 15.373 10.2598C15.373 9.66211 15.1074 9.01465 14.5596 8.23438L10.9902 3.2041C10.4092 2.40723 9.5957 2.05859 8.68262 2.05859C7.60352 2.05859 6.45801 2.55664 5.49512 3.50293C3.88477 5.04688 3.1709 6.95605 3.1709 9.06445C3.1709 13.8291 6.80664 19.6064 11.5879 24.3877Z" fill="#000000" fill-opacity="0.85"/>
  <path d="M37.2871 10.9072C37.8184 10.9072 38.2168 10.5088 38.2168 9.96094L38.2168 5.71094C38.2168 5.17969 37.8184 4.76465 37.2871 4.76465C36.7559 4.76465 36.3408 5.19629 36.3408 5.71094L36.3408 9.96094C36.3408 10.4922 36.7559 10.9072 37.2871 10.9072Z" fill="#000000" fill-opacity="0.85"/>
  <path d="M33.3691 14.0283C33.917 14.0283 34.332 13.6299 34.332 13.0986L34.332 2.57324C34.332 2.05859 33.917 1.66016 33.3691 1.66016C32.8711 1.66016 32.4561 2.05859 32.4561 2.57324L32.4561 13.0986C32.4561 13.6299 32.8711 14.0283 33.3691 14.0283Z" fill="#000000" fill-opacity="0.85"/>
  <path d="M29.501 15.6885C30.0156 15.6885 30.4307 15.2734 30.4307 14.7588L30.4307 0.962891C30.4307 0.415039 30.0156 0 29.501 0C28.9697 0 28.5713 0.415039 28.5713 0.962891L28.5713 14.7588C28.5713 15.29 28.9531 15.6885 29.501 15.6885Z" fill="#000000" fill-opacity="0.85"/>
  <path d="M25.5996 12.8164C26.1309 12.8164 26.5459 12.4014 26.5459 11.8701L26.5459 3.80176C26.5459 3.28711 26.1309 2.87207 25.5996 2.87207C25.085 2.87207 24.6699 3.28711 24.6699 3.80176L24.6699 11.8701C24.6699 12.4014 25.085 12.8164 25.5996 12.8164Z" fill="#000000" fill-opacity="0.85"/>
  <path d="M21.6982 10.0273C22.2295 10.0273 22.6445 9.6123 22.6445 9.11426L22.6445 6.57422C22.6445 6.05957 22.2295 5.64453 21.6982 5.64453C21.1836 5.64453 20.7852 6.05957 20.7852 6.57422L20.7852 9.11426C20.7852 9.6123 21.1836 10.0273 21.6982 10.0273Z" fill="#000000" fill-opacity="0.85"/>
 </g>
</svg>

