<svg width="46" height="34" viewBox="0 0 46 34" fill="none" xmlns="http://www.w3.org/2000/svg">
<path d="M20 0.5C19.6022 0.5 19.2206 0.658036 18.9393 0.93934C18.658 1.22064 18.5 1.60218 18.5 2V5H3.5C2.70435 5 1.94129 5.31607 1.37868 5.87868C0.816071 6.44129 0.5 7.20435 0.5 8V26C0.5 26.7956 0.816071 27.5587 1.37868 28.1213C1.94129 28.6839 2.70435 29 3.5 29H18.5V32C18.5 32.3978 18.658 32.7794 18.9393 33.0607C19.2206 33.342 19.6022 33.5 20 33.5C20.3978 33.5 20.7794 33.342 21.0607 33.0607C21.342 32.7794 21.5 32.3978 21.5 32V2C21.5 1.60218 21.342 1.22064 21.0607 0.93934C20.7794 0.658036 20.3978 0.5 20 0.5ZM3.5 26V8H18.5V26H3.5ZM45.5 8V26C45.5 26.7956 45.1839 27.5587 44.6213 28.1213C44.0587 28.6839 43.2957 29 42.5 29H26C25.6022 29 25.2206 28.842 24.9393 28.5607C24.658 28.2794 24.5 27.8978 24.5 27.5C24.5 27.1022 24.658 26.7206 24.9393 26.4393C25.2206 26.158 25.6022 26 26 26H42.5V8H26C25.6022 8 25.2206 7.84196 24.9393 7.56066C24.658 7.27936 24.5 6.89782 24.5 6.5C24.5 6.10218 24.658 5.72064 24.9393 5.43934C25.2206 5.15804 25.6022 5 26 5H42.5C43.2957 5 44.0587 5.31607 44.6213 5.87868C45.1839 6.44129 45.5 7.20435 45.5 8ZM15.5 14C15.5 14.3978 15.342 14.7794 15.0607 15.0607C14.7794 15.342 14.3978 15.5 14 15.5H12.5V20C12.5 20.3978 12.342 20.7794 12.0607 21.0607C11.7794 21.342 11.3978 21.5 11 21.5C10.6022 21.5 10.2206 21.342 9.93934 21.0607C9.65804 20.7794 9.5 20.3978 9.5 20V15.5H8C7.60218 15.5 7.22064 15.342 6.93934 15.0607C6.65804 14.7794 6.5 14.3978 6.5 14C6.5 13.6022 6.65804 13.2206 6.93934 12.9393C7.22064 12.658 7.60218 12.5 8 12.5H14C14.3978 12.5 14.7794 12.658 15.0607 12.9393C15.342 13.2206 15.5 13.6022 15.5 14Z" fill="black"/>
</svg>

