<svg width="32" height="26" viewBox="0 0 32 26" fill="none" xmlns="http://www.w3.org/2000/svg">
<path d="M6.86 0.928754C6.72828 0.780266 6.56839 0.6594 6.3896 0.57316C6.21082 0.486921 6.0167 0.437024 5.81849 0.42636C5.62028 0.415697 5.42192 0.44448 5.23492 0.511041C5.04792 0.577601 4.87598 0.680616 4.72908 0.814115C4.58219 0.947613 4.46325 1.10894 4.37916 1.28874C4.29507 1.46855 4.2475 1.66325 4.23921 1.86158C4.23093 2.0599 4.26209 2.2579 4.33089 2.44409C4.39968 2.63028 4.50475 2.80097 4.64 2.94625L6.64 5.1525C2.33375 8.02 0.465002 12.135 0.375002 12.3288C0.290319 12.5207 0.246582 12.7283 0.246582 12.9381C0.246582 13.148 0.290319 13.3555 0.375002 13.5475C0.421252 13.65 1.51625 16.08 3.93625 18.4988C7.17125 21.73 11.25 23.4375 15.75 23.4375C17.937 23.4496 20.1045 23.0246 22.125 22.1875L24.6363 24.95C24.9052 25.2389 25.2772 25.4102 25.6715 25.4266C26.0659 25.4431 26.4509 25.3035 26.743 25.038C27.0351 24.7726 27.2108 24.4027 27.232 24.0085C27.2532 23.6144 27.1182 23.2278 26.8563 22.9325L6.86 0.928754ZM15.75 20.4375C12.0513 20.4375 8.81625 19.0963 6.13625 16.4525C5.08207 15.4087 4.17498 14.2262 3.44 12.9375C4.09875 11.7738 5.78875 9.2 8.69 7.40125L19.9513 19.79C18.5932 20.2236 17.1756 20.4421 15.75 20.4375ZM31.125 13.5475C31.08 13.6488 30 16.0475 27.625 18.4425C27.489 18.5935 27.3238 18.7152 27.1393 18.8004C26.9548 18.8856 26.7549 18.9324 26.5518 18.9379C26.3487 18.9435 26.1466 18.9078 25.9577 18.8329C25.7688 18.758 25.5971 18.6455 25.453 18.5023C25.3089 18.359 25.1954 18.188 25.1194 17.9996C25.0434 17.8111 25.0065 17.6092 25.0109 17.4061C25.0153 17.2029 25.0609 17.0028 25.145 16.8178C25.2291 16.6329 25.3498 16.4669 25.5 16.33C26.4976 15.3157 27.3583 14.1752 28.06 12.9375C27.3255 11.6486 26.4183 10.466 25.3638 9.4225C22.6825 6.77875 19.4488 5.4375 15.75 5.4375C15.3313 5.4375 14.9125 5.455 14.5 5.49C14.3012 5.5113 14.1002 5.49264 13.9087 5.43513C13.7172 5.37762 13.5392 5.28242 13.3851 5.15511C13.2309 5.02781 13.1038 4.87097 13.0111 4.69383C12.9184 4.51668 12.8621 4.3228 12.8454 4.12357C12.8288 3.92435 12.8521 3.7238 12.9141 3.53372C12.976 3.34364 13.0753 3.16786 13.2062 3.01672C13.337 2.86558 13.4968 2.74211 13.676 2.65359C13.8553 2.56507 14.0504 2.51328 14.25 2.50125C14.7413 2.45875 15.25 2.4375 15.75 2.4375C20.25 2.4375 24.3288 4.14625 27.5613 7.3775C29.98 9.79625 31.075 12.2275 31.1213 12.3288C31.2065 12.5205 31.2509 12.7279 31.2515 12.9377C31.2522 13.1476 31.2091 13.3552 31.125 13.5475Z" fill="black"/>
</svg>

