<svg width="400" height="553" viewBox="0 0 400 553" fill="none" xmlns="http://www.w3.org/2000/svg">
<line x1="394.14" y1="148.462" x2="360.14" y2="180.462" stroke="#FFE34F" stroke-width="15"/>
<line x1="269.378" y1="13.8291" x2="249.378" y2="39.8291" stroke="#FFE34F" stroke-width="6"/>
<line x1="232.317" y1="426.589" x2="222.131" y2="401.684" stroke="#FFE34F" stroke-width="6"/>
<line x1="122.207" y1="170.573" x2="115.946" y2="202.772" stroke="#FFE34F" stroke-width="6"/>
<line x1="272.684" y1="477.535" x2="250.912" y2="520.325" stroke="#FFE34F" stroke-width="20"/>
<line x1="123.953" y1="350.024" x2="112.953" y2="370.024" stroke="#FFE34F" stroke-width="25"/>
<line x1="164.348" y1="56.8892" x2="193.351" y2="77.5275" stroke="#FFE34F" stroke-width="15"/>
<line x1="266.284" y1="176.934" x2="232.47" y2="185.913" stroke="#FFE34F" stroke-width="15"/>
<line x1="-18.8635" y1="295.737" x2="32.3425" y2="331.346" stroke="#FFE34F" stroke-width="25"/>
<path d="M109.18 550.038L134.666 415.196L163.059 407.371L222.708 321.799L210.774 311.504C210.774 311.504 189.376 311.088 171.277 343.175C171.277 343.175 159.343 337.82 159.343 336.596C159.343 335.372 171.277 243.614 171.277 243.614L151.124 241.559C151.124 241.559 140.436 305.34 138.775 305.34C137.114 305.34 131.78 304.924 131.78 304.924L134.687 228.488C134.687 228.488 112.065 228.904 112.065 230.543C112.065 232.182 109.18 307.81 109.18 307.81C109.18 307.81 103.824 309.034 103.824 307.394C103.824 305.755 98.0978 237.406 98.0978 237.406L79.9996 239.461L84.087 313.974C84.087 313.974 77.0926 317.667 77.0926 316.443C77.0926 315.219 70.5134 262.958 68.8741 262.958C67.2348 262.958 52 264.597 52 264.597L63.1693 389.142L93.1361 409.841L63.1688 550.038H109.18Z" fill="#B1EAEA"/>
<path d="M77.8145 349.861C93.3771 351.96 107.147 363.916 111.432 379.041C124.393 367.063 142.12 360.375 159.759 360.79" stroke="white" stroke-width="6" stroke-miterlimit="10"/>
<path d="M331.436 552.48L311.064 410.271L282.256 399.583L256.748 343.627L223 310.709L234.519 300.021C234.519 300.021 260.857 297.551 277.316 328.829L288.005 327.999L287.174 271.213L283.065 239.934H304.463L311.873 305.77L315.982 306.185V228H339.436V305.77L344.791 305.354L350.561 237.049L371.129 238.688L364.965 313.573H371.129L380.594 259.672L398.692 263.366L391.697 383.102L354.933 407.779L371.741 552.48H331.414H331.436Z" fill="#B1EAEA"/>
<path d="M292.9 344.5C307.414 347.538 320.463 357.046 327.763 369.964C332.353 354.489 348.178 343.145 364.309 343.8" stroke="white" stroke-width="6" stroke-miterlimit="10"/>
<line x1="185.152" y1="221.55" x2="210.158" y2="245.187" stroke="#FFE34F" stroke-width="15"/>
<line x1="118.736" y1="442.815" x2="144.736" y2="459.815" stroke="#FFE34F" stroke-width="10"/>
<line x1="359.381" y1="417.948" x2="329.825" y2="429.964" stroke="#FFE34F" stroke-width="15"/>
<line x1="136.381" y1="6.94775" x2="106.825" y2="18.9643" stroke="#FFE34F" stroke-width="15"/>
</svg>

