<svg width="200" height="200" viewBox="0 0 200 200" fill="none" xmlns="http://www.w3.org/2000/svg">
<path d="M168.75 87.5V162.5C168.75 165.815 167.433 168.995 165.089 171.339C162.745 173.683 159.565 175 156.25 175H43.75C40.4348 175 37.2554 173.683 34.9112 171.339C32.567 168.995 31.25 165.815 31.25 162.5V87.5C31.25 84.1848 32.567 81.0054 34.9112 78.6612C37.2554 76.317 40.4348 75 43.75 75H62.5C64.1576 75 65.7473 75.6585 66.9194 76.8306C68.0915 78.0027 68.75 79.5924 68.75 81.25C68.75 82.9076 68.0915 84.4973 66.9194 85.6694C65.7473 86.8415 64.1576 87.5 62.5 87.5H43.75V162.5H156.25V87.5H137.5C135.842 87.5 134.253 86.8415 133.081 85.6694C131.908 84.4973 131.25 82.9076 131.25 81.25C131.25 79.5924 131.908 78.0027 133.081 76.8306C134.253 75.6585 135.842 75 137.5 75H156.25C159.565 75 162.745 76.317 165.089 78.6612C167.433 81.0054 168.75 84.1848 168.75 87.5Z" fill="black"/>
<path d="M106.249 125.659L126.828 105.073C128 103.9 129.591 103.242 131.249 103.242C132.908 103.242 134.499 103.9 135.671 105.073C136.844 106.246 137.503 107.837 137.503 109.495C137.503 111.154 136.844 112.744 135.671 113.917L104.421 145.167C103.841 145.748 103.152 146.209 102.393 146.524C101.634 146.838 100.821 147 99.9995 147C99.1781 147 98.3648 146.838 97.6061 146.524C96.8473 146.209 96.158 145.748 95.5776 145.167L64.3276 113.917C63.1548 112.744 62.496 111.154 62.496 109.495C62.496 107.837 63.1548 106.246 64.3276 105.073C65.5003 103.9 67.0909 103.242 68.7495 103.242C70.408 103.242 71.9986 103.9 73.1713 105.073L93.7495 125.659L93.7495 53.2451C93.7495 51.5875 94.4079 49.9978 95.58 48.8257C96.7521 47.6536 98.3419 46.9951 99.9995 46.9951C101.657 46.9951 103.247 47.6536 104.419 48.8257C105.591 49.9978 106.249 51.5875 106.249 53.2451L106.249 125.659Z" fill="black"/>
</svg>

