<svg width="33" height="32" viewBox="0 0 33 32" fill="none" xmlns="http://www.w3.org/2000/svg">
<path d="M5.5 11H9.625C9.8453 11.8604 10.3457 12.623 11.0473 13.1676C11.7489 13.7122 12.6118 14.0078 13.5 14.0078C14.3882 14.0078 15.2511 13.7122 15.9527 13.1676C16.6543 12.623 17.1547 11.8604 17.375 11H27.5C27.7652 11 28.0196 10.8946 28.2071 10.7071C28.3946 10.5195 28.5 10.2652 28.5 9.99997C28.5 9.73475 28.3946 9.4804 28.2071 9.29286C28.0196 9.10533 27.7652 8.99997 27.5 8.99997H17.375C17.1547 8.13955 16.6543 7.37693 15.9527 6.83233C15.2511 6.28773 14.3882 5.99213 13.5 5.99213C12.6118 5.99213 11.7489 6.28773 11.0473 6.83233C10.3457 7.37693 9.8453 8.13955 9.625 8.99997H5.5C5.23478 8.99997 4.98043 9.10533 4.79289 9.29286C4.60536 9.4804 4.5 9.73475 4.5 9.99997C4.5 10.2652 4.60536 10.5195 4.79289 10.7071C4.98043 10.8946 5.23478 11 5.5 11ZM13.5 7.99997C13.8956 7.99997 14.2822 8.11727 14.6111 8.33703C14.94 8.55679 15.1964 8.86915 15.3478 9.2346C15.4991 9.60006 15.5387 10.0022 15.4616 10.3902C15.3844 10.7781 15.1939 11.1345 14.9142 11.4142C14.6345 11.6939 14.2781 11.8844 13.8902 11.9615C13.5022 12.0387 13.1001 11.9991 12.7346 11.8477C12.3692 11.6964 12.0568 11.44 11.8371 11.1111C11.6173 10.7822 11.5 10.3955 11.5 9.99997C11.5 9.46954 11.7107 8.96083 12.0858 8.58576C12.4609 8.21068 12.9696 7.99997 13.5 7.99997ZM27.5 21H25.375C25.1547 20.1396 24.6543 19.3769 23.9527 18.8323C23.2511 18.2877 22.3882 17.9921 21.5 17.9921C20.6118 17.9921 19.7489 18.2877 19.0473 18.8323C18.3457 19.3769 17.8453 20.1396 17.625 21H5.5C5.23478 21 4.98043 21.1053 4.79289 21.2929C4.60536 21.4804 4.5 21.7348 4.5 22C4.5 22.2652 4.60536 22.5195 4.79289 22.7071C4.98043 22.8946 5.23478 23 5.5 23H17.625C17.8453 23.8604 18.3457 24.623 19.0473 25.1676C19.7489 25.7122 20.6118 26.0078 21.5 26.0078C22.3882 26.0078 23.2511 25.7122 23.9527 25.1676C24.6543 24.623 25.1547 23.8604 25.375 23H27.5C27.7652 23 28.0196 22.8946 28.2071 22.7071C28.3946 22.5195 28.5 22.2652 28.5 22C28.5 21.7348 28.3946 21.4804 28.2071 21.2929C28.0196 21.1053 27.7652 21 27.5 21ZM21.5 24C21.1044 24 20.7178 23.8827 20.3889 23.6629C20.06 23.4431 19.8036 23.1308 19.6522 22.7653C19.5009 22.3999 19.4613 21.9978 19.5384 21.6098C19.6156 21.2218 19.8061 20.8655 20.0858 20.5858C20.3655 20.3061 20.7219 20.1156 21.1098 20.0384C21.4978 19.9612 21.8999 20.0008 22.2654 20.1522C22.6308 20.3036 22.9432 20.5599 23.1629 20.8888C23.3827 21.2177 23.5 21.6044 23.5 22C23.5 22.5304 23.2893 23.0391 22.9142 23.4142C22.5391 23.7893 22.0304 24 21.5 24Z" fill="gray"/>
</svg>

