<svg width="42" height="41" viewBox="0 0 42 41" fill="none" xmlns="http://www.w3.org/2000/svg">
<path d="M38.9753 29.1494C39.0429 29.1156 39.0766 29.0819 39.0429 28.9805C39.0091 29.0481 39.0091 29.0819 38.9753 29.1494ZM38.2657 30.3996C38.6036 30.028 38.8063 29.6225 38.9753 29.1494C38.6712 29.5211 38.4346 29.8928 38.2657 30.3996ZM37.9616 32.1905C37.9278 32.2581 37.894 32.2919 37.8602 32.3257C37.8264 32.3594 37.8264 32.3594 37.8264 32.3594C37.7588 32.3932 37.6575 32.5622 37.7926 32.5284C37.8264 32.4946 37.8602 32.4608 37.894 32.4608C37.9278 32.427 37.9954 32.3932 37.9954 32.3257C38.2319 32.1905 38.3333 32.0215 38.3671 31.785C38.2319 31.8526 38.0967 31.9878 37.9616 32.1905ZM28.1964 4.65194C27.8585 4.31404 27.4868 4.41541 27.0475 4.4492C27.0813 4.55057 27.1489 4.65194 27.2503 4.75331C27.1489 4.71952 27.0137 4.71952 26.8786 4.75331C26.9462 4.85468 27.0475 4.92226 27.1827 4.92226C27.2841 4.95605 27.3854 4.88847 27.4868 4.85468C27.7233 4.88847 27.9261 4.88847 28.1288 4.82089C28.1626 4.82089 28.1626 4.7871 28.1964 4.7871C28.2302 4.7871 28.264 4.82089 28.2977 4.82089C28.3653 4.82089 28.4667 4.7871 28.5343 4.7871C28.6694 4.82089 28.7708 4.82089 28.8384 4.68573C28.737 4.65194 28.6356 4.71952 28.5343 4.68573C28.4329 4.65194 28.3315 4.61815 28.1964 4.65194ZM27.6895 3.63825C27.3516 3.57067 27.0475 3.67204 26.6758 3.73962C27.0475 3.8072 27.3854 3.77341 27.7571 3.70583C28.0612 3.67204 28.3315 3.70583 28.6019 3.63825C28.3315 3.53688 28.0274 3.4693 27.6895 3.63825ZM13.0924 14.2144C13.0586 14.282 13.0248 14.3158 12.9573 14.3834C13.0248 14.3496 13.0924 14.3158 13.0924 14.2144ZM26.0676 5.05742C26.2704 5.05742 26.4393 5.02363 26.6421 5.02363C26.5069 4.95605 26.0001 4.68573 26.0676 5.05742ZM24.5133 4.38162C24.5809 4.34783 24.716 4.34783 24.7498 4.34783C24.7836 4.34783 24.7836 4.34783 24.7836 4.34783C25.0202 4.31404 25.2229 4.24646 25.3918 4.07752C25.0877 4.04373 24.7498 4.04373 24.4457 4.07752C24.4119 4.07752 24.4119 4.04373 24.3781 4.04373C24.3444 4.04373 24.3444 4.04373 24.3444 4.04373C24.3106 3.97615 24.2768 3.94236 24.1754 3.94236C24.1078 3.97615 24.2092 4.00994 24.1416 4.00994C24.1078 4.04373 24.0403 4.00994 23.9727 3.97615C23.9389 3.97615 24.0065 3.90857 24.0065 3.90857C23.8037 3.87478 23.601 3.94236 23.3982 3.97615C23.1955 4.04373 22.959 4.07752 22.7562 4.17888C22.7225 4.17888 22.5873 4.21267 22.5873 4.24646C22.5535 4.28025 22.6549 4.21267 22.6549 4.24646C22.6549 4.28025 22.6211 4.31404 22.6211 4.34783C21.6412 4.48299 20.2558 4.48299 19.9179 5.56426C20.9992 5.15878 22.0805 4.7871 23.1955 4.61815C23.4658 4.58436 23.7361 4.51678 24.0065 4.4492C24.243 4.48299 24.4119 4.48299 24.5133 4.38162ZM11.0312 22.0198L10.9299 21.9522C11.0988 21.8171 11.1664 21.7157 10.9975 21.5805C11.1664 21.0399 11.2002 20.4993 11.2002 19.9249C11.2002 19.7221 11.1664 19.5532 11.234 19.3504C11.234 19.3166 11.2678 19.3842 11.2678 19.3842C11.3691 19.2491 11.4029 19.1139 11.3691 18.945C11.4705 18.6409 11.5381 18.3705 11.4367 18.0664C11.8422 17.7285 12.0111 17.4244 11.8084 16.8838C12.1125 16.6473 12.2815 16.3769 12.349 16.0053C12.4842 15.8363 12.5518 15.7349 12.4504 15.5322C12.4504 15.4984 12.4842 15.5322 12.4842 15.5322C12.518 15.4646 12.518 15.4308 12.4842 15.3633C12.6531 15.2619 12.5856 15.1605 12.4842 15.0591C12.5518 15.0254 12.6531 14.9916 12.7207 14.9578C12.8897 14.7888 12.8897 14.6199 12.8559 14.3834C13.0248 14.4171 13.1938 14.1468 13.1938 14.0792C13.2276 14.0117 13.2276 14.0117 13.2276 14.0117C13.3289 13.7076 13.4303 13.4035 13.5317 13.1331C13.5317 13.0993 13.5993 13.0993 13.5993 13.0993C13.7006 13.0318 13.7682 12.9304 13.802 12.7952C13.802 12.7615 13.8358 12.7952 13.8696 12.7615C14.1399 12.5587 14.3088 12.2884 14.4778 12.0181C14.5116 12.0181 14.5454 12.0519 14.5792 12.0181C14.6805 11.9505 14.8833 11.6802 14.9508 11.6126C15.0184 11.545 14.9846 11.5788 15.0184 11.545C15.1198 11.4437 15.1198 11.3761 15.1536 11.2747C15.1874 11.2409 15.2212 11.2747 15.2212 11.2747C15.3901 11.1733 15.5253 11.072 15.5591 10.903C15.6266 10.8354 15.6604 10.8017 15.6942 10.7003C15.7956 10.6665 15.897 10.6665 15.8632 10.5313C15.9645 10.4975 16.0659 10.4638 16.1335 10.3962C16.2011 10.3624 16.2686 10.3286 16.3024 10.2272C16.3024 10.1934 16.2686 10.261 16.2686 10.261C16.2686 10.261 16.2348 10.2272 16.2686 10.2272C16.5727 10.1259 16.8431 9.9907 17.0796 9.78797C17.0796 9.78797 17.0796 9.78797 17.1134 9.78797C17.181 9.75418 17.2147 9.75418 17.2823 9.72039C17.3499 9.6866 17.3837 9.61902 17.4513 9.55144C17.4851 9.61902 17.5864 9.58523 17.6202 9.51765C17.654 9.48386 17.5864 9.48386 17.6202 9.48386C17.654 9.45007 17.5189 9.48386 17.5189 9.45007C17.5189 9.41628 17.5189 9.41628 17.5526 9.41628C17.5864 9.41628 17.6202 9.45007 17.6202 9.45007C17.654 9.41628 17.6878 9.41628 17.6878 9.41628C17.7216 9.38249 17.7216 9.38249 17.7554 9.38249C17.8905 9.28112 17.9919 9.17975 18.0595 9.04459C18.4312 8.97701 18.7015 8.80807 18.938 8.47017C18.3974 8.40259 17.9581 8.43638 17.4513 8.67291C17.3837 8.67291 17.2823 8.7067 17.2485 8.74049C17.2147 8.77428 17.2147 8.77428 17.2147 8.77428C17.181 8.80807 17.181 8.80807 17.181 8.80807C17.1472 8.84186 17.1472 8.84186 17.1472 8.84186C17.1472 8.87565 17.181 8.80807 17.181 8.84186C17.181 8.87565 17.1472 8.90943 17.1472 8.94322C16.9782 8.90943 16.8093 8.94322 16.6403 8.87565C16.4714 8.80807 16.3362 8.74049 16.2011 8.90943C16.1673 8.84186 15.9983 8.84186 15.9645 8.84186C15.8969 8.84186 15.9307 8.84186 15.9307 8.84186C15.8632 8.7067 15.6266 8.90943 15.5928 8.94322C15.4239 8.97701 15.3225 9.0108 15.1536 8.97701C15.1874 8.87565 15.2212 8.74049 15.2549 8.63912C15.4239 8.40259 15.5928 8.19985 15.7618 7.99711C15.7956 8.06469 15.728 8.09848 15.8294 8.16606C16.4038 7.65922 17.6202 6.94964 18.0933 6.64553C18.3974 6.47658 18.3974 6.47658 18.3974 6.47658C18.9718 6.27384 19.7152 6.17247 19.6814 5.46289C19.0394 5.66563 18.465 5.83458 17.9581 6.27384C17.8567 6.30763 17.7554 6.30763 17.654 6.34142C17.6202 6.34142 17.5864 6.37521 17.5864 6.37521C17.3161 6.54416 16.7755 6.81448 16.5052 6.88206C16.0997 7.051 16.0659 7.01721 15.897 7.35511C15.086 7.69301 14.4778 8.26743 13.5655 8.33501C13.802 7.99711 14.0723 7.69301 14.4102 7.45648C14.4778 7.42269 14.5116 7.35511 14.5454 7.35511C14.5792 7.35511 14.5454 7.32132 14.5792 7.32132C14.6129 7.28753 14.5792 7.28753 14.5792 7.28753C14.6467 7.32132 14.7481 7.25374 14.7143 7.18616C14.7143 7.11858 14.6129 7.15237 14.5792 7.15237C14.5454 7.15237 14.5454 7.15237 14.5454 7.15237C14.5454 7.15237 14.5116 7.11858 14.5454 7.11858C14.6129 7.11858 14.7143 7.08479 14.7819 7.08479C14.7481 7.11858 14.7481 7.15237 14.7143 7.15237C14.7819 7.11858 14.8833 7.08479 14.9171 7.01721C15.0184 6.98343 15.1874 6.84827 15.2212 6.78069C15.2549 6.71311 15.2549 6.7469 15.2549 6.7469C15.4239 6.61174 15.5591 6.51037 15.5928 6.30763C15.3901 6.34142 15.2549 6.37521 15.1198 6.51037C14.9508 6.54416 14.7819 6.64553 14.6467 6.71311C14.444 6.81448 14.3088 6.88206 14.1737 7.051C13.8696 7.18616 13.633 7.28753 13.3289 7.21995C13.633 7.11858 13.8358 6.98342 14.0385 6.71311C13.9709 6.67932 13.9372 6.64553 13.8696 6.64553C14.9508 6.13868 15.9645 5.56426 16.9782 4.95605C16.9444 4.92226 16.9106 4.92226 16.9106 4.88847C16.8769 4.85468 16.9106 4.85468 16.9444 4.85468C17.5189 4.7871 18.0257 4.65194 18.296 4.11131C18.296 4.07752 18.296 4.07752 18.3298 4.11131C18.6339 4.28025 18.8704 4.17888 18.9718 3.87478C19.6476 3.84099 20.1882 3.63825 20.7289 3.30035C20.6613 3.30035 20.6275 3.26656 20.5599 3.26656C21.7088 2.99625 22.8238 2.65835 23.9389 2.28667C24.0065 2.32045 24.0403 2.25288 24.074 2.25288C24.1078 2.21909 24.1416 2.21909 24.1416 2.21909C24.3444 2.1853 24.5133 2.15151 24.6823 2.05014C24.6147 2.05014 24.5471 2.01635 24.4795 2.01635C24.5809 1.94877 24.6485 1.91498 24.716 1.8474C24.7498 1.91498 24.7836 1.94877 24.7836 2.01635C24.9526 2.01635 25.0202 1.94877 25.0539 1.77982C26.1352 1.94877 27.0475 1.71224 28.0612 1.44192C27.0475 1.27298 26.1014 1.37434 25.0877 1.47571C24.9188 1.5095 24.4457 1.23919 24.4457 1.54329C23.432 1.34055 22.4521 1.37434 21.4385 1.47571C21.0668 1.44192 20.8302 1.64466 20.5261 1.8474C20.2896 1.77982 20.0531 1.81361 19.7828 1.81361C19.58 1.71224 19.4787 1.74603 19.3435 1.91498C19.1745 1.98256 19.0056 2.01635 18.8366 2.08393C18.8029 2.08393 18.8029 2.05014 18.8029 2.08393C18.8366 2.65835 19.0056 3.06383 19.6138 3.09762C19.6814 3.13141 19.7152 3.13141 19.7828 3.13141C19.8165 1.64466 18.4312 2.38803 17.6878 2.89488C17.1472 2.89488 16.7079 2.99625 16.2348 3.23277C16.0659 3.26656 15.9983 3.30035 15.897 3.43551C15.728 3.4693 15.6266 3.4693 15.5253 3.63825C15.4915 3.60446 15.4239 3.60446 15.4239 3.63825C15.3901 3.63825 15.4239 3.63825 15.3901 3.63825C15.3563 3.63825 15.3901 3.63825 15.3563 3.63825C15.3225 3.63825 15.3563 3.63825 15.3225 3.63825C15.2887 3.63825 15.2887 3.77341 15.2549 3.8072C15.2549 3.84099 15.2549 3.84099 15.1874 3.84099C15.1198 3.84099 15.0184 3.90857 14.9846 3.94236C14.9508 3.97615 14.9508 3.97615 14.9508 3.97615C14.9171 4.00994 14.8833 4.04373 14.8495 4.04373C14.7481 4.11131 14.6467 4.17888 14.5792 4.28025C14.444 4.24646 14.3764 4.24646 14.275 4.38162C14.2413 4.41541 14.3088 4.4492 14.3088 4.4492C13.9709 4.48299 13.7006 4.61815 13.4979 4.88847C13.2951 4.95605 13.0924 5.02363 13.2951 5.22636C13.3289 5.26015 13.3965 5.26015 13.3965 5.29394C13.3627 5.32773 13.3289 5.36152 13.2951 5.32773C13.2614 5.29394 13.1938 5.26015 13.16 5.22636C13.1262 5.19257 13.0924 5.12499 13.0248 5.12499C12.9573 5.12499 12.8559 5.15878 12.8221 5.22636C12.7883 5.29394 12.6531 5.4291 12.5856 5.46289C12.518 5.49668 12.5518 5.46289 12.5518 5.46289C12.1125 5.4291 11.876 5.63184 11.5719 5.93595C11.5381 5.93595 11.4705 5.96974 11.4367 6.00353C11.4029 6.03731 11.3353 6.0711 11.3353 6.0711C11.3016 6.10489 11.3354 6.10489 11.3016 6.10489C10.9637 6.34142 10.592 6.409 10.1865 6.51037C10.1527 6.47658 10.1527 6.47658 10.1527 6.44279C10.3217 6.37521 10.4568 6.24005 10.5244 6.10489C10.5582 6.03732 10.592 6.03731 10.592 6.00353C10.6258 5.93595 10.5582 6.0711 10.5244 6.03731C10.5244 6.00353 10.4906 5.93595 10.4906 5.90216C10.4906 5.86837 10.5582 5.90216 10.592 5.86837C10.6258 6.00353 10.7609 5.93595 10.7609 5.86837C10.7609 5.83458 10.6596 5.83458 10.6596 5.83458C10.6596 5.83458 11.234 5.49668 11.3353 5.09121C11.4367 5.02363 11.5381 4.95605 11.6395 4.85468C11.6057 4.85468 11.6057 4.82089 11.5381 4.85468C11.5043 4.85468 11.5043 4.88847 11.4705 4.85468C11.4367 4.82089 11.4367 4.7871 11.5043 4.7871C11.5381 4.7871 11.5381 4.7871 11.5719 4.82089C11.6057 4.85468 11.6395 4.82089 11.707 4.82089C11.9098 4.7871 11.9774 4.75331 12.0449 4.58436C12.5518 4.28025 13.0924 4.00994 13.5655 3.60446C14.0385 3.40172 14.4778 3.26656 14.8157 2.86109C14.8833 2.86109 14.917 2.8273 14.9846 2.8273C15.0522 2.8273 14.8833 2.89488 14.9508 2.86109C15.0184 2.8273 15.0522 2.79351 15.1198 2.79351C15.4915 2.62456 15.9307 2.42182 16.3024 2.21909C16.2011 1.81361 15.0522 2.52319 14.8157 2.62456C14.7143 2.65835 14.7143 2.65835 14.6805 2.72593C14.7143 2.69214 14.7819 2.65835 14.8157 2.62456C14.7819 2.65835 14.7481 2.72593 14.7143 2.72593C14.6805 2.75972 14.6805 2.69214 14.6467 2.69214C14.444 2.69214 14.275 2.75972 14.0723 2.79351C14.5116 2.4894 14.9171 2.1853 15.3563 1.8474C13.7344 2.28666 12.4504 3.03004 11.1664 4.1451C10.7947 4.21267 10.5244 4.28025 10.3892 4.65194C10.1865 4.68573 10.0513 4.71952 10.1527 4.92226C10.0851 4.92226 10.0176 4.95605 9.98376 4.95605C9.91618 4.95605 10.0176 4.92226 9.94998 4.92226C9.91619 4.88847 9.88239 4.95605 9.84861 4.95605C9.81482 4.98984 9.88239 4.98984 9.88239 4.98984C9.57829 5.12499 9.40934 5.22636 9.44313 5.56426C9.00387 5.66563 8.66597 5.86837 8.36186 6.20626C8.39565 6.20626 8.39565 6.24005 8.39565 6.24005C8.02396 6.44279 7.78744 6.57795 7.71986 7.051C7.55091 7.08479 7.34817 7.35511 7.28059 7.42269C7.21301 7.52406 7.2468 7.45648 7.21301 7.49027C7.14543 7.52406 7.11164 7.59164 7.07785 7.62543C7.04406 7.65922 6.97649 7.7268 6.97649 7.76059C6.97649 7.79438 7.01027 7.76059 7.01027 7.79438C6.77375 8.0309 6.63859 8.26743 6.50343 8.57154C6.46964 8.57154 6.40206 8.60533 6.40206 8.63912C6.40206 8.67291 6.46964 8.57154 6.43585 8.60533C6.36827 8.63912 6.36827 8.67291 6.33448 8.7067C6.30069 8.74049 6.23311 8.87565 6.19932 8.90943C6.16553 8.97701 6.13175 9.04459 6.09796 9.07838C6.06417 9.11217 6.06417 9.11217 6.06417 9.11217C5.55732 9.31491 5.52353 9.6866 5.59111 10.1934C5.52353 10.1934 5.48974 10.2272 5.42216 10.2272C5.21943 10.5989 4.9829 10.9368 4.88153 11.3761C4.81395 11.4437 4.74637 11.545 4.71258 11.6126C4.71258 11.5788 4.67879 11.545 4.67879 11.545C4.57742 11.6464 4.47605 11.7816 4.47605 11.9167C4.47605 11.9505 4.44226 11.9505 4.44226 11.9505C4.20574 12.2884 4.003 12.5925 4.03679 13.0318C4.003 13.0656 4.003 13.0656 4.003 13.0993C4.003 13.1331 4.03679 13.1331 4.03679 13.1669C3.83405 13.2007 3.80026 13.3359 3.83405 13.5386C3.90163 13.5724 4.003 13.6062 4.03679 13.64C3.93542 13.5386 3.83405 13.6738 3.80026 13.7076C3.76647 13.7751 3.80026 13.7751 3.80026 13.7751C3.73268 13.8427 3.73268 13.8765 3.6651 13.9779C3.63131 13.8765 3.56373 13.8427 3.56373 13.6738C3.56373 13.5048 3.73268 13.3021 3.52994 13.2007C3.56373 13.1669 3.56373 13.1331 3.59752 13.0993C3.63131 13.0656 3.63131 13.1669 3.6651 13.1669C3.73268 13.0993 3.73268 13.0318 3.63131 12.998H3.59752C3.76647 12.7952 3.83405 12.6263 3.80026 12.356C3.86784 12.356 3.90163 12.356 3.93542 12.3222C3.96921 12.2884 3.96921 12.1532 3.90163 12.1195C3.86784 12.0857 3.90163 12.0857 3.93542 12.0519C4.10437 11.6126 4.10437 11.1733 3.52994 11.2071C3.42857 11.2071 3.42857 11.4099 3.36099 11.4774C3.3272 11.4437 3.29341 11.4437 3.29341 11.4099C3.29341 11.3761 3.3272 11.4099 3.3272 11.3423C3.56373 10.7679 3.76647 10.1934 3.90163 9.58523C4.13816 9.14596 4.37468 8.7067 4.50984 8.23364C4.13816 8.3688 4.003 8.57154 3.90163 8.94322C3.69889 9.0108 3.59752 9.14596 3.42857 9.31491C3.36099 9.41628 3.25963 9.65281 3.15826 9.72039C2.65141 10.1934 2.17836 11.0044 2.21215 11.6464C2.24594 12.0857 2.31352 11.714 2.24594 11.8153C2.17836 11.8829 2.07699 11.8491 2.0432 11.9167C2.00941 11.9843 2.00941 11.9843 2.00941 12.0519C1.90804 12.1532 1.87425 12.2546 1.87425 12.4236C1.77288 12.5587 1.7053 12.6601 1.77288 12.7952C1.60393 12.9642 1.57014 13.0993 1.57014 13.3359C1.36741 13.3697 1.33362 13.6738 1.29983 13.7751C1.26604 13.8765 1.29983 13.8427 1.26604 13.8427C1.23225 13.8765 1.26604 13.8765 1.26604 13.8765C0.725402 14.5185 0.421295 15.566 0.421295 16.2756C0.421295 16.6135 0.455086 16.3432 0.455086 16.4783C0.455086 16.6135 0.488875 16.4783 0.455086 16.5459C0.421296 16.6135 0.421296 16.6473 0.455086 16.6811C0.455086 16.7148 0.421295 16.6473 0.421295 16.6811C0.286137 17.0527 0.184768 17.4244 0.218558 17.8637C0.218558 17.8975 0.184769 17.8975 0.184769 17.8975C0.117189 18.0664 0.117189 18.2354 0.150978 18.4043C-0.0179699 19.2829 -0.0517598 20.1276 0.0833988 21.0399C0.0158195 21.3778 0.0496091 21.6481 0.252347 21.9522C0.218557 21.9522 0.218558 22.0198 0.184769 21.986C0.150979 21.9522 0.117188 21.9184 0.0833988 21.8847C0.0158195 22.4591 0.0158195 22.9997 0.252347 23.5741C0.252347 23.6755 0.286137 23.7431 0.319927 23.8445H0.286137C0.218558 23.912 0.319927 24.081 0.353717 24.1148C0.387507 24.1486 0.353716 24.1148 0.387506 24.1486C0.421296 24.1824 0.488875 24.2161 0.556454 24.1824C0.556454 24.1824 0.522665 24.1486 0.556454 24.1486C0.590244 24.1824 0.624033 24.1148 0.657823 24.081C0.691612 24.0472 0.691613 24.081 0.691613 24.0472C0.725403 24.7568 0.894351 25.3988 1.13088 26.0746C1.13088 26.2773 1.16467 26.48 1.23225 26.6828C1.19846 26.5138 1.13088 26.3449 0.995719 26.2773C0.96193 26.2435 0.96193 26.2773 0.96193 26.2435C0.860561 26.1421 0.86056 26.007 0.759192 25.8718C0.725402 26.0746 0.759192 26.1759 0.96193 26.2435C0.894351 27.122 1.26604 27.7303 1.77288 28.4061C1.77288 28.4398 1.73909 28.3723 1.73909 28.4061C1.77288 28.4398 1.80667 28.4736 1.80667 28.5074C1.87425 28.6088 1.90804 28.7102 1.97562 28.8115C1.97562 28.8453 2.00941 28.8115 2.00941 28.8115C1.97562 28.9129 1.97562 29.0143 2.07699 29.0481C2.11078 29.0481 2.07699 29.0819 2.07699 29.0819C2.17836 29.4535 2.38109 29.8252 2.58383 30.1631L2.55004 30.1969C2.58383 30.3659 2.61762 30.501 2.75278 30.6024C2.78657 30.7713 2.85415 30.9403 2.95552 31.0416C3.05689 31.143 3.15826 31.2106 3.25963 31.2782C2.95552 31.3795 3.29341 31.5147 3.42857 31.6161C3.46236 32.2243 3.76647 32.5622 4.17195 32.9339C4.27331 33.1366 4.37468 33.2718 4.61121 33.3731C4.74637 33.5421 4.91532 33.711 5.05048 33.8462C5.08427 33.88 4.9829 33.8462 5.01669 33.88C5.11806 33.9138 5.25321 33.9476 5.35458 33.9813C5.287 34.0151 5.25321 34.0489 5.18563 34.0827C5.48974 34.4206 5.79385 34.7247 6.16553 34.9612C6.36827 35.1978 6.53722 35.3329 6.87512 35.4343C6.87512 35.4681 6.84133 35.4681 6.84133 35.5019C6.84133 35.5357 6.87512 35.5357 6.87512 35.5357C6.87512 35.5695 6.84133 35.4681 6.84133 35.5019C6.84133 35.5357 6.90891 35.5695 6.9427 35.6033C6.97649 35.6033 6.90891 35.5695 6.90891 35.5695C7.01027 35.6708 7.14543 35.7384 7.2468 35.8398C7.21301 35.9074 7.17922 35.9074 7.17922 35.9749C7.21301 36.0425 7.2468 36.0763 7.34817 36.0425C7.48333 36.4818 7.71986 36.6507 8.15912 36.7183C8.19291 36.7521 8.12533 36.7859 8.19291 36.8197C8.26049 36.8535 8.36186 36.8197 8.39565 36.7521C8.5646 37.1238 8.80113 37.3265 9.2066 37.4955C9.51071 37.7658 9.8486 37.9685 10.2541 38.1037C10.2203 38.1375 10.2203 38.1375 10.2203 38.1375C10.592 38.4754 10.8623 38.7457 11.3691 38.6443C11.4029 38.6443 11.4029 38.6105 11.4367 38.6443C11.5719 38.7457 11.8084 38.9484 11.9098 39.0498C12.0111 39.1512 11.9098 39.1174 11.9774 39.1174C12.0787 39.3539 12.2815 39.4553 12.4504 39.2187C12.6869 39.5228 12.9235 39.658 13.2951 39.7256C13.3289 39.7256 13.3627 39.7256 13.3627 39.7594C13.5317 39.8607 13.6668 39.9283 13.802 39.7594C14.275 40.2662 14.6805 40.3 15.3563 40.469C15.5591 40.5365 16.0659 40.7731 16.3362 40.7731C16.6403 40.9082 16.8431 40.9758 17.181 40.8744C16.9444 40.7731 16.7417 40.6717 16.4714 40.6717C16.4376 40.6379 16.4376 40.6041 16.4376 40.5703C16.4038 40.5365 16.37 40.5365 16.37 40.5365C16.539 40.5365 16.6741 40.5365 16.8431 40.5703C17.0796 40.7393 17.2823 40.7731 17.5526 40.6717C17.7892 40.7731 18.0595 40.8069 18.3298 40.7731C18.3636 40.7731 18.3298 40.7055 18.3636 40.7055C18.3974 40.7055 18.4312 40.7393 18.465 40.7393C18.5663 40.9758 19.1408 40.942 19.2759 40.942C19.4111 40.942 19.3097 40.9082 19.3435 40.9082C19.3773 40.9082 19.4111 40.8744 19.4787 40.8744C19.5124 40.8744 19.4787 40.9082 19.4787 40.9082C19.58 40.942 19.6814 40.942 19.7152 40.8069C19.7152 40.8069 19.7152 40.7731 19.749 40.8069C20.1207 41.0096 20.3572 40.8744 20.7289 40.7055C21.2357 41.1448 22.4859 40.9082 22.9252 40.8744C23.7699 40.8069 23.9051 40.8406 24.5809 40.5028C24.6485 40.5365 24.7836 40.5365 24.885 40.5365C24.8174 40.6041 24.716 40.6379 24.6485 40.7055C25.4256 40.6379 26.0338 40.5028 26.8448 40.3338C27.5206 40.1649 28.3315 40.0297 28.906 39.4891C28.9398 39.4891 28.9735 39.5229 28.9735 39.5229C28.9735 39.5229 28.9735 39.4891 29.0073 39.4891C29.1087 39.4553 29.1763 39.4891 29.2439 39.5229C29.6493 39.4215 29.9872 39.3539 30.0886 38.8808C30.1224 38.9484 30.1562 39.016 30.1562 39.0836C30.4603 39.016 30.663 38.9822 30.832 38.7119C30.8658 38.7119 30.9333 38.6781 30.9671 38.6781C31.7105 38.3064 32.3525 37.8334 32.9945 37.2927C33.0283 37.3265 33.0621 37.3603 33.0959 37.3603C34.0758 37.0224 34.7178 36.4818 35.2922 35.637C35.5287 35.4343 35.799 35.1978 36.0018 34.9612C36.0018 34.9612 36.0018 34.995 36.0356 34.9612C36.3397 34.5558 36.6438 34.1503 36.9817 33.7448C37.0831 33.6435 37.1506 33.5421 37.2182 33.4069H37.1844C37.2182 33.3393 37.252 33.238 37.2858 33.1704C37.3196 33.1028 37.3196 33.1704 37.3534 33.1366C37.4547 33.069 37.4547 32.9677 37.5223 32.8325C37.3196 32.7311 37.1844 32.8325 37.1844 33.069C37.1168 33.1028 37.0155 33.1028 36.9817 33.1366C36.9817 33.1366 36.9817 33.1704 36.9479 33.1704C36.9141 33.1704 36.8465 33.238 36.8465 33.2718C36.8465 33.3056 36.8127 33.3056 36.8127 33.3056C36.7789 33.3393 36.7452 33.3731 36.7114 33.4069C36.4073 33.6772 36.1707 33.8124 35.7653 33.7448C35.2922 33.5083 34.9881 33.9476 34.684 34.2517C34.6164 34.3192 34.515 34.3868 34.4475 34.4544C34.3799 34.522 34.2447 34.6233 34.1771 34.6909C34.1434 34.7247 34.1096 34.7247 34.0758 34.7585C34.042 34.7923 34.1096 34.7585 34.1096 34.7923C34.0082 34.8599 33.9406 34.9612 33.8055 34.995C33.6027 35.0626 33.4338 35.0964 33.231 35.164C33.3324 35.0626 33.4 34.9612 33.4338 34.8261C33.6027 34.6909 33.7379 34.5558 33.8392 34.3868C33.8055 34.3192 33.7717 34.2855 33.7379 34.2179C33.9406 34.1841 34.2109 34.1841 34.1096 33.9138C34.7854 33.5421 35.2584 33.1028 35.6639 32.4608C35.6639 32.4946 35.6639 32.5284 35.6639 32.5622C35.8666 32.3932 35.968 32.2581 35.968 32.0215C36.2721 31.9202 36.4411 31.785 36.5762 31.4471C36.7789 31.2444 36.9141 31.1092 36.8803 30.8051C36.9141 30.7713 36.9479 30.7713 36.9817 30.7375C37.0155 30.7038 37.0155 30.67 37.0493 30.6362C37.0831 30.6024 37.0831 30.6362 37.0831 30.6362C37.1168 30.6362 37.0493 30.6362 37.1168 30.6024C37.1844 30.5686 37.2182 30.5348 37.2182 30.501C37.252 30.4672 37.1844 30.501 37.1844 30.501C37.3872 30.2645 37.5561 30.0617 37.5223 29.7576C38.1981 29.217 38.4008 28.5412 38.6712 27.7303C37.8602 28.0682 37.6575 29.0143 37.2858 29.7239C37.1506 29.9604 36.9141 30.1969 36.8465 30.4672C36.7114 30.501 36.6438 30.5686 36.5424 30.67C36.5086 30.7038 36.4748 30.7038 36.4748 30.7038C36.6776 30.3996 36.8465 30.1631 36.8465 29.7576C36.8803 29.7576 36.8803 29.7914 36.9141 29.7914C37.1506 29.4873 37.3196 29.1832 37.4885 28.8453C37.5561 28.6764 37.6575 28.6088 37.6237 28.4061C37.6575 28.4398 37.6575 28.4398 37.6913 28.4398C37.894 28.0682 38.1643 27.6965 38.2657 27.2234C38.3671 27.1558 38.4684 27.122 38.5698 27.0883C38.6036 26.9869 38.5698 26.9193 38.536 26.8517C38.705 26.649 38.7725 26.48 38.705 26.2435C38.6036 26.3449 38.5022 26.4125 38.4008 26.48C38.705 26.0408 38.8401 25.6015 38.8739 25.0609C38.9753 24.6892 39.0091 24.3175 38.9753 23.912C39.0091 23.912 39.0429 23.9458 39.0429 23.9458C39.1442 23.5741 39.178 23.2025 39.0429 22.8308C38.7725 23.1011 38.6712 23.3376 38.705 23.7093C38.4346 23.7769 38.2319 23.912 38.0292 24.081V24.0472L38.2319 22.7294C38.2657 22.628 38.2657 22.4929 38.2319 22.3915C37.7926 22.5604 37.7588 22.9659 37.5561 23.3376C36.7114 23.5741 36.6776 24.3175 36.4748 25.0609C36.2721 25.1623 36.0356 25.6353 36.0018 25.8043C35.968 25.9732 35.968 25.9056 35.968 25.9394C35.6639 26.3787 35.3936 26.4125 34.8867 26.4463C34.7516 26.5476 34.6502 26.649 34.5826 26.7842C34.5488 26.8179 34.5488 26.7504 34.5488 26.7504C34.4475 26.7842 34.3799 26.8517 34.3461 26.9531C33.8392 26.7842 33.5014 27.0883 33.0959 27.4262C33.0959 27.3924 33.1297 27.3586 33.1297 27.3248C32.758 27.6289 32.4539 27.8654 32.3863 28.3723C32.1836 28.5412 31.8794 28.6764 31.7443 28.4398C31.6767 28.3385 31.7781 28.3723 31.7105 28.3723C31.947 28.0344 32.2849 27.6965 31.9132 27.3586C31.6429 27.5951 31.4402 27.7978 31.3726 28.1357C31.3388 28.102 31.2712 28.1019 31.2037 28.1019C31.0009 28.0682 30.9671 28.0344 30.9671 27.8316C30.8995 27.8654 30.8658 27.8992 30.7982 27.8992C30.7306 27.8992 30.7982 27.8316 30.7644 27.8316C31.0685 27.6627 31.2374 27.4937 31.3388 27.1896C31.305 27.1558 31.2374 27.1221 31.2037 27.1221C31.3726 26.9869 31.5078 26.8517 31.6429 26.649C31.6429 26.6828 31.6767 26.6828 31.6767 26.7166C31.8457 26.4125 31.9808 26.2097 31.8457 25.8718C31.9132 25.838 31.947 25.8043 32.0146 25.8043C32.0484 24.9933 31.4402 25.6691 31.1699 25.9732C31.1699 25.9732 31.2037 25.9732 31.1699 26.007C31.1361 26.0408 31.1023 26.0408 31.0685 26.0746C31.2374 25.7705 31.2037 25.365 30.8995 25.6353C30.7306 25.8043 30.832 25.7367 30.7982 25.7705C30.7644 25.8043 30.7982 25.8043 30.7644 25.8043C30.7306 25.838 30.7644 25.8043 30.7644 25.838C30.6968 25.9394 30.6292 26.007 30.5617 26.1084C30.5279 26.1422 30.5279 26.1759 30.5279 26.1759C30.5279 26.1759 30.4941 26.2773 30.4603 26.3111C30.3251 26.4463 30.2238 26.6152 30.1562 26.7842C30.1562 26.8179 30.19 26.7842 30.19 26.8179C30.19 26.8517 30.1224 26.8855 30.1224 26.8855C30.0886 26.8855 30.19 26.8179 30.1562 26.8179C30.1224 26.8179 30.021 26.8855 30.021 26.9531C30.021 27.0207 30.0548 26.9193 30.0548 26.9531C30.0548 26.9869 30.021 26.9869 30.021 26.9869C29.9534 26.9531 29.8859 27.0883 29.8521 27.1221C29.8521 27.1558 29.8521 27.1558 29.8521 27.1558C29.8521 27.1558 29.8521 27.1558 29.8183 27.1558C29.7845 27.1896 29.7169 27.2234 29.6831 27.2572C29.6493 27.291 29.548 27.3924 29.5142 27.4262C29.4804 27.4599 29.4804 27.4599 29.4804 27.4599C29.4466 27.4937 29.5142 27.4262 29.4804 27.4599C29.4466 27.4937 29.4466 27.5275 29.4466 27.5613C29.4128 27.5951 29.379 27.5951 29.379 27.5951C29.3452 27.5613 29.4128 27.5275 29.3452 27.5275C29.2776 27.5275 29.2439 27.5951 29.2101 27.6289C29.1763 27.6627 29.2439 27.6627 29.2439 27.6627C28.9397 27.8316 28.737 28.0006 28.6019 28.3385C28.5681 28.3047 28.5681 28.3047 28.5343 28.3047C28.1964 28.5074 27.8585 28.744 27.5544 29.0481C27.5206 29.0819 27.4868 29.0481 27.453 29.0819C27.2503 29.2846 27.4868 29.2508 27.6557 29.217C26.5745 29.6563 25.4256 30.0955 24.3781 30.501C24.1754 30.5686 24.243 30.5686 24.074 30.6362C23.7361 30.5686 23.5334 30.67 23.2631 30.8389C23.1955 30.7713 23.1279 30.7375 23.0604 30.67C22.0467 30.6362 21.033 30.6024 20.0531 30.6362C19.1745 30.5348 18.3974 30.501 17.5864 30.1293C17.012 29.8928 16.539 29.6225 15.9645 29.9942H15.9307C15.9645 29.9604 15.6942 30.0955 15.6942 30.0955C15.6942 30.0955 15.6266 30.0955 15.6604 30.0617C15.6942 30.028 15.8969 29.9942 15.9307 29.9604C15.9645 29.9266 16.0659 29.7914 15.9645 29.7914C16.0321 29.6901 16.0659 29.6225 16.1335 29.5211H16.0997C15.7618 29.3184 15.3901 29.1494 15.0184 28.9467C14.9508 28.7777 14.6467 28.6088 14.5454 28.575C14.444 28.5412 14.4778 28.5412 14.444 28.5412C14.2075 28.3723 14.0385 28.3385 13.802 28.4061C13.8696 28.2371 13.8696 28.1695 13.7344 28.0682C13.7682 28.0344 13.802 28.0006 13.8358 28.0006C13.5993 27.6627 13.3289 27.3924 12.9573 27.1896C13.0586 26.7842 12.8221 26.5814 12.5518 26.2773C12.518 26.2435 12.4842 26.2097 12.4842 26.1759C12.4504 26.1759 12.4842 26.1422 12.4504 26.1422C12.4166 26.1422 12.4166 26.2097 12.3828 26.1759C12.6194 26.0746 12.2477 25.6015 12.2139 25.5339C12.1801 25.4664 12.1801 25.5339 12.1801 25.5001C12.1463 25.4664 12.2477 25.6015 12.2139 25.5339C12.1801 25.4664 12.1801 25.365 12.1463 25.3312C12.1125 25.2974 12.1125 25.3312 12.1125 25.3312C12.1125 25.2298 12.0787 25.1285 12.0449 25.0271C11.9774 24.8244 11.876 24.6554 11.8084 24.4527C11.8422 24.4527 11.8422 24.4865 11.8422 24.4865C11.8084 24.1486 11.7408 23.9458 11.4367 23.8107C11.4705 23.7093 11.4705 23.6417 11.4705 23.5403C11.5043 23.5741 11.5719 23.5741 11.6057 23.6079C11.6057 23.4728 11.5719 23.3376 11.5043 23.2362C11.5043 23.2025 11.4705 23.3038 11.4367 23.2362C11.8422 23.1687 11.2002 22.155 11.0312 22.0198ZM14.7143 4.38162C14.7143 4.41541 14.7143 4.41541 14.7143 4.38162V4.38162ZM14.6467 29.6225C14.6805 29.6225 14.6805 29.6225 14.6467 29.6225V29.6225ZM41.3068 24.1486C41.104 24.5202 41.0027 24.9595 40.8675 25.3988C41.3068 25.0609 41.3743 24.6892 41.3068 24.1486ZM40.2255 24.4527C40.0565 24.7568 39.9214 25.0609 39.8538 25.3988C40.2593 25.365 40.2255 24.7568 40.2255 24.4527ZM21.4385 6.17247C21.2357 6.10489 21.1343 6.13868 21.0668 6.37521C21.2019 6.30763 21.3033 6.24005 21.4385 6.17247ZM41.9826 24.3175C41.8136 24.7906 41.6447 25.2974 41.5433 25.8043C41.4757 26.0408 41.4757 26.2773 41.3743 26.4463C41.3405 26.5138 41.3405 26.48 41.3405 26.5138C41.273 26.5814 41.1378 26.7166 41.273 26.7504C41.4081 26.8179 41.4757 26.6152 41.4419 26.5138C41.6109 26.3111 41.6447 26.1421 41.5771 25.9056C42.0501 25.3988 42.0163 24.8919 41.9826 24.3175ZM19.0732 7.11858C19.749 6.91585 20.4248 6.64553 21.0668 6.37521C20.222 6.24005 19.7152 6.61174 19.0732 7.11858Z" fill="black"/>
<path d="M38.2317 23.5739C38.2317 23.5739 38.3668 22.425 38.3331 21.4113C38.3331 21.3438 38.3331 21.3438 38.3331 21.2762C38.3331 21.2424 38.3331 21.31 38.3668 21.2762C38.4682 20.9721 38.4682 20.668 38.4682 20.3301C38.671 20.3977 38.7723 20.5666 38.8061 20.7693C38.8399 20.9721 38.9075 21.141 38.7385 21.2424C38.5696 20.7356 38.8399 21.6141 38.8399 21.7492C38.8061 21.9182 38.7723 22.1885 38.8061 22.3575C38.7723 22.3237 38.7723 22.2899 38.7723 22.2561C38.671 22.4926 38.5358 22.7291 38.4344 22.9995L38.2317 23.5739Z" fill="black"/>
<path d="M16.2012 1.64494C16.4715 1.57736 16.708 1.47599 17.0121 1.40841C17.1811 1.34083 17.3162 1.30705 17.4514 1.23947C17.6203 1.17189 17.8231 1.10431 17.992 1.03673C18.1948 0.969149 18.4313 0.86778 18.634 0.800201C18.8706 0.698832 19.0733 0.597463 19.3098 0.496094C18.9381 0.563673 18.5664 0.631252 18.1948 0.732621C17.8569 0.83399 17.5528 0.935359 17.2487 1.10431C16.877 1.23947 16.5391 1.4422 16.2012 1.64494Z" fill="black"/>
<path d="M30.5955 4.72006C30.2576 4.55111 30.021 4.51732 29.6156 4.68627C29.9197 4.88901 30.19 4.88901 30.5955 4.72006Z" fill="black"/>
<path d="M22.9927 5.59774C23.3982 5.7329 23.6347 5.63153 23.9726 5.395C23.5671 5.32743 23.2968 5.36121 22.9927 5.59774Z" fill="black"/>
<path d="M40.8336 21.4791C40.8336 21.5129 40.8674 21.5129 40.8336 21.4791C40.5971 21.7832 40.6985 22.0197 40.8674 22.3238C40.9012 22.1549 40.8674 21.9859 40.9012 21.8508C40.935 21.6818 40.9688 21.6142 40.935 21.4791C40.9012 21.3101 40.9012 21.006 40.9012 20.8709C40.8674 20.7695 40.9012 20.8033 40.9012 20.8033C40.935 20.5668 40.8336 20.1275 40.7998 19.9585C40.6985 19.5869 40.6647 21.3101 40.6985 21.5467C40.766 21.5129 40.7998 21.4791 40.8336 21.4791Z" fill="black"/>
</svg>

