<svg width="354" height="749" viewBox="0 0 354 749" fill="none" xmlns="http://www.w3.org/2000/svg">
<rect x="152.914" y="284.414" width="79.0145" height="574.403" transform="rotate(-36.0197 152.914 284.414)" fill="#98D7D7"/>
<path d="M226.62 208.4C204.036 121.946 217.084 111.951 234.794 97.2384L252.776 97.2383L267.488 189.873L197.428 345.429L118.961 339.98L68.6947 313.444L226.62 208.4Z" fill="#98D7D7"/>
<path d="M235.571 185.497L27.961 120.926L11.6137 157.979L227.125 268.323L235.571 185.497Z" fill="#98D7D7"/>
<g clip-path="url(#clip0_160_528)">
<rect width="162.697" height="352.717" rx="16.3473" transform="matrix(-1 0 0 1 219.754 5)" fill="white"/>
<path d="M114 220V220C114 231.47 105.511 241.123 94.4699 244.229C75.0917 249.681 53 259.588 53 273" stroke="#98D7D7" stroke-width="6" stroke-linecap="round"/>
<path d="M164 220V220C164 231.47 172.489 241.123 183.53 244.229C202.908 249.681 225 259.588 225 273" stroke="#98D7D7" stroke-width="6" stroke-linecap="round"/>
<path opacity="0.7" d="M195 132.557C195 198.095 171.48 223 139.936 223C108.392 223 82 195.474 82 132.557C82 91.8733 110.606 72 139.383 72C168.159 72 195 91.8733 195 132.557Z" stroke="#98D7D7" stroke-width="3"/>
<path opacity="0.4" d="M202 130.375C202 203.292 175.566 231 140.114 231C104.662 231 75 200.375 75 130.375C75 85.1107 107.15 63 139.492 63C171.834 63 202 85.1107 202 130.375Z" stroke="#98D7D7" stroke-width="2"/>
<path opacity="0.2" d="M208 127.792C208 207.653 179.068 238 140.266 238C101.464 238 69 204.458 69 127.792C69 78.2164 104.187 54 139.586 54C174.984 54 208 78.2164 208 127.792Z" stroke="#98D7D7"/>
<circle cx="105.033" cy="137.786" r="3.03252" fill="#98D7D7"/>
<circle cx="122.017" cy="137.786" r="3.03252" fill="#98D7D7"/>
<circle cx="119.589" cy="114.738" r="3.03252" fill="#98D7D7"/>
<circle cx="158.413" cy="114.738" r="3.03252" fill="#98D7D7"/>
<circle cx="139.001" cy="137.786" r="3.03252" fill="#98D7D7"/>
<circle cx="139.001" cy="105.033" r="3.03252" fill="#98D7D7"/>
<circle cx="139.001" cy="162.054" r="3.03252" fill="#98D7D7"/>
<circle cx="126.868" cy="162.054" r="3.03252" fill="#98D7D7"/>
<circle cx="151.132" cy="162.054" r="3.03252" fill="#98D7D7"/>
<circle cx="139.001" cy="177.825" r="3.03252" fill="#98D7D7"/>
<circle cx="139.001" cy="192.382" r="3.03252" fill="#98D7D7"/>
<circle cx="155.988" cy="137.786" r="3.03252" fill="#98D7D7"/>
<circle cx="172.97" cy="137.786" r="3.03252" fill="#98D7D7"/>
<path d="M185 134.339C185 192.064 165.851 214 140.169 214C114.487 214 93 189.755 93 134.339C93 98.5043 116.289 81 139.718 81C163.148 81 185 98.5043 185 134.339Z" stroke="#98D7D7" stroke-width="6"/>
</g>
<rect x="2.5" y="-2.5" width="167.697" height="357.717" rx="18.8473" transform="matrix(-1 0 0 1 224.754 5)" stroke="#052F69" stroke-width="5"/>
<path d="M21.4575 253.104L-0.00271606 283.172L46.607 329.817L67.918 308.812L21.4575 253.104Z" fill="#98D7D7"/>
<path d="M33.8321 201.768L2.51963 238.582L39.1918 294.084H68.2794C68.2794 294.084 87.6142 268.395 55.5056 226.647" fill="#98D7D7"/>
<path d="M46.548 164.279L10.0961 183.856L35.1106 242.706C35.1106 242.706 92.6246 242.465 58.0991 183.856" fill="#98D7D7"/>
<path d="M47.0834 320.129L56.6797 310.889L43.5292 295.961L32.8666 304.136L47.0834 320.129Z" fill="#98D7D7" stroke="white" stroke-width="2.17964"/>
<path d="M54.5469 269.662L42.4626 282.812C35.8281 274.756 24.7627 257.293 33.5771 251.891C42.3915 246.488 51.2296 261.487 54.5469 269.662Z" fill="#98D7D7" stroke="white" stroke-width="2.17964"/>
<path d="M55.9688 218.125L37.8423 229.499C32.8665 220.495 25.5448 201.634 36.0652 198.222C46.5857 194.81 53.7178 210.069 55.9688 218.125Z" fill="#98D7D7" stroke="white" stroke-width="2.17964"/>
<path d="M254.683 108.137L245.223 109.501C245.045 120.036 246.858 134.292 261.494 142.466" stroke="white" stroke-width="3.26945"/>
<path d="M229.893 101.598C218.995 108.5 205.045 132.167 225.533 190.145L229.893 101.598Z" fill="#98D7D7"/>
<defs>
<clipPath id="clip0_160_528">
<rect width="162.697" height="352.717" rx="16.3473" transform="matrix(-1 0 0 1 219.754 5)" fill="white"/>
</clipPath>
</defs>
</svg>

