<svg width="64" height="64" viewBox="0 0 64 64" fill="none" xmlns="http://www.w3.org/2000/svg">
<path d="M32 12.5C28.1433 12.5 24.3731 13.6437 21.1664 15.7863C17.9596 17.929 15.4603 20.9745 13.9844 24.5377C12.5084 28.1008 12.1223 32.0216 12.8747 35.8043C13.6271 39.5869 15.4843 43.0615 18.2114 45.7886C20.9386 48.5157 24.4131 50.3729 28.1957 51.1253C31.9784 51.8777 35.8992 51.4916 39.4623 50.0156C43.0255 48.5397 46.071 46.0404 48.2137 42.8336C50.3564 39.6269 51.5 35.8567 51.5 32C51.4945 26.83 49.4383 21.8732 45.7826 18.2174C42.1268 14.5617 37.1701 12.5055 32 12.5ZM32 48.5C28.7366 48.5 25.5465 47.5323 22.8331 45.7192C20.1197 43.9062 18.0048 41.3293 16.756 38.3143C15.5072 35.2993 15.1804 31.9817 15.8171 28.781C16.4537 25.5803 18.0252 22.6403 20.3327 20.3327C22.6403 18.0252 25.5803 16.4537 28.781 15.817C31.9817 15.1804 35.2993 15.5071 38.3143 16.756C41.3293 18.0048 43.9062 20.1197 45.7193 22.8331C47.5323 25.5465 48.5 28.7366 48.5 32C48.495 36.3745 46.7551 40.5685 43.6618 43.6618C40.5685 46.7551 36.3746 48.495 32 48.5ZM32 21.5C30.5169 21.5003 29.0671 21.9404 27.8341 22.7645C26.601 23.5886 25.6399 24.7598 25.0724 26.1301C24.5049 27.5003 24.3564 29.0081 24.6456 30.4627C24.9349 31.9174 25.6489 33.2536 26.6975 34.3025L24.6613 39.4175C24.5254 39.7587 24.4751 40.128 24.5148 40.4931C24.5544 40.8583 24.6829 41.2081 24.8889 41.5122C25.095 41.8162 25.3723 42.0652 25.6967 42.2374C26.0211 42.4096 26.3827 42.4997 26.75 42.5H37.25C37.6173 42.4997 37.9789 42.4096 38.3033 42.2374C38.6277 42.0652 38.9051 41.8162 39.1111 41.5122C39.3171 41.2081 39.4456 40.8583 39.4853 40.4931C39.525 40.128 39.4747 39.7587 39.3388 39.4175L37.3025 34.3025C38.3511 33.2536 39.0651 31.9174 39.3544 30.4627C39.6436 29.0081 39.4951 27.5003 38.9276 26.1301C38.3601 24.7598 37.399 23.5886 36.1659 22.7645C34.9329 21.9404 33.4831 21.5003 32 21.5ZM34.1206 34.4187L36.1438 39.5H27.8563L29.8794 34.4187C30.0029 34.1086 30.0195 33.7661 29.9264 33.4455C29.8334 33.1249 29.636 32.8445 29.3656 32.6488C28.5943 32.0918 28.0193 31.3046 27.7233 30.4004C27.4273 29.4962 27.4255 28.5214 27.7182 27.6161C28.0109 26.7108 28.583 25.9216 29.3523 25.3618C30.1216 24.802 31.0486 24.5005 32 24.5005C32.9514 24.5005 33.8784 24.802 34.6477 25.3618C35.417 25.9216 35.9891 26.7108 36.2818 27.6161C36.5745 28.5214 36.5727 29.4962 36.2767 30.4004C35.9807 31.3046 35.4057 32.0918 34.6344 32.6488C34.364 32.8445 34.1667 33.1249 34.0736 33.4455C33.9805 33.7661 33.9971 34.1086 34.1206 34.4187Z" fill="black"/>
</svg>

