<svg width="48" height="31" viewBox="0 0 48 31" fill="none" xmlns="http://www.w3.org/2000/svg">
<path d="M21.9843 20.61C23.9947 19.2717 25.521 17.3218 26.3375 15.0489C27.1541 12.776 27.2174 10.3006 26.5183 7.98886C25.8192 5.67713 24.3947 3.65174 22.4554 2.21223C20.5161 0.772709 18.1651 -0.0045166 15.75 -0.0045166C13.3348 -0.0045166 10.9838 0.772709 9.04454 2.21223C7.10529 3.65174 5.68077 5.67713 4.98164 7.98886C4.28251 10.3006 4.34589 12.776 5.1624 15.0489C5.97892 17.3218 7.50522 19.2717 9.5156 20.61C5.87902 21.9504 2.77329 24.4306 0.661846 27.6807C0.550876 27.8456 0.473795 28.031 0.435086 28.2259C0.396376 28.4209 0.39681 28.6216 0.436361 28.8165C0.475912 29.0113 0.553792 29.1963 0.665473 29.3607C0.777155 29.5252 0.920411 29.6658 1.08691 29.7744C1.25342 29.883 1.43984 29.9574 1.63536 29.9933C1.83088 30.0293 2.03158 30.0259 2.22581 29.9836C2.42004 29.9413 2.60392 29.8608 2.76676 29.7467C2.92959 29.6327 3.06814 29.4875 3.17435 29.3194C4.53633 27.2246 6.40001 25.5033 8.59617 24.3116C10.7923 23.12 13.2514 22.4958 15.75 22.4958C18.2486 22.4958 20.7076 23.12 22.9038 24.3116C25.0999 25.5033 26.9636 27.2246 28.3256 29.3194C28.5456 29.6464 28.8855 29.8737 29.2717 29.9521C29.6579 30.0305 30.0595 29.9538 30.3896 29.7384C30.7197 29.5231 30.9518 29.1866 31.0357 28.8015C31.1196 28.4164 31.0487 28.0138 30.8381 27.6807C28.7267 24.4306 25.6209 21.9504 21.9843 20.61ZM7.49997 11.25C7.49997 9.61835 7.98382 8.0233 8.89035 6.66659C9.79687 5.30989 11.0853 4.25247 12.5928 3.62804C14.1003 3.00362 15.7591 2.84024 17.3595 3.15857C18.9598 3.4769 20.4298 4.26263 21.5836 5.41642C22.7374 6.5702 23.5231 8.04021 23.8414 9.64055C24.1598 11.2409 23.9964 12.8997 23.372 14.4072C22.7476 15.9147 21.6901 17.2031 20.3334 18.1097C18.9767 19.0162 17.3817 19.5 15.75 19.5C13.5627 19.4976 11.4657 18.6276 9.91908 17.0809C8.37244 15.5343 7.50245 13.4373 7.49997 11.25ZM46.9012 29.7563C46.568 29.9736 46.1622 30.0496 45.7729 29.9677C45.3837 29.8857 45.0429 29.6526 44.8256 29.3194C43.4652 27.2234 41.6018 25.5013 39.4052 24.3101C37.2086 23.119 34.7487 22.4967 32.25 22.5C31.8521 22.5 31.4706 22.342 31.1893 22.0607C30.908 21.7794 30.75 21.3979 30.75 21C30.75 20.6022 30.908 20.2207 31.1893 19.9394C31.4706 19.6581 31.8521 19.5 32.25 19.5C33.4649 19.4989 34.6646 19.2294 35.7633 18.7109C36.8621 18.1923 37.8327 17.4375 38.6059 16.5004C39.3791 15.5632 39.9357 14.4669 40.2361 13.2896C40.5365 12.1124 40.5731 10.8834 40.3434 9.69033C40.1137 8.49729 39.6234 7.36972 38.9074 6.38817C38.1914 5.40661 37.2674 4.59531 36.2016 4.01224C35.1357 3.42916 33.9542 3.08869 32.7414 3.01517C31.5287 2.94165 30.3147 3.13688 29.1862 3.58692C29.0022 3.66646 28.8041 3.70832 28.6037 3.71001C28.4032 3.71171 28.2045 3.67321 28.0192 3.59679C27.8339 3.52036 27.6657 3.40757 27.5247 3.26508C27.3837 3.12258 27.2728 2.95327 27.1983 2.76715C27.1239 2.58103 27.0875 2.38188 27.0913 2.18146C27.0951 1.98104 27.1391 1.78342 27.2206 1.60027C27.3021 1.41713 27.4194 1.25217 27.5658 1.11516C27.7121 0.978142 27.8844 0.871845 28.0725 0.802548C30.6552 -0.227481 33.5279 -0.264548 36.1364 0.698498C38.7448 1.66154 40.9042 3.55647 42.198 6.0177C43.4917 8.47894 43.8282 11.3321 43.1424 14.0268C42.4566 16.7214 40.7972 19.0667 38.4843 20.61C42.1209 21.9504 45.2267 24.4306 47.3381 27.6807C47.5554 28.0139 47.6314 28.4197 47.5495 28.809C47.4675 29.1982 47.2344 29.539 46.9012 29.7563Z" fill="black"/>
</svg>

