<svg width="31" height="29" viewBox="0 0 31 29" fill="none" xmlns="http://www.w3.org/2000/svg">
<path d="M27.625 0H2.875C2.12908 0 1.41371 0.296316 0.886262 0.823762C0.358816 1.35121 0.0625 2.06658 0.0625 2.8125V21.9375C0.0625 22.6834 0.358816 23.3988 0.886262 23.9262C1.41371 24.4537 2.12908 24.75 2.875 24.75H4.5625V26.4375C4.5625 26.8851 4.74029 27.3143 5.05676 27.6307C5.37322 27.9472 5.80245 28.125 6.25 28.125C6.69755 28.125 7.12678 27.9472 7.44324 27.6307C7.75971 27.3143 7.9375 26.8851 7.9375 26.4375V24.75H22.5625V26.4375C22.5625 26.8851 22.7403 27.3143 23.0568 27.6307C23.3732 27.9472 23.8024 28.125 24.25 28.125C24.6976 28.125 25.1268 27.9472 25.4432 27.6307C25.7597 27.3143 25.9375 26.8851 25.9375 26.4375V24.75H27.625C28.3709 24.75 29.0863 24.4537 29.6137 23.9262C30.1412 23.3988 30.4375 22.6834 30.4375 21.9375V2.8125C30.4375 2.06658 30.1412 1.35121 29.6137 0.823762C29.0863 0.296316 28.3709 0 27.625 0ZM3.4375 21.375V3.375H27.0625V11.25H24.0138C23.6064 9.81316 22.6932 8.57212 21.4425 7.75589C20.1919 6.93965 18.6882 6.60331 17.2089 6.80892C15.7297 7.01453 14.3748 7.74822 13.3941 8.8746C12.4135 10.001 11.8733 11.444 11.8733 12.9375C11.8733 14.431 12.4135 15.874 13.3941 17.0004C14.3748 18.1268 15.7297 18.8605 17.2089 19.0661C18.6882 19.2717 20.1919 18.9353 21.4425 18.1191C22.6932 17.3029 23.6064 16.0618 24.0138 14.625H27.0625V21.375H3.4375ZM20.875 12.9375C20.875 13.4938 20.7101 14.0375 20.401 14.5C20.092 14.9626 19.6527 15.323 19.1388 15.5359C18.6249 15.7488 18.0594 15.8045 17.5138 15.696C16.9682 15.5874 16.4671 15.3196 16.0738 14.9262C15.6804 14.5329 15.4126 14.0318 15.304 13.4862C15.1955 12.9406 15.2512 12.3751 15.4641 11.8612C15.677 11.3473 16.0374 10.908 16.5 10.599C16.9625 10.29 17.5062 10.125 18.0625 10.125C18.8084 10.125 19.5238 10.4213 20.0512 10.9488C20.5787 11.4762 20.875 12.1916 20.875 12.9375Z" fill="black"/>
</svg>

