<svg width="138" height="164" viewBox="0 0 138 164" fill="none" xmlns="http://www.w3.org/2000/svg">
<path d="M135.922 33.8281L104.672 2.57813C104.091 1.99791 103.402 1.53782 102.643 1.22415C101.884 0.910474 101.071 0.749356 100.25 0.750002H37.75C34.4348 0.750002 31.2554 2.06696 28.9112 4.41117C26.567 6.75537 25.25 9.9348 25.25 13.25V25.75H12.75C9.43479 25.75 6.25537 27.067 3.91116 29.4112C1.56696 31.7554 0.25 34.9348 0.25 38.25V150.75C0.25 154.065 1.56696 157.245 3.91116 159.589C6.25537 161.933 9.43479 163.25 12.75 163.25H100.25C103.565 163.25 106.745 161.933 109.089 159.589C111.433 157.245 112.75 154.065 112.75 150.75V138.25H125.25C128.565 138.25 131.745 136.933 134.089 134.589C136.433 132.245 137.75 129.065 137.75 125.75V38.25C137.751 37.429 137.59 36.6159 137.276 35.8572C136.962 35.0985 136.502 34.409 135.922 33.8281ZM100.25 150.75H12.75V38.25H72.6641L100.25 65.8359V131.875C100.25 131.922 100.25 131.961 100.25 132C100.25 132.039 100.25 132.078 100.25 132.125V150.75ZM125.25 125.75H112.75V63.25C112.751 62.429 112.59 61.6159 112.276 60.8572C111.962 60.0985 111.502 59.409 110.922 58.8281L79.6719 27.5781C79.091 26.9979 78.4015 26.5378 77.6428 26.2241C76.8841 25.9105 76.071 25.7494 75.25 25.75H37.75V13.25H97.6641L125.25 40.8359V125.75ZM81.5 100.75C81.5 102.408 80.8415 103.997 79.6694 105.169C78.4973 106.342 76.9076 107 75.25 107H37.75C36.0924 107 34.5027 106.342 33.3306 105.169C32.1585 103.997 31.5 102.408 31.5 100.75C31.5 99.0924 32.1585 97.5027 33.3306 96.3306C34.5027 95.1585 36.0924 94.5 37.75 94.5H75.25C76.9076 94.5 78.4973 95.1585 79.6694 96.3306C80.8415 97.5027 81.5 99.0924 81.5 100.75ZM81.5 125.75C81.5 127.408 80.8415 128.997 79.6694 130.169C78.4973 131.342 76.9076 132 75.25 132H37.75C36.0924 132 34.5027 131.342 33.3306 130.169C32.1585 128.997 31.5 127.408 31.5 125.75C31.5 124.092 32.1585 122.503 33.3306 121.331C34.5027 120.158 36.0924 119.5 37.75 119.5H75.25C76.9076 119.5 78.4973 120.158 79.6694 121.331C80.8415 122.503 81.5 124.092 81.5 125.75Z" fill="black"/>
</svg>
