<svg width="24" height="24" viewBox="0 0 24 24" fill="none" xmlns="http://www.w3.org/2000/svg">
<path d="M18.75 3C18.5511 3 18.3603 3.07902 18.2197 3.21967C18.079 3.36032 18 3.55109 18 3.75V10.2403L6.79031 3.22969C6.56456 3.08797 6.30504 3.00918 6.0386 3.00146C5.77217 2.99374 5.50852 3.05737 5.27494 3.18578C5.04137 3.31418 4.84636 3.50269 4.71011 3.73178C4.57386 3.96086 4.50132 4.22221 4.5 4.48875V19.5112C4.5028 19.7772 4.57626 20.0376 4.71285 20.2658C4.84944 20.494 5.04424 20.6818 5.27731 20.8099C5.51037 20.938 5.77331 21.0019 6.03917 20.9949C6.30504 20.988 6.56427 20.9105 6.79031 20.7703L18 13.7597V20.25C18 20.4489 18.079 20.6397 18.2197 20.7803C18.3603 20.921 18.5511 21 18.75 21C18.9489 21 19.1397 20.921 19.2803 20.7803C19.421 20.6397 19.5 20.4489 19.5 20.25V3.75C19.5 3.55109 19.421 3.36032 19.2803 3.21967C19.1397 3.07902 18.9489 3 18.75 3ZM6 19.4934V4.50469L17.985 12.0047L6 19.4934Z" fill="black"/>
</svg>

