<svg width="33" height="32" viewBox="0 0 33 32" fill="none" xmlns="http://www.w3.org/2000/svg">
<path d="M26.5 10H22.5V7C22.5 5.4087 21.8679 3.88258 20.7426 2.75736C19.6174 1.63214 18.0913 1 16.5 1C14.9087 1 13.3826 1.63214 12.2574 2.75736C11.1321 3.88258 10.5 5.4087 10.5 7V10H6.5C5.96957 10 5.46086 10.2107 5.08579 10.5858C4.71071 10.9609 4.5 11.4696 4.5 12V26C4.5 26.5304 4.71071 27.0391 5.08579 27.4142C5.46086 27.7893 5.96957 28 6.5 28H26.5C27.0304 28 27.5391 27.7893 27.9142 27.4142C28.2893 27.0391 28.5 26.5304 28.5 26V12C28.5 11.4696 28.2893 10.9609 27.9142 10.5858C27.5391 10.2107 27.0304 10 26.5 10ZM12.5 7C12.5 5.93913 12.9214 4.92172 13.6716 4.17157C14.4217 3.42143 15.4391 3 16.5 3C17.5609 3 18.5783 3.42143 19.3284 4.17157C20.0786 4.92172 20.5 5.93913 20.5 7V10H12.5V7ZM26.5 26H6.5V12H26.5V26Z" fill="gray"/>
</svg>

