<svg width="30" height="36" viewBox="0 0 30 36" fill="none" xmlns="http://www.w3.org/2000/svg">
<path d="M24.4287 19.0893C24.4792 24.5268 29.1977 26.3363 29.25 26.3594C29.2101 26.487 28.4961 28.9381 26.7641 31.4699C25.2668 33.6587 23.7129 35.8396 21.2649 35.8847C18.8596 35.9291 18.0862 34.458 15.3362 34.458C12.5871 34.458 11.7278 35.8396 9.45085 35.9291C7.08799 36.0185 5.2887 33.5621 3.77901 31.3813C0.69415 26.9203 -1.66332 18.7756 1.50217 13.2778C3.07471 10.5475 5.88497 8.81863 8.93526 8.7743C11.2555 8.73003 13.4456 10.3357 14.864 10.3357C16.2815 10.3357 18.9429 8.40474 21.7407 8.68832C22.912 8.73709 26.1997 9.16156 28.3109 12.2525C28.1408 12.358 24.3879 14.5432 24.4287 19.0893ZM19.9082 5.73699C21.1626 4.21815 22.007 2.10378 21.7766 0C19.9684 0.0726914 17.7819 1.20523 16.4849 2.72324C15.3226 4.06751 14.3046 6.21909 14.5793 8.28123C16.5947 8.4372 18.6537 7.2568 19.9082 5.73699Z" fill="black"/>
</svg>

