<svg width="430" height="403" viewBox="0 0 430 403" fill="none" xmlns="http://www.w3.org/2000/svg">
<g clip-path="url(#clip0_17_72)">
<path d="M257.32 159.358C262.209 159.9 268.741 161.689 275.519 163.747C277.374 164.311 279.252 164.896 281.105 165.473C285.878 166.961 290.48 168.395 294.072 169.263C304.616 171.813 318.777 169.41 324.832 158.448L257.32 159.358ZM257.32 159.358C235.701 158.628 213.011 167.108 192.415 182.175C191.488 182.854 190.544 183.561 189.582 184.281C184.564 188.038 179.034 192.179 172.729 194.756C165.106 197.871 155.153 198.702 147.434 193.47L147.434 193.47C137.387 186.657 135.879 173.088 138.226 162.937C138.226 162.937 138.226 162.937 138.226 162.937L142.123 163.838L257.32 159.358ZM304.608 117.789L304.608 117.789C272.898 100.973 234.651 102.333 200.865 111.546M304.608 117.789L200.865 111.546M304.608 117.789C311.373 121.379 318.402 126.165 322.967 133.252C327.533 140.341 329.322 150.323 324.833 158.447L304.608 117.789ZM200.865 111.546L201.917 115.405L200.865 111.546Z" stroke="#48F8F8" stroke-width="8" stroke-miterlimit="10"/>
<path d="M193.938 98.0478C193.938 98.0478 123.458 131.46 121.722 128.715C119.986 125.971 107.809 105.656 107.809 105.656L27.4839 130.949L67.4691 195.455L85.6307 192.067L84.9415 162.995L99.9072 183.268L105.724 228.567L21.9058 269.996L69.3498 274.788L111.795 273.782L150.848 229.918L321.58 220.862C321.58 220.862 493.932 303.647 493.853 300.306C493.774 296.965 664.654 304.993 664.615 303.323L663.231 244.932L521.661 221.128L272.573 138.505L254.639 121.945L259.198 114.6L266.07 110.818L283.864 109.839L283.178 80.89L194.255 86.4493L193.938 98.0478Z" fill="#48F8F8"/>
<path d="M145.982 179.789C129.718 180.653 113.454 181.522 97.1896 182.386" stroke="white" stroke-width="5.54389" stroke-miterlimit="10"/>
<path d="M313.162 311.876L310.741 313.925L306.102 313.32L309.621 310.343C310.796 310.857 311.977 311.367 313.162 311.871L313.162 311.876Z" fill="black"/>
<path d="M283.3 298.592L275.635 305.084L270.996 304.479L279.725 297.089C280.925 297.588 282.12 298.087 283.3 298.592Z" fill="black"/>
<path d="M257.61 155.366C268.272 156.504 285.337 163.036 295.012 165.375C304.686 167.715 316.519 165.225 321.331 156.513C324.915 150.028 323.617 141.648 319.604 135.418C315.591 129.187 309.279 124.796 302.734 121.323C272.271 105.169 235.184 106.334 201.917 115.405C188.907 118.953 176.029 123.725 165.073 131.587C154.117 139.449 145.159 150.701 142.123 163.838C139.936 173.297 141.641 184.709 149.679 190.159C155.877 194.36 164.287 193.885 171.216 191.053C178.144 188.222 184.015 183.369 190.053 178.947C211.207 163.472 234.818 154.551 257.615 155.366L257.61 155.366Z" fill="#E2E2E2"/>
<path d="M608.327 299.823L554.28 224.452L341.045 243.311L2.7104 228.797L-76.8869 436.488L590.541 464.653L608.327 299.823Z" fill="#052F69"/>
<path d="M260.776 239.84C259.669 239.935 247.281 254.364 234.572 254.384C221.862 254.405 208.089 248.889 216.789 240.05C225.488 231.21 260.771 239.84 260.771 239.84L260.776 239.84Z" fill="#FF8187"/>
<path d="M254.83 176.79L268.341 158.602L310.296 158.602L353.195 192.276L353.723 214.533L344.262 214.758L340.093 203.167L340.844 234.885L303.644 239.396L291.34 237.173L264.839 246.71L216.794 240.054L200.683 241.551L200.445 231.533L193.436 241.165L180.595 239.798L180.37 230.338L170.086 242.833L143.295 240.126L137.598 211.305L202.842 163.542L236.378 161.124L254.83 176.79Z" fill="#6CA0AB"/>
<path d="M245.373 200.679L281.726 183.947L302.622 196.255L293.9 227.646L274.763 230.885L267.494 217.692L263.224 225.588L248.029 218.71L245.373 200.679Z" fill="#052F69"/>
<path d="M46.1735 212.23C113.826 204.315 163.054 234.439 179.211 250.49L-46.5652 293.313L-79.4311 313.808C-76.26 247.792 -21.4792 220.145 46.1735 212.23Z" fill="#052F69"/>
<path d="M436.173 225.807C436.173 225.807 331.572 208.614 264.914 246.98L392.367 314.281L720.308 316.708L714.212 243.989C704.459 165.336 474.841 197.203 436.173 225.807Z" fill="#052F69"/>
<path d="M317.879 38.7217L384.249 26.1406L339.673 64.91L383.319 53.95" stroke="#48F8F8" stroke-width="6.15987"/>
<path d="M319.57 86.7416L357.905 81.564L330.584 102.361L355.933 97.4216" stroke="#48F8F8" stroke-width="6.15987"/>
</g>
<defs>
<clipPath id="clip0_17_72">
<rect width="430" height="403" fill="white"/>
</clipPath>
</defs>
</svg>
