<svg width="36" height="36" viewBox="0 0 36 36" fill="none" xmlns="http://www.w3.org/2000/svg">
<path d="M36 3V8.25C36 8.64782 35.842 9.02936 35.5607 9.31066C35.2794 9.59196 34.8978 9.75 34.5 9.75C34.1022 9.75 33.7206 9.59196 33.4393 9.31066C33.158 9.02936 33 8.64782 33 8.25V3H27.75C27.3522 3 26.9706 2.84196 26.6893 2.56066C26.408 2.27936 26.25 1.89782 26.25 1.5C26.25 1.10218 26.408 0.720645 26.6893 0.43934C26.9706 0.158036 27.3522 0 27.75 0H33C33.7957 0 34.5587 0.31607 35.1213 0.87868C35.6839 1.44129 36 2.20435 36 3ZM34.5 26.25C34.1022 26.25 33.7206 26.408 33.4393 26.6893C33.158 26.9706 33 27.3522 33 27.75V33H27.75C27.3522 33 26.9706 33.158 26.6893 33.4393C26.408 33.7206 26.25 34.1022 26.25 34.5C26.25 34.8978 26.408 35.2794 26.6893 35.5607C26.9706 35.842 27.3522 36 27.75 36H33C33.7957 36 34.5587 35.6839 35.1213 35.1213C35.6839 34.5587 36 33.7957 36 33V27.75C36 27.3522 35.842 26.9706 35.5607 26.6893C35.2794 26.408 34.8978 26.25 34.5 26.25ZM8.25 33H3V27.75C3 27.3522 2.84196 26.9706 2.56066 26.6893C2.27936 26.408 1.89782 26.25 1.5 26.25C1.10218 26.25 0.720645 26.408 0.43934 26.6893C0.158036 26.9706 0 27.3522 0 27.75V33C0 33.7957 0.31607 34.5587 0.87868 35.1213C1.44129 35.6839 2.20435 36 3 36H8.25C8.64782 36 9.02936 35.842 9.31066 35.5607C9.59196 35.2794 9.75 34.8978 9.75 34.5C9.75 34.1022 9.59196 33.7206 9.31066 33.4393C9.02936 33.158 8.64782 33 8.25 33ZM1.5 9.75C1.89782 9.75 2.27936 9.59196 2.56066 9.31066C2.84196 9.02936 3 8.64782 3 8.25V3H8.25C8.64782 3 9.02936 2.84196 9.31066 2.56066C9.59196 2.27936 9.75 1.89782 9.75 1.5C9.75 1.10218 9.59196 0.720645 9.31066 0.43934C9.02936 0.158036 8.64782 0 8.25 0H3C2.20435 0 1.44129 0.31607 0.87868 0.87868C0.31607 1.44129 0 2.20435 0 3V8.25C0 8.64782 0.158036 9.02936 0.43934 9.31066C0.720645 9.59196 1.10218 9.75 1.5 9.75ZM27 27C26.767 27.0005 26.537 26.9467 26.3284 26.8429C26.1198 26.7391 25.9382 26.5881 25.7981 26.4019C24.8899 25.191 23.7123 24.2081 22.3585 23.5312C21.0046 22.8543 19.5118 22.5019 17.9981 22.5019C16.4845 22.5019 14.9916 22.8543 13.6378 23.5312C12.284 24.2081 11.1063 25.191 10.1981 26.4019C9.95893 26.7201 9.60311 26.9303 9.20893 26.9862C8.81475 27.0422 8.41451 26.9392 8.09625 26.7C7.77799 26.4608 7.56778 26.105 7.51187 25.7108C7.45597 25.3166 7.55893 24.9164 7.79812 24.5981C9.12748 22.8182 10.8992 21.4168 12.9375 20.5331C11.8206 19.5134 11.0381 18.1798 10.6926 16.7074C10.3472 15.2349 10.455 13.6925 11.0019 12.2824C11.5487 10.8723 12.5091 9.66056 13.757 8.80608C15.0049 7.9516 16.482 7.49435 17.9944 7.49435C19.5068 7.49435 20.9838 7.9516 22.2317 8.80608C23.4796 9.66056 24.44 10.8723 24.9869 12.2824C25.5338 13.6925 25.6416 15.2349 25.2961 16.7074C24.9507 18.1798 24.1682 19.5134 23.0513 20.5331C25.0909 21.4162 26.864 22.8176 28.1944 24.5981C28.3618 24.8206 28.4639 25.0853 28.4895 25.3625C28.515 25.6397 28.4629 25.9186 28.3389 26.1679C28.2149 26.4172 28.024 26.627 27.7876 26.774C27.5511 26.921 27.2784 26.9992 27 27ZM18 19.5C18.89 19.5 19.76 19.2361 20.5001 18.7416C21.2401 18.2471 21.8169 17.5443 22.1575 16.7221C22.4981 15.8998 22.5872 14.995 22.4135 14.1221C22.2399 13.2492 21.8113 12.4474 21.182 11.818C20.5526 11.1887 19.7508 10.7601 18.8779 10.5865C18.005 10.4128 17.1002 10.5019 16.2779 10.8425C15.4557 11.1831 14.7529 11.7599 14.2584 12.4999C13.7639 13.24 13.5 14.11 13.5 15C13.5 16.1935 13.9741 17.3381 14.818 18.182C15.6619 19.0259 16.8065 19.5 18 19.5Z" fill="black"/>
</svg>
