<svg width="328" height="344" viewBox="0 0 328 344" fill="none" xmlns="http://www.w3.org/2000/svg">
<circle cx="164" cy="180" r="164" fill="#EBF5F6"/>
<mask id="mask0_1_8" style="mask-type:alpha" maskUnits="userSpaceOnUse" x="0" y="0" width="328" height="344">
<path fill-rule="evenodd" clip-rule="evenodd" d="M277 0H26V91.3516C9.54603 116.913 0 147.342 0 180C0 270.575 73.4253 344 164 344C254.575 344 328 270.575 328 180C328 133.223 308.416 91.0197 277 61.1425V0Z" fill="#EBF5F6"/>
</mask>
<g mask="url(#mask0_1_8)">
<path d="M263.038 118.37L222.971 93.7995L182.903 99.141L259.833 125.848L263.038 118.37Z" fill="#FFE34F"/>
<path d="M322.5 330.5L203.432 179.672L204.763 118.757L218.6 148.671L230.741 150.371L236 88.5L167.847 84.5734L140.65 78.2608L131.422 65.6355L73.3846 92.8284L72.1704 133.618H79.6983L87.4848 107.882L94.7249 130.219H103.739L105.682 181.639C105.682 181.639 94.4548 209.438 94.7249 206.652C89.5007 215.208 94.8896 204.939 94.7249 206.652L87.4848 351L322.5 330.5Z" fill="url(#paint0_linear_1_8)"/>
<path d="M141.712 131.667V119.825C141.712 116.984 139.409 114.68 136.567 114.68C133.726 114.68 131.422 116.984 131.422 119.825V131.667H141.712Z" fill="#122E65"/>
<path d="M169.29 131.667V119.825C169.29 116.984 166.987 114.68 164.145 114.68C161.304 114.68 159 116.984 159 119.825V131.667H169.29Z" fill="#122E65"/>
<path d="M209.321 213.945C209.289 213.167 208.373 194.691 201.35 176.09C191.692 150.513 175.163 137.353 153.542 138.012C138.93 138.46 118.764 142.366 105.641 158.431C97.676 168.179 92.1817 177.796 92.1224 178.198L92.0828 178.547L92.9788 230.287L100.759 231.492L103.355 221.25L103.19 236.287L110.819 237.776L111.952 234.884L115.799 251.048L123.389 251.411L128.712 235.793L139.16 256.357L146.499 255.593L150.201 241.814L156.579 249.402L163.285 248.302L167.897 236.557L178.437 256.423L185.869 254.875L187.674 231.532L192.904 241.939L200.382 239.897L201.607 215.354L209.315 213.951L209.321 213.945Z" fill="#6CA0AB"/>
<path d="M161.769 6.55062C112.104 -0.271122 85.2547 48.7086 79.9412 83.3987L226.063 110.795C228.72 60.0943 223.938 15.0897 161.769 6.55062Z" fill="#FFE34F"/>
<path d="M203.5 107L227 88L228.5 116L218.842 147.7L203.5 107Z" fill="#48F7F7"/>
<path d="M61.0001 79.9925L194.559 104.483L136.327 69.3446L86.1091 60.2939C83.1174 69.6641 69.904 70.2319 63.6712 69.3446L61.0001 79.9925Z" fill="#FFE34F"/>
<path d="M222.5 186.5L62.5729 219.942L69.1681 240.746L224.5 198.5L227.777 214.25L220.563 215.431L223.544 232.916L257.057 226.106L253.849 209.144L248.439 210.365L242.5 182C237 162.5 220.563 159.015 208.865 159.015L207.5 164.5C220.563 165.5 222.5 186.5 222.5 186.5Z" fill="#122E65"/>
<path d="M188.974 232.18V185.321L107.624 189.934L118.309 243.349L135.307 239.268L151.092 198.189L153.763 239.268H163.962L172.218 220.095L174.647 239.268L188.974 232.18Z" fill="#6CA0AB"/>
<path d="M169.304 1.53781C157.26 -2.73537 147.449 19.5046 144.049 31.1587H177.075C179.503 23.0656 181.349 5.81099 169.304 1.53781Z" fill="#FFE34F"/>
<path d="M106.5 96V88L204 107L106.5 96Z" fill="#6CA0AB"/>
<path d="M83.8265 72.6766L73.3846 92.5858L113 99.5001L111.5 83.0001L83.8265 72.6766Z" fill="#48F7F7"/>
<path d="M139.427 151.585H164.955L166.813 165.344L151.1 173.156L134.822 164.976L139.427 151.585Z" fill="#122E65"/>
</g>
<defs>
<linearGradient id="paint0_linear_1_8" x1="238.593" y1="65.6355" x2="238.593" y2="371.239" gradientUnits="userSpaceOnUse">
<stop offset="0.630208" stop-color="#47F7F7"/>
<stop offset="1" stop-color="#00D1FF"/>
</linearGradient>
</defs>
</svg>
