<svg width="430" height="370" viewBox="0 0 430 370" fill="none" xmlns="http://www.w3.org/2000/svg">
<path d="M-21.6792 358.099L77.1962 299.769H108.494L146.195 257.799H162.554L168.956 230.057L173.937 242.15L191.721 235.748L188.164 211.48L211.64 190.222L191.721 173.149L182.473 181.685L163.979 161.056L250.761 147.541V126.201H142.638C142.638 126.201 67.9488 178.84 67.9488 180.975C67.9488 183.11 40.9174 259.934 40.9174 259.934L-48 316.839L-21.6792 358.096V358.099Z" fill="#C0E0E0"/>
<path d="M278.828 291.352C277.272 291.352 208.16 288.24 208.16 288.24L199.85 280.974L259.628 97.7974C259.628 97.7974 266.894 92.0878 272.6 93.1262L360.816 99.8711L365.487 110.769L323.456 230.639L278.831 291.352H278.828Z" fill="#052F69"/>
<path d="M425.04 330.356L361.019 281.984L322.605 306.17L246.491 291.942C246.491 291.942 211.637 267.045 211.637 264.911C211.637 262.776 215.903 252.818 215.903 252.818C215.903 252.818 198.119 240.725 198.83 238.59C199.541 236.455 207.119 226.497 207.119 226.497L198.809 217.249L207.119 202.311L256.449 224.362L289.172 223.651L228.707 205.867L211.634 190.218L225.148 173.145L333.013 203.419L343.488 173.145L372.395 198.041L383.063 234.32L467 302.608V370L425.04 330.356Z" fill="#C0E0E0"/>
<path d="M96.3164 214.463C96.7514 213.58 98.093 214.205 98.7699 214.919C111.065 227.87 117.733 244.998 126.748 260.414C127.973 262.51 129.489 264.761 131.857 265.297C133.56 265.683 135.324 265.07 136.914 264.347C140.375 262.776 143.573 260.629 146.339 258.025" stroke="white" stroke-width="3" stroke-miterlimit="10"/>
<path d="M110.661 190.721C120.463 193.52 126.886 202.636 132.507 211.139C134.541 214.22 136.581 217.305 138.324 220.558C144.94 232.908 147.056 247.329 146.116 261.309" stroke="white" stroke-width="3" stroke-miterlimit="10"/>
<path d="M127.014 172.967C132.15 176.073 136.898 179.825 141.113 184.101C146.862 189.939 151.573 196.699 156.254 203.426C162.453 212.333 168.876 221.878 169.403 232.715C169.835 232.13 169.994 231.352 169.826 230.644" stroke="white" stroke-width="3" stroke-miterlimit="10"/>
<path d="M190.547 229.976L185.861 232.347C185.521 232.519 185.153 232.696 184.777 232.644C183.898 232.528 183.649 231.388 183.613 230.5C183.472 226.895 183.331 223.29 183.19 219.684C183.116 217.767 183.129 215.604 184.492 214.251C185.852 212.897 188.921 213.65 188.682 215.555" stroke="white" stroke-width="3" stroke-miterlimit="10"/>
<path d="M163.155 252.69C159.911 252.203 156.582 252.279 153.362 252.913C153.699 249.051 154.051 245.121 155.506 241.528C156.961 237.935 159.715 234.664 163.427 233.549C165.008 235.874 165.817 238.716 165.691 241.522" stroke="white" stroke-width="3" stroke-miterlimit="10"/>
<path d="M145.818 252.602L134.102 258.109C132.396 253.778 131.872 249.064 131.841 244.408C131.829 242.534 131.909 240.601 132.696 238.898C133.483 237.195 135.149 235.777 137.024 235.819C138.712 235.856 140.194 237.06 141.039 238.521C141.885 239.982 142.203 241.676 142.513 243.336C142.981 245.86 143.447 248.384 143.916 250.911C144.106 251.928 144.292 252.945 144.482 253.962" stroke="white" stroke-width="3" stroke-miterlimit="10"/>
<path d="M199.719 213.207C201.78 215.838 204.307 218.102 207.15 219.86C208.761 220.856 210.556 221.71 212.449 221.664C214.342 221.618 216.317 220.427 216.712 218.577C217.144 216.558 215.683 214.675 214.32 213.128C212.185 210.705 210.029 208.264 207.437 206.34C206.564 205.691 205.649 205.106 204.733 204.517" stroke="white" stroke-width="3" stroke-miterlimit="10"/>
<path d="M199.85 234.038C201.219 236.525 202.689 239.034 204.864 240.856C207.039 242.679 210.077 243.717 212.773 242.829C214.081 240.078 213.587 236.568 211.572 234.286C209.627 232.08 206.401 230.88 205.446 228.102" stroke="white" stroke-width="3" stroke-miterlimit="10"/>
<path d="M212.112 261.857C213.521 264.279 215.402 266.427 217.617 268.142C219.013 269.226 220.955 270.154 222.472 269.242C223.798 268.445 224.064 266.534 223.482 265.1C222.9 263.667 221.687 262.598 220.527 261.581C218.477 259.786 216.45 257.973 214.437 256.135" stroke="white" stroke-width="3" stroke-miterlimit="10"/>
<path d="M228.478 126.403C226.548 126.078 224.716 128.332 225.424 130.155C227.746 134.458 239.45 133.095 248.329 133.135" stroke="white" stroke-width="3" stroke-miterlimit="10"/>
<path d="M215.734 185.467C218.972 188.068 222.21 190.672 225.447 193.272C227.447 194.877 230.051 196.574 232.379 195.499C234.425 194.552 235.047 191.777 234.324 189.642C233.601 187.507 231.901 185.872 230.262 184.325C227.487 181.709 224.715 179.096 221.94 176.48" stroke="white" stroke-width="3" stroke-miterlimit="10"/>
<path d="M182.715 180.096C184.932 191.622 187.15 203.148 189.365 214.675" stroke="white" stroke-width="3" stroke-miterlimit="10"/>
<path d="M165.164 162.062C159.825 157.131 154.486 152.199 149.15 147.268" stroke="white" stroke-width="3" stroke-miterlimit="10"/>
<path d="M214.531 251.865C231.589 264.653 252.758 271.87 274.077 272.155" stroke="white" stroke-width="3" stroke-miterlimit="10"/>
<path d="M207.124 226.502L240.171 246.966L274.076 250.317" stroke="white" stroke-width="3" stroke-miterlimit="10"/>
<line x1="269.412" y1="110.915" x2="249.336" y2="173.763" stroke="white" stroke-width="3"/>
<path fill-rule="evenodd" clip-rule="evenodd" d="M241 60.5C256.188 60.5 268.5 48.1878 268.5 33C268.5 17.8122 256.188 5.5 241 5.5C225.812 5.5 213.5 17.8122 213.5 33C213.5 48.1878 225.812 60.5 241 60.5ZM249.25 24.75C249.25 29.3064 245.556 33 241 33C236.444 33 232.75 29.3064 232.75 24.75C232.75 20.1937 236.444 16.5 241 16.5C245.556 16.5 249.25 20.1937 249.25 24.75ZM257.5 46.75C254.75 50.875 247.481 55 241 55C234.519 55 227.25 50.875 224.5 46.75C226.667 41.6944 231.375 38.5 236.875 38.5H245.125C250.625 38.5 255.333 41.6944 257.5 46.75Z" fill="#FFE34F"/>
<circle cx="205.5" cy="52.5" r="27.5" fill="#15CF74"/>
<g clip-path="url(#clip0_0_1)">
<path d="M202.355 55.6881C204.777 58.092 207.58 60.3885 208.68 59.2796C210.256 57.6924 211.226 56.3115 214.722 59.0999C218.219 61.8898 215.549 63.7672 214.022 65.3052C212.261 67.0796 205.665 65.4296 199.127 58.9411C192.59 52.4513 190.889 45.8682 192.652 44.093C194.178 42.5549 196.036 39.8713 198.85 43.3474C201.665 46.8217 200.292 47.8022 198.716 49.3899C197.616 50.4983 199.933 53.2837 202.355 55.6881ZM205.867 44.2195C205.867 44.2195 205.136 44.1054 204.625 44.6173C204.098 45.1438 204.075 46.0509 204.63 46.6053C204.958 46.9332 205.42 47.0031 205.42 47.0031C206.322 47.1721 207.68 47.4584 209.126 48.9035C210.571 50.3486 210.857 51.707 211.026 52.6088C211.026 52.6088 211.096 53.0712 211.424 53.3991C211.978 53.9535 212.885 53.931 213.412 53.4044C213.923 52.893 213.81 52.1624 213.81 52.1624C213.523 50.3368 212.638 48.4297 211.119 46.9102C209.599 45.3908 207.692 44.5062 205.867 44.2195ZM212.719 45.3098C215.369 47.9594 216.499 50.9664 216.131 53.4031C216.131 53.4031 216.002 54.1748 216.506 54.6788C217.074 55.246 217.973 55.2133 218.504 54.6828C218.845 54.3416 218.919 53.7863 218.919 53.7863C219.223 51.6806 218.841 47.4443 214.713 43.3165C210.584 39.1886 206.349 38.8063 204.243 39.1098C204.243 39.1098 203.688 39.1837 203.346 39.5253C202.815 40.0563 202.783 40.9554 203.35 41.5226C203.854 42.0267 204.626 41.8983 204.626 41.8983C207.063 41.5306 210.07 42.6602 212.719 45.3098Z" fill="white"/>
</g>
<defs>
<clipPath id="clip0_0_1">
<rect width="27" height="27" fill="white" transform="translate(192 39)"/>
</clipPath>
</defs>
</svg>

