<svg width="403" height="652" viewBox="0 0 403 652" fill="none" xmlns="http://www.w3.org/2000/svg">
<path d="M-78.4242 570.508L136.784 163.206L160.328 79.2656L153.553 28.2528L177.332 25.4219C177.332 25.4219 209.294 57.1942 190.897 118.597L280.743 121.027L276.973 260.431L181.129 257.839L154.418 231.997L-64.6149 651.884L-78.4242 570.508Z" fill="#B1EAEA"/>
<path d="M158.649 61.14C158.649 61.14 168.139 56.4207 161.79 36.5106L154.661 36.4751" stroke="white" stroke-width="4.32553" stroke-miterlimit="10"/>
<path d="M241.105 155.508L280.745 154.893" stroke="white" stroke-width="4.32553" stroke-miterlimit="10"/>
<path d="M242.785 193.25L280.488 190.921" stroke="white" stroke-width="4.32553" stroke-miterlimit="10"/>
<path d="M239.811 227.857L280.218 227.155" stroke="white" stroke-width="4.32553" stroke-miterlimit="10"/>
<circle cx="328" cy="148" r="14" fill="#FFE34F"/>
<circle cx="129.5" cy="157.5" r="24.5" fill="#FFE34F"/>
<circle cx="118" cy="90" r="7" fill="#FFE34F"/>
<path d="M344 71.2162C344 75.5293 337.148 78.7149 335.87 82.6074C334.593 86.4999 338.159 93.2022 335.694 96.5623C333.202 99.9537 325.777 98.5667 322.355 101.032C318.933 103.497 318.017 110.92 313.945 112.231C310.018 113.493 304.854 108.065 300.502 108.065C296.151 108.065 290.982 113.493 287.055 112.231C283.128 110.969 282.035 103.475 278.645 101.032C275.223 98.5623 267.793 99.9492 265.306 96.5623C262.819 93.1754 266.448 86.6431 265.13 82.6074C263.812 78.5717 257 75.5293 257 71.2162C257 66.9031 263.852 63.7175 265.13 59.825C266.407 55.9325 262.841 49.2302 265.306 45.8701C267.771 42.51 275.223 43.8656 278.645 41.4004C282.067 38.9351 282.983 31.508 287.055 30.2016C291.126 28.8951 296.146 34.367 300.498 34.367C304.849 34.367 310.018 28.9354 313.945 30.2016C317.872 31.4678 318.965 38.9575 322.355 41.4004C325.777 43.8701 333.207 42.4831 335.694 45.8701C338.159 49.2257 334.552 55.7893 335.87 59.825C337.188 63.8607 344 66.9031 344 71.2162Z" fill="#FFE34F"/>
<path d="M285.491 68.0959L292.532 79.7361L315.009 58.6576" stroke="white" stroke-width="6.9868"/>
</svg>

