<svg width="36" height="36" viewBox="0 0 36 36" fill="none" xmlns="http://www.w3.org/2000/svg">
<path d="M16.4883 22.2075C17.9961 21.2037 19.1408 19.7413 19.7532 18.0366C20.3656 16.3319 20.4131 14.4754 19.8888 12.7416C19.3644 11.0078 18.296 9.48877 16.8416 8.40913C15.3871 7.32949 13.6239 6.74657 11.8125 6.74657C10.0012 6.74657 8.23788 7.32949 6.78344 8.40913C5.329 9.48877 4.26061 11.0078 3.73626 12.7416C3.21191 14.4754 3.25945 16.3319 3.87183 18.0366C4.48422 19.7413 5.62894 21.2037 7.13673 22.2075C4.40929 23.2127 2.08 25.0729 0.496415 27.5105C0.413187 27.6342 0.355377 27.7732 0.326345 27.9194C0.297313 28.0657 0.297638 28.2162 0.327301 28.3623C0.356964 28.5084 0.415374 28.6472 0.499136 28.7705C0.582897 28.8939 0.690338 28.9993 0.815215 29.0808C0.940092 29.1622 1.07991 29.218 1.22655 29.245C1.37319 29.2719 1.52372 29.2694 1.66939 29.2377C1.81506 29.2059 1.95297 29.1455 2.0751 29.06C2.19722 28.9745 2.30114 28.8656 2.38079 28.7395C3.40228 27.1684 4.80004 25.8774 6.44715 24.9837C8.09427 24.09 9.93855 23.6218 11.8125 23.6218C13.6865 23.6218 15.5308 24.09 17.1779 24.9837C18.825 25.8774 20.2227 27.1684 21.2442 28.7395C21.4092 28.9848 21.6641 29.1552 21.9538 29.214C22.2435 29.2728 22.5446 29.2153 22.7922 29.0538C23.0398 28.8923 23.2139 28.6399 23.2768 28.3511C23.3398 28.0623 23.2865 27.7603 23.1286 27.5105C21.545 25.0729 19.2157 23.2127 16.4883 22.2075ZM5.62501 15.1875C5.62501 13.9637 5.9879 12.7674 6.66779 11.7499C7.34768 10.7324 8.31404 9.93931 9.44465 9.47099C10.5753 9.00268 11.8194 8.88014 13.0196 9.11889C14.2199 9.35764 15.3224 9.94694 16.1877 10.8123C17.0531 11.6776 17.6424 12.7801 17.8811 13.9804C18.1199 15.1806 17.9973 16.4247 17.529 17.5554C17.0607 18.686 16.2676 19.6523 15.2501 20.3322C14.2326 21.0121 13.0363 21.375 11.8125 21.375C10.1721 21.3731 8.59932 20.7206 7.43934 19.5607C6.27936 18.4007 5.62687 16.828 5.62501 15.1875ZM35.1759 29.0672C34.9261 29.2301 34.6217 29.2872 34.3297 29.2257C34.0378 29.1643 33.7822 28.9894 33.6192 28.7395C32.599 27.1675 31.2014 25.8759 29.5539 24.9826C27.9065 24.0892 26.0616 23.6225 24.1875 23.625C23.8891 23.625 23.603 23.5065 23.392 23.2955C23.181 23.0845 23.0625 22.7984 23.0625 22.5C23.0625 22.2016 23.181 21.9155 23.392 21.7045C23.603 21.4935 23.8891 21.375 24.1875 21.375C25.0987 21.3741 25.9985 21.172 26.8225 20.7831C27.6466 20.3942 28.3746 19.8281 28.9544 19.1252C29.5343 18.4224 29.9518 17.6001 30.1771 16.7172C30.4024 15.8343 30.4299 14.9125 30.2576 14.0177C30.0853 13.1229 29.7176 12.2773 29.1806 11.5411C28.6436 10.8049 27.9506 10.1964 27.1512 9.75914C26.3518 9.32183 25.4656 9.06648 24.5561 9.01134C23.6466 8.9562 22.7361 9.10262 21.8897 9.44015C21.7517 9.49981 21.6031 9.5312 21.4528 9.53247C21.3025 9.53374 21.1534 9.50487 21.0144 9.44755C20.8754 9.39024 20.7493 9.30564 20.6436 9.19877C20.5378 9.0919 20.4546 8.96492 20.3988 8.82533C20.3429 8.68574 20.3156 8.53637 20.3185 8.38606C20.3214 8.23574 20.3543 8.08752 20.4155 7.95016C20.4766 7.81281 20.5646 7.68909 20.6743 7.58633C20.7841 7.48357 20.9133 7.40385 21.0544 7.35187C22.9914 6.57935 25.146 6.55155 27.1023 7.27384C29.0586 7.99612 30.6782 9.41731 31.6485 11.2632C32.6188 13.1092 32.8712 15.249 32.3568 17.27C31.8425 19.291 30.598 21.05 28.8633 22.2075C31.5907 23.2127 33.92 25.0729 35.5036 27.5105C35.6666 27.7604 35.7236 28.0647 35.6621 28.3567C35.6007 28.6486 35.4258 28.9042 35.1759 29.0672Z" fill="white"/>
</svg>

