<svg width="33" height="32" viewBox="0 0 33 32" fill="none" xmlns="http://www.w3.org/2000/svg">
<g clip-path="url(#clip0_1_198)">
<path d="M15.1563 19.74C16.4965 18.8477 17.514 17.5478 18.0584 16.0326C18.6027 14.5173 18.645 12.867 18.1789 11.3259C17.7128 9.78471 16.7631 8.43445 15.4703 7.47478C14.1775 6.5151 12.6101 5.99695 11 5.99695C9.38991 5.99695 7.82255 6.5151 6.52972 7.47478C5.23688 8.43445 4.2872 9.78471 3.82111 11.3259C3.35503 12.867 3.39728 14.5173 3.94162 16.0326C4.48597 17.5478 5.5035 18.8477 6.84375 19.74C4.41937 20.6335 2.34888 22.287 0.941251 24.4537C0.867271 24.5637 0.815884 24.6873 0.790078 24.8172C0.764271 24.9472 0.76456 25.0811 0.790928 25.2109C0.817295 25.3408 0.869215 25.4641 0.943669 25.5738C1.01812 25.6834 1.11363 25.7772 1.22463 25.8496C1.33563 25.922 1.45992 25.9716 1.59026 25.9955C1.72061 26.0195 1.85441 26.0173 1.9839 25.989C2.11338 25.9608 2.23597 25.9071 2.34452 25.8311C2.45308 25.7551 2.54545 25.6583 2.61625 25.5462C3.52424 24.1497 4.7667 23.0021 6.2308 22.2077C7.6949 21.4133 9.33426 20.9972 11 20.9972C12.6657 20.9972 14.3051 21.4133 15.7692 22.2077C17.2333 23.0021 18.4758 24.1497 19.3838 25.5462C19.5304 25.7642 19.757 25.9157 20.0145 25.968C20.272 26.0203 20.5397 25.9691 20.7597 25.8256C20.9798 25.6821 21.1345 25.4577 21.1905 25.201C21.2464 24.9443 21.1991 24.6758 21.0588 24.4537C19.6511 22.287 17.5806 20.6335 15.1563 19.74ZM5.5 13.5C5.5 12.4122 5.82257 11.3488 6.42692 10.4444C7.03127 9.53988 7.89025 8.83494 8.89524 8.41865C9.90024 8.00237 11.0061 7.89345 12.073 8.10567C13.1399 8.31789 14.1199 8.84171 14.8891 9.6109C15.6583 10.3801 16.1821 11.3601 16.3943 12.427C16.6065 13.4939 16.4976 14.5998 16.0813 15.6048C15.6651 16.6097 14.9601 17.4687 14.0556 18.0731C13.1512 18.6774 12.0878 19 11 19C9.54182 18.9983 8.14383 18.4183 7.11274 17.3873C6.08165 16.3562 5.50166 14.9582 5.5 13.5ZM31.7675 25.8375C31.5454 25.9823 31.2748 26.033 31.0153 25.9784C30.7558 25.9238 30.5286 25.7683 30.3838 25.5462C29.4769 24.1489 28.2346 23.0008 26.7702 22.2067C25.3058 21.4126 23.6659 20.9978 22 21C21.7348 21 21.4804 20.8946 21.2929 20.7071C21.1054 20.5196 21 20.2652 21 20C21 19.7348 21.1054 19.4804 21.2929 19.2929C21.4804 19.1053 21.7348 19 22 19C22.81 18.9992 23.6098 18.8196 24.3422 18.4739C25.0747 18.1282 25.7218 17.625 26.2373 17.0002C26.7527 16.3754 27.1239 15.6445 27.3241 14.8597C27.5243 14.0749 27.5488 13.2555 27.3956 12.4602C27.2425 11.6648 26.9156 10.9131 26.4383 10.2587C25.9609 9.60437 25.345 9.0635 24.6344 8.67478C23.9238 8.28606 23.1361 8.05909 22.3276 8.01007C21.5192 7.96106 20.7098 8.09121 19.9575 8.39124C19.8348 8.44427 19.7028 8.47217 19.5691 8.4733C19.4355 8.47443 19.303 8.44876 19.1795 8.39782C19.0559 8.34687 18.9438 8.27168 18.8498 8.17668C18.7559 8.08168 18.6819 7.96881 18.6322 7.84473C18.5826 7.72065 18.5583 7.58788 18.5609 7.45426C18.5634 7.32065 18.5927 7.1889 18.6471 7.06681C18.7014 6.94471 18.7796 6.83474 18.8772 6.7434C18.9747 6.65205 19.0896 6.58119 19.215 6.53499C20.9368 5.84831 22.852 5.82359 24.5909 6.46562C26.3299 7.10766 27.7695 8.37094 28.632 10.0118C29.4945 11.6526 29.7188 13.5547 29.2616 15.3511C28.8044 17.1476 27.6982 18.7111 26.1563 19.74C28.5806 20.6335 30.6511 22.287 32.0588 24.4537C32.2036 24.6759 32.2543 24.9464 32.1997 25.2059C32.1451 25.4654 31.9896 25.6926 31.7675 25.8375Z" fill="gray"/>
</g>
<defs>
<clipPath id="clip0_1_198">
<rect width="32" height="32" fill="white" transform="translate(0.5)"/>
</clipPath>
</defs>
</svg>

