<?xml version="1.0" encoding="utf-8"?>
<!-- Generator: Adobe Illustrator 27.1.1, SVG Export Plug-In . SVG Version: 6.00 Build 0)  -->
<svg version="1.1" id="Layer_1" xmlns="http://www.w3.org/2000/svg" xmlns:xlink="http://www.w3.org/1999/xlink" x="0px" y="0px"
	 viewBox="0 0 540.8 148.4" style="enable-background:new 0 0 540.8 148.4;" xml:space="preserve">
<style type="text/css">
	.st0{fill:#EC1C24;}
</style>
<path d="M284.8,98.1c-7.9,0-14.5-3.3-18.6-8.8c30.3-13.6,43.2-21.1,43.2-32.2c0-8.8-8.3-16.6-22.8-16.6c-18.6,0-35.2,13.1-35.2,33.6
	c0,19.1,14.2,33.6,33.5,33.6c11.8,0,22.4-6.2,28.6-14.2l-7.3-6.5C300.9,93.5,293.6,98.1,284.8,98.1z M261.3,74.2
	c0-15.3,12.2-24.4,25.6-24.4c8.9,0,12.1,3.7,12.1,7.2c0,7-10.3,12.9-36.6,24.5C261.7,79.2,261.3,76.8,261.3,74.2z M212.2,98.1
	c-13.7,0-24-10.3-24-23.9c0-13.4,10.3-23.9,23.6-23.9c6.7,0,12.6,2.7,16.9,7.1l6.9-6.9c-6-6-14.4-9.8-23.8-9.8
	c-18.8,0-33.6,15-33.6,33.6c0,18.8,14.7,33.6,34.1,33.6c9.5,0,18-3.7,24.1-9.8l-7-6.9C225,95.4,218.9,98.1,212.2,98.1z M388.6,61.4
	C385.2,50.2,376,40.6,360,40.6s-25.2,9.6-28.6,20.8c-1.1,3.7-1.7,9.2-1.7,15.7V106h10V77.9c0-6.1,0.2-9.9,1.3-13.6
	c2.3-7.5,7.7-14,18.9-14s16.7,6.6,18.9,14c1.1,3.8,1.3,7.5,1.3,13.6V106h10V77.1C390.3,70.6,389.7,65.1,388.6,61.4z M507.2,40.6
	c-18.8,0-33.6,15-33.6,33.6s14.8,33.6,33.6,33.6c18.8,0,33.6-15,33.6-33.6S526.1,40.6,507.2,40.6z M507.2,98.1
	c-13.3,0-23.6-10.6-23.6-23.9c0-13.4,10.3-23.9,23.6-23.9c13.3,0,23.6,10.6,23.6,23.9S520.5,98.1,507.2,98.1z M435.6,69.4
	c-14.2-3.1-16.2-5.5-16.2-10.4c0-4.4,3.9-8.8,12.2-8.8c9,0,13.9,3.7,17.2,6.3l6.4-7.7c-4.2-3.3-11.6-8.3-23.5-8.3
	c-12.7,0-22.3,7.6-22.3,18.6c0,11.3,7.8,16.3,21.7,19.4c11.6,2.6,16.2,4.3,16.2,10.2c0,6-5.8,9.4-12.9,9.4c-8.8,0-15-3.5-20.5-8.4
	l-6.8,7.3c11.6,10.2,22.2,10.6,27.2,10.6c10.6,0,23.1-5.6,23.1-19.2C457.4,75.7,446.1,71.7,435.6,69.4z"/>
<g>
	<path class="st0" d="M141.7,104.4c0.3-0.1,0.3-0.3,0.3-0.6C141.8,103.9,141.7,104.1,141.7,104.4z M139.2,108.9
		c1.2-1.3,2-2.8,2.6-4.5C140.5,105.8,139.7,107.2,139.2,108.9z M138,115.4c-0.1,0.2-0.3,0.4-0.4,0.5c-0.1,0.2,0,0-0.1,0.1
		c-0.2,0.2-0.6,0.7-0.1,0.5c0.2,0,0.3-0.2,0.4-0.3c0.2-0.1,0.4-0.2,0.3-0.5c0.8-0.5,1.2-1,1.4-2C138.9,114.2,138.5,114.8,138,115.4z
		 M102.4,15.2c-1.3-1.2-2.6-0.9-4.2-0.7c0.2,0.4,0.4,0.8,0.7,1.1c-0.4,0-0.9-0.1-1.3,0c0.3,0.4,0.6,0.6,1.1,0.6s0.7-0.1,1.1-0.3
		c0.8,0.1,1.6,0.1,2.4-0.2c0.1,0,0-0.2,0.2-0.2c0.2,0,0.2,0.1,0.4,0.1c0.2,0,0.7-0.1,0.9-0.1c0,0,0,0,0,0c0.5,0.1,0.9,0.2,1.1-0.4
		c-0.3-0.1-0.7,0.1-1,0C103.2,15.1,102.9,15,102.4,15.2z M100.6,11.4c-1.3-0.2-2.4,0.1-3.7,0.4c1.4,0.3,2.6,0.1,3.9-0.1
		c1-0.1,2.1,0,3.1-0.3C102.9,11.1,101.8,10.8,100.6,11.4z M94.7,16.6c0.7,0,1.4-0.1,2.1-0.1C96.2,16.2,94.5,15.3,94.7,16.6z
		 M89.1,14.2c0.3-0.2,0.7-0.1,0.9-0.2c0.2,0,0.1,0,0.1,0c0.9-0.1,1.5-0.4,2.2-1c-1.1-0.1-2.3-0.1-3.4,0c-0.1,0-0.2-0.1-0.3-0.1
		c-0.1,0,0,0,0,0c-0.1-0.2-0.3-0.4-0.6-0.4c-0.2,0.1,0.1,0.2-0.1,0.3c-0.2,0.1-0.4,0-0.6,0c-0.2,0,0.1-0.2,0-0.2
		c-0.8-0.1-1.5,0.1-2.2,0.3c-0.8,0.2-1.6,0.4-2.3,0.7c0,0,0.1,0,0,0c-0.1,0-0.6,0.1-0.6,0.3c-0.1,0.2,0.2-0.1,0.2,0
		c0,0.1-0.1,0.2,0,0.3c-3.5,0.5-8.6,0.5-9.8,4.5c3.9-1.5,7.8-2.8,11.9-3.5c1-0.2,2-0.4,2.9-0.6C88.1,14.5,88.6,14.5,89.1,14.2z
		 M24.9,128c0,0.1,0.3,0.3,0.4,0.3c0.1,0-0.1-0.1-0.1-0.1c0.4,0.3,0.9,0.7,1.3,1c-0.1,0.2-0.3,0.3-0.3,0.5c0,0.2,0.3,0.3,0.5,0.3
		c0.5,1.6,1.4,2.2,3,2.5c0.1,0.2-0.1,0.3,0.1,0.4c0.2,0.1,0.6,0,0.8-0.2c0.6,1.4,1.5,2.1,2.9,2.8c1.2,1,2.4,1.7,3.8,2.3
		c0,0.1-0.1,0.1-0.1,0.2c1.3,1.2,2.4,2.2,4.3,1.9c0.1,0,0.1,0,0.2,0c0.5,0.4,1.4,1.1,1.8,1.5c0.3,0.4,0,0.2,0.2,0.3
		c0.4,0.8,1,1.3,1.7,0.4c0.9,1.1,1.8,1.6,3.1,1.9c0.1,0,0.2,0,0.3,0.1c0.6,0.4,1.1,0.6,1.7,0c0,0,0-0.1,0,0c1.7,1.9,3.2,1.9,5.7,2.5
		c0.8,0.2,2.6,1,3.6,1.1c1.1,0.5,1.9,0.7,3.1,0.3c-0.8-0.4-1.6-0.8-2.5-0.8c0-0.1-0.1-0.3-0.2-0.4c-0.1-0.1-0.2-0.1-0.3-0.1
		c0.6,0,1.1,0,1.7,0c0.9,0.6,1.6,0.7,2.6,0.4c0.9,0.3,1.8,0.5,2.8,0.5c0.1,0,0-0.2,0.1-0.2c0.1,0,0.2,0.1,0.4,0.1
		c0.3,0.8,2.5,0.7,2.9,0.7c0.5,0,0.1,0,0.3,0s0.3,0,0.5,0c0.2,0,0,0,0,0.1c0.4,0.1,0.7,0.1,0.9-0.3c0,0,0,0,0,0
		c1.3,0.7,2.2,0.2,3.6-0.3c1.9,1.6,6.3,0.7,8,0.6c3.1-0.2,3.6-0.2,6-1.4c0.3,0.1,0.7,0.1,1,0.2c-0.3,0.2-0.5,0.4-0.9,0.6
		c2.8-0.3,5.1-0.7,8-1.4c2.5-0.5,5.5-1.1,7.5-3c0.1,0,0.2,0.1,0.3,0.1c0.1,0,0-0.2,0-0.2c0.3,0,0.6,0,0.9,0.1
		c1.5-0.4,2.8-0.7,3.1-2.4c0.2,0.2,0.2,0.5,0.3,0.8c1-0.2,1.9-0.4,2.5-1.4c0.1,0,0.4-0.1,0.5-0.2c2.7-1.4,5.1-3.1,7.4-5.1
		c0.1,0.1,0.2,0.2,0.3,0.3c3.6-1.3,5.9-3.2,8-6.3c0.9-0.7,1.8-1.5,2.6-2.5c0,0,0,0,0,0c1.1-1.5,2.3-2.9,3.4-4.4
		c0.4-0.3,0.6-0.7,0.8-1.2c0,0,0,0,0,0c0.2-0.2,0.3-0.6,0.4-0.9c0.1-0.3,0.2,0,0.2-0.1c0.3-0.3,0.4-0.6,0.6-1
		c-0.8-0.3-1.2,0-1.2,0.8c-0.3,0.1-0.5,0.2-0.8,0.3c0,0,0,0-0.1,0c0,0,0.1,0,0,0c-0.1,0-0.3,0.2-0.4,0.3c-0.1,0.1,0,0.1-0.2,0.2
		c-0.1,0.1-0.2,0.2-0.3,0.3c-1,1-2,1.5-3.4,1.2c-1.7-0.8-2.8,0.8-4,1.9c-0.2,0.2-0.6,0.5-0.8,0.8c-0.2,0.3-0.7,0.6-1,0.9
		c0,0,0.1-0.1,0,0c-0.1,0.1-0.2,0.2-0.3,0.2c-0.1,0.1,0.1,0,0,0c-0.3,0.3-0.7,0.6-1,0.8c-0.7,0.3-1.4,0.4-2.1,0.6
		c0.3-0.4,0.6-0.7,0.7-1.2c0.6-0.5,1.1-1,1.5-1.6c-0.1-0.2-0.2-0.4-0.4-0.7c0.7-0.1,1.7-0.2,1.4-1.1c2.5-1.3,4.2-2.9,5.6-5.3
		c0,0.1,0,0.3,0,0.4c0.7-0.5,1.1-1,1.1-1.9c1.1-0.4,1.8-0.9,2.2-2.1c0.7-0.7,1.2-1.3,1.1-2.3c0.1-0.1,0.3-0.1,0.4-0.2
		c0.1-0.1,0.2-0.3,0.2-0.4c0.1-0.1,0.1,0,0.1,0c0.1,0,0,0,0.1-0.1c0.1-0.1,0.3-0.3,0.4-0.5c0-0.2-0.1,0-0.1,0
		c0.8-0.8,1.4-1.5,1.2-2.8c2.4-2,3.3-4.4,4.3-7.3c-3,1.2-3.7,4.7-5,7.3c-0.5,0.9-1.3,1.7-1.6,2.7c-0.5,0.1-0.8,0.3-1.1,0.8
		c-0.1,0.1-0.2,0-0.3,0.1c0.8-1.1,1.4-2,1.3-3.4c0.1,0,0.1,0.1,0.2,0.1c0.8-1.1,1.5-2.2,2-3.4c0.3-0.6,0.6-0.9,0.5-1.6
		c0.1,0,0.2,0.1,0.2,0.1c0.8-1.4,1.7-2.7,2.1-4.4c0.3-0.2,0.7-0.4,1.1-0.5c0-0.3,0-0.6-0.1-0.9c0.6-0.7,0.8-1.3,0.7-2.2
		c-0.4,0.3-0.7,0.6-1.1,0.9c1.1-1.6,1.6-3.2,1.7-5.2c0.4-1.4,0.5-2.7,0.3-4.2c0.1,0,0.2,0,0.3,0.1c0.4-1.4,0.5-2.7,0-4.1
		c-1,1-1.3,1.9-1.2,3.3c-1,0.2-1.7,0.7-2.5,1.4c0,0,0,0,0,0c0,0,0,0,0-0.1l0.8-4.8c0.1-0.4,0-0.9,0-1.3c-1.5,0.6-1.7,2.1-2.5,3.4
		c0,0,0,0,0,0c-3.1,0.9-3.3,3.5-4,6.3c-0.8,0.4-1.6,2.1-1.8,2.7c-0.2,0.5-0.1,0.4-0.1,0.5c-1,1.6-2.1,1.7-3.9,1.8
		c-0.5,0.4-0.8,0.7-1.1,1.3c0,0.1-0.1-0.1-0.1,0c-0.3,0.2-0.5,0.4-0.7,0.7c-1.9-0.6-3.1,0.5-4.5,1.7c0-0.1,0-0.3,0.1-0.4
		c-1.4,1.1-2.5,2-2.7,3.8c-0.7,0.6-1.9,1.1-2.4,0.2c-0.2-0.4,0.1-0.3-0.1-0.3c0.9-1.2,2-2.4,0.7-3.8c-1,0.8-1.8,1.5-2,2.8
		c-0.2,0-0.4-0.1-0.6-0.2c-0.7-0.1-0.9-0.3-0.9-1c-0.2,0.1-0.4,0.3-0.6,0.3c-0.2,0,0-0.2-0.1-0.3c1.1-0.5,1.7-1.3,2.1-2.4
		c-0.2-0.1-0.3-0.2-0.5-0.3c0.6-0.5,1.1-1,1.6-1.7c0,0.1,0,0.1,0.1,0.2c0.6-1.1,1.1-1.9,0.6-3.1c0.2-0.1,0.4-0.2,0.6-0.3
		c0.2-3-2.1-0.5-3.1,0.6c0,0,0.1,0,0,0.1c-0.1,0-0.2,0.1-0.4,0.2c0.7-1,0.5-2.5-0.6-1.7c-0.7,0.5-0.2,0.3-0.4,0.5
		c-0.2,0.2,0,0.1-0.1,0.1c-0.1,0.1,0,0,0,0c-0.3,0.3-0.5,0.6-0.7,1c-0.1,0.1-0.1,0.2-0.1,0.3c-0.1,0.1-0.1,0.4-0.2,0.5
		c0,0.1,0,0,0,0c-0.5,0.5-0.9,1.1-1.1,1.8c0,0,0.2,0,0.2,0s-0.2,0.2-0.2,0.2c-0.1,0,0.2-0.2,0-0.2c-0.2,0-0.5,0.3-0.5,0.5
		c0,0.2,0.1-0.1,0.1,0c0,0-0.1,0.1-0.1,0.1s0,0,0,0c-0.3-0.1-0.5,0.3-0.6,0.5c0,0.1,0,0,0,0.1c0,0.1,0,0,0,0c0,0,0,0,0,0
		c0,0,0.2-0.1,0,0c-0.2,0.1-0.3,0.2-0.5,0.4c-0.1,0.2-0.5,0.5-0.6,0.6c-0.1,0.1,0,0-0.1,0.1c-0.1,0.1,0.1-0.1,0,0
		c-0.1,0.1-0.1,0.3-0.1,0.4c0,0.1-0.2,0.2-0.3,0.1c-0.1-0.1,0.2-0.2,0-0.2c-0.2,0-0.4,0.2-0.5,0.4c-0.1,0.2,0.1,0,0.1,0.1
		c-1.1,0.6-1.9,1.3-2.4,2.4c-0.1-0.1-0.2-0.1-0.2-0.2c-1.3,0.8-2.5,1.6-3.5,2.7c-0.1,0.1-0.3,0-0.4,0.1c-0.8,0.7,0.2,0.6,0.7,0.5
		c-4,1.5-8.1,3.3-12,4.8c-0.7,0.3-0.5,0.2-1,0.5c-1.2-0.3-2,0.1-2.9,0.8c-0.2-0.2-0.5-0.4-0.7-0.5c-3.7-0.1-7.4-0.3-11-0.1
		c-3.2-0.4-6-0.5-9-1.8c-2.1-0.9-3.8-1.9-5.9-0.5c0,0-0.1,0-0.1,0c0.1,0-0.8,0.4-0.9,0.4c-0.1,0-0.2,0-0.1-0.1
		c0.2-0.1,0.9-0.3,1-0.3s0.5-0.6,0.1-0.6c0.3-0.3,0.5-0.6,0.6-1c0,0,0,0,0,0l0,0c-1.3-0.8-2.6-1.4-3.9-2.1c-0.2-0.6-1.4-1.2-1.8-1.3
		c-0.4-0.1-0.3-0.1-0.3-0.1c-0.8-0.5-1.5-0.8-2.4-0.5c0,0,0,0,0,0c0.3-0.5,0.3-0.9-0.3-1.2c0.1-0.1,0.2-0.2,0.3-0.3
		c-0.9-1.3-1.9-2.2-3.2-2.9c0.3-1.5-0.5-2.3-1.5-3.3c-0.1-0.1-0.2-0.3-0.3-0.3c-0.1,0,0-0.1-0.1-0.1c-0.1,0-0.1,0.2-0.3,0.1
		c0.8-0.4-0.5-2.1-0.6-2.3c-0.1-0.2,0,0-0.1-0.1c-0.1-0.2,0.3,0.4,0.1,0.1c-0.1-0.2,0-0.6-0.2-0.7c-0.2-0.1-0.1,0-0.1,0
		c0-0.4-0.1-0.7-0.3-1.1c-0.3-0.7-0.5-1.4-0.9-2.1c0.1,0,0.1,0.1,0.1,0.1c-0.1-1.2-0.4-2-1.5-2.5c0-0.3,0.1-0.6,0.1-1
		c0.2,0.1,0.3,0.1,0.5,0.2c0-0.5-0.1-1-0.4-1.4c0-0.1-0.1,0.2-0.3,0c1.6-1-0.7-4.7-1.4-5.1l-0.4-0.3c0.7-0.5,0.9-0.8,0.2-1.4
		c0.7-2,0.8-3.9,0.8-6c0-0.7-0.1-1.4,0.1-2c0-0.1,0.1,0.1,0.2,0.1c0.4-0.5,0.5-1,0.3-1.6c0.4-1.1,0.6-2,0.2-3.2
		c1.5-1.3,2.1-2.4,1.3-4.3c1.1-0.9,1.7-1.9,2-3.3c0.5-0.6,0.7-1,0.5-1.7c0-0.1,0.1,0,0.1,0c0.2-0.2,0.2-0.4,0-0.6
		c0.6-0.4,0.4-0.7,0-1.2c0.3-0.1,0.7-0.2,0.9-0.5c0.5-0.6,0.6-1.2,0.5-2c0.6,0.1,1.2-0.8,1.3-1.2S48,49,48,49
		c0.4-1.1,0.7-2.2,1.2-3.3c0-0.1,0.2-0.1,0.2-0.1c0.4-0.3,0.7-0.6,0.7-1.1c0-0.1,0.2,0,0.2-0.1c1-0.8,1.6-1.7,2.2-2.8
		c0.1,0,0.3,0,0.4,0c0.4-0.3,1.1-1.2,1.4-1.5c0.2-0.2,0.2-0.2,0.2-0.2c0.4-0.3,0.4-0.6,0.5-1c0-0.1,0.2,0,0.3,0
		c0.6-0.4,1-0.7,1.3-1.4c0.3-0.2,0.4-0.4,0.5-0.8c0.3-0.1,0.8-0.1,0.6-0.6c0.3-0.1,0.7-0.3,1-0.5c0,0,0,0,0,0
		c0.3-0.1,0.5-0.3,0.6-0.6c0-0.1-0.1,0.1-0.1,0.1c0,0,0-0.1,0-0.1c1.1-0.3,2-0.9,2.9-1.6c0,0,0,0,0,0c0.2,0,0.4-0.1,0.5-0.3
		c0.2-0.2,0.4-0.3,0.6-0.5c0.1,0.3,0.5,0.1,0.6-0.1c0.1-0.1-0.1-0.1,0-0.2c0.1,0-0.3,0-0.3,0c0-0.1,0-0.1,0.1-0.1
		c0.1,0,0.2,0.2,0.3,0.1c0.1,0,0.2,0,0.3-0.1c0.1,0,0.2-0.1,0.2-0.1c0.5-0.3,0.9-0.7,1.2-1.2c1.4-0.3,2.3-0.9,3.2-2.1
		c-1.9-0.3-3.6-0.1-5.4,0.7c-0.2,0-0.6,0.1-0.7,0.2c-0.1,0.1-0.1,0.1-0.2,0.1c-0.1,0-0.1,0.1-0.1,0.1c0,0-0.1,0.1-0.1,0.1
		c0,0,0.1-0.1,0,0c0,0.1-0.1,0.2,0,0.3c-0.6-0.1-1.2,0-1.8-0.2c-0.6-0.2-1.1-0.5-1.6,0.2c-0.2-0.2-0.7-0.2-0.9-0.2
		c-0.2,0-0.1,0-0.1,0c-0.1,0,0,0,0,0c-0.2-0.5-1,0.3-1.2,0.4c-0.1,0.1,0,0,0,0c-0.6,0.2-1,0.3-1.6,0.1c0.1-0.4,0.2-0.9,0.4-1.3
		c0.5-0.9,1.2-1.5,1.8-2.3c0.1,0.2-0.1,0.4,0.2,0.5c2-1.8,6.5-4.5,8.3-5.5c1.1-0.6,1.1-0.6,1.1-0.6c2.1-0.8,4.8-1.2,4.8-3.8
		c-2.3,0.7-4.4,1.3-6.3,2.9c-0.4,0.1-0.8,0.2-1.1,0.3c-0.1,0-0.2,0.1-0.3,0.1c-1,0.6-3,1.6-3.9,1.9c-1.5,0.6-1.6,0.5-2.2,1.7
		c-2.9,1.3-5.2,3.4-8.5,3.6c0.9-1.2,1.9-2.3,3-3.3c0.2-0.2,0.4-0.3,0.5-0.5s0-0.1,0.1-0.1c0,0,0-0.2,0-0.1c0.2,0.1,0.5-0.1,0.5-0.4
		c0-0.2-0.4,0-0.5-0.1s0,0-0.1,0c0,0-0.1-0.1,0-0.1c0.3,0,0.6,0,0.8-0.1c-0.1,0.1-0.2,0.2-0.2,0.3c0.3-0.1,0.5-0.3,0.7-0.5
		c0,0,0,0,0,0c0.4-0.1,1-0.6,1.1-0.8c0.1-0.2,0.1-0.2,0.1-0.2c0.6-0.5,1-0.8,1.2-1.6c-0.7,0.1-1.2,0.2-1.7,0.7
		c-0.6,0.1-1.3,0.5-1.8,0.7c-0.7,0.3-1.2,0.7-1.8,1.2c-1.1,0.5-2,0.9-3.1,0.6c0,0,0,0,0,0c1.1-0.3,1.9-0.9,2.6-1.8
		c-0.2-0.1-0.4-0.2-0.6-0.3c3.9-1.8,7.6-3.9,11.3-6.1c-0.1-0.1-0.2-0.1-0.3-0.2c-0.1-0.1,0-0.1,0.1-0.1c2.1-0.2,3.9-0.7,4.9-2.6
		c0,0,0,0,0.1,0c1.1,0.6,2,0.3,2.4-0.9c2.4-0.1,4.3-0.9,6.4-2.1c-0.2,0-0.4-0.1-0.6-0.1c4.2-1,8.3-2.2,12.3-3.6
		c0.2,0.1,0.4-0.1,0.5-0.2c0.1-0.1,0.2-0.1,0.3-0.1c0.7-0.1,1.3-0.2,2-0.5c-0.2,0-0.5,0-0.7-0.1c0.3-0.2,0.6-0.4,0.9-0.6
		c0.1,0.2,0.2,0.4,0.3,0.6c0.7,0,0.9-0.2,1-0.9c3.9,0.6,7.3-0.2,11-1.3c-3.7-0.6-7.1-0.2-10.8,0.1c-0.5,0-2.4-0.9-2.3,0.2
		c-3.7-0.3-7.3-0.1-10.9,0.2c-1.4-0.1-2.2,0.5-3.3,1.4c-0.9-0.2-1.7-0.2-2.7,0c-0.7-0.4-1.1-0.2-1.6,0.4c-0.6,0.2-1.3,0.4-1.9,0.6
		c0,0-0.1-0.1-0.1,0c0.1,2.1,0.7,3.6,3,3.7c0.2,0.1,0.4,0.1,0.7,0.1c0.1-5.5-4.9-2.8-7.7-0.8c-1.9,0-3.6,0.4-5.3,1.3
		c-0.6,0.1-1,0.2-1.2,0.8c-0.6,0.1-1,0.2-1.3,0.7c-0.1-0.1-0.4,0-0.4,0c-0.1,0,0,0-0.1,0c0,0,0,0-0.1,0c0,0,0,0-0.1,0
		c-0.1,0-0.2,0.1-0.3,0.2c-0.1,0.1-0.1,0.1-0.3,0.2c-0.2,0-0.6,0.2-0.7,0.3c-0.1,0.1-0.1,0.1-0.2,0.1c-0.1,0.1-0.3,0.2-0.4,0.3
		c-0.4,0.3-0.7,0.5-1,0.8c-0.5-0.2-0.8-0.1-1.1,0.3c0,0.1,0.1,0.2,0.1,0.2c-1.3,0.2-2.2,0.6-3,1.6c-0.8,0.2-1.5,0.5-0.8,1.3
		c0.1,0.1,0.4,0.1,0.3,0.2c0,0.1-0.3,0.2-0.4,0.1c-0.2-0.1-0.4-0.3-0.5-0.4c-0.2-0.1-0.2-0.4-0.5-0.4c-0.3,0-0.6,0.2-0.8,0.4
		c-0.2,0.3-0.7,0.8-0.9,0.9c-0.3,0.1-0.1,0-0.2,0c-1.6-0.1-2.5,0.6-3.5,1.8c-0.2,0-0.3,0.2-0.5,0.2s-0.3,0.2-0.4,0.3
		c0,0.1,0,0.1,0,0.1c-1.3,0.8-2.6,1.1-4,1.5c0-0.1-0.1-0.2-0.1-0.2c0.5-0.3,1.1-0.8,1.4-1.2c0.1-0.2,0.3-0.2,0.3-0.4
		c0-0.2-0.2,0.2-0.2,0.1c0-0.2-0.1-0.4-0.1-0.5s0.2,0,0.3-0.1c0.1,0.5,0.5,0.2,0.6,0c0-0.2-0.4-0.1-0.4-0.1c0,0,2.1-1.3,2.5-2.7
		c0.4-0.2,0.8-0.5,1.1-0.8c-0.2,0-0.2-0.1-0.3,0c-0.1,0-0.1,0.1-0.2,0c-0.2-0.1,0-0.2,0.1-0.2c0.2,0,0.1,0,0.2,0.1
		c0.2,0.1,0.3,0,0.5,0c0.7-0.1,1-0.3,1.2-0.9c1.9-1.1,3.8-2.1,5.6-3.5c1.7-0.7,3.3-1.3,4.6-2.7c0.2,0,0.4-0.1,0.6-0.1
		c0.2,0-0.2,0.2-0.1,0.1c0.2-0.1,0.3-0.2,0.5-0.3c1.4-0.7,2.9-1.4,4.3-2.1c-0.3-1.5-4.5,1.1-5.4,1.5c-0.3,0.1-0.4,0-0.5,0.4
		c0.2-0.1,0.3-0.3,0.5-0.4c-0.1,0.1-0.2,0.3-0.3,0.4S53.2,8,53.1,8c-0.7,0-1.4,0.2-2.1,0.4c1.6-1.1,3.1-2.2,4.6-3.4
		C49.7,6.6,45,9.3,40.3,13.3c0,0,0,0,0,0c-1.3,0.2-2.3,0.5-2.8,1.9c-0.7,0.1-1.3,0.2-0.8,1c-0.2,0-0.5,0.1-0.7,0.1
		c-0.2,0,0.1-0.1,0-0.1c-0.1,0-0.3,0.1-0.3,0.1c-0.1,0.1,0.1,0.1,0,0.1c-1,0.5-1.7,0.9-1.5,2.1c-1.6,0.4-2.8,1.1-3.9,2.4
		c0.1,0,0.1,0,0.2,0.1c-1.4,0.7-2.3,1.3-2.4,2.9c-0.6,0.1-1.4,1.1-1.6,1.4c-0.3,0.3,0,0.2-0.2,0.3c-0.2,0.1-0.3,0.4-0.5,0.5
		c-0.1,0.1-0.3,0.4-0.4,0.5c0,0.1,0.1,0,0.1,0c-0.8,0.8-1.4,1.7-1.9,2.8c-0.2,0-0.3,0.1-0.4,0.2c-0.1,0.1,0.2-0.2,0-0.1
		c-0.2,0.1-0.3,0.2-0.4,0.5c-0.1,0.2-0.4,0.5-0.5,0.7c-0.1,0.2-0.2,0.5-0.3,0.6c-0.1,0.1-0.1,0.1-0.1,0.1c-1.9,0.7-2,2-1.7,3.9
		c-0.2,0-0.4,0.1-0.6,0.1c-0.8,1.3-1.5,2.6-1.9,4.1c-0.3,0.2-0.5,0.5-0.7,0.9c0-0.1-0.1-0.2-0.1-0.3c-0.4,0.4-0.7,0.8-0.7,1.4
		c0,0.1-0.1,0.1-0.1,0.1c-0.9,1.3-1.6,2.4-1.5,4c-0.1,0.1-0.1,0.2-0.2,0.2c0,0.1,0,0.1,0.1,0.2c-0.8,0.2-0.8,0.6-0.8,1.3
		c0.3,0.2,0.6,0.3,0.8,0.4c-0.3-0.4-0.8,0.1-0.8,0.3c0,0.2,0,0.2,0,0.2c-0.2,0.3-0.3,0.5-0.5,0.7c-0.1-0.5-0.4-0.5-0.4-1
		c0.1-0.5,0.6-1.3-0.1-1.8c0.1-0.1,0.1-0.3,0.2-0.3c0.1,0,0.2,0.3,0.2,0.2c0.3-0.2,0.3-0.5-0.1-0.5c0,0-0.1,0-0.1,0
		c0.6-0.7,0.9-1.3,0.8-2.3c0.2,0,0.4,0,0.5-0.1c0.1-0.2,0-0.5,0-0.7c-0.1-0.1,0-0.1,0-0.2c0.6-1.6,0.6-3.2-1.5-3
		c-0.4,0-0.4,0.7-0.7,1c0-0.1-0.2-0.2-0.2-0.3c0-0.1,0.1,0,0.2-0.2c0.9-2,1.6-4.2,2.1-6.4c0.8-1.6,1.7-3.1,2.2-4.9
		c-1.3,0.5-1.9,1.2-2.3,2.6c-0.8,0.3-1.1,0.7-1.7,1.4c-0.3,0.3-0.6,1.2-1,1.5c-1.8,1.8-3.5,4.7-3.4,7c0.1,1.6,0.3,0.3,0.1,0.6
		c-0.2,0.3-0.6,0.2-0.8,0.4c-0.2,0.3-0.1,0.3-0.1,0.5c-0.4,0.4-0.5,0.8-0.5,1.3c-0.4,0.5-0.6,0.8-0.4,1.4c-0.6,0.6-0.8,1.1-0.7,2
		c-0.7,0.1-0.9,1.3-1,1.6c-0.1,0.4,0,0.2-0.1,0.2c-0.1,0,0,0.1,0,0.1c-2,2.3-3.1,6.2-3.1,8.7c0,1.2,0.1,0.3,0.1,0.7
		c0,0.5,0.1,0,0,0.2c-0.1,0.2-0.1,0.3,0,0.5c0,0.2,0-0.1-0.1,0c-0.5,1.4-0.8,2.8-0.7,4.3c0,0.1-0.1,0.1-0.2,0.1
		c-0.2,0.7-0.2,1.2-0.1,1.9c-0.7,3.3-0.7,6.3-0.3,9.6c-0.3,1.3-0.1,2.2,0.6,3.3c-0.1,0,0,0.2-0.2,0.1c-0.1-0.1-0.3-0.3-0.4-0.4
		c-0.2,2.1-0.2,4.1,0.5,6.1c0,0.3,0.1,0.7,0.2,1c0,0,0,0-0.1,0c-0.2,0.3,0,0.8,0.2,1c0.2,0.1,0,0,0.2,0.1c0.1,0.1,0.4,0.3,0.6,0.1
		c0,0-0.1-0.1,0-0.1c0.1,0.1,0.3-0.1,0.4-0.2c0-0.2,0.1,0,0.1-0.1c0.1,2.6,0.7,5,1.6,7.4c0,0.8,0.1,1.5,0.3,2.2
		c-0.1-0.5-0.4-1.2-0.8-1.5c-0.2-0.1-0.1,0-0.1-0.1c-0.4-0.4-0.4-0.9-0.7-1.4c-0.2,0.7,0,1.1,0.7,1.3C3,97.3,4.4,99.4,6.2,102
		c0,0-0.1-0.1,0,0c0.1,0.1,0.2,0.3,0.3,0.4c0.2,0.4,0.4,0.7,0.6,1.1c0,0.1,0.1,0,0.1,0c-0.1,0.4-0.1,0.8,0.3,0.9c0.1,0,0,0.1,0,0.2
		c0.5,1.4,1,2.7,1.9,3.9c0,0-0.1,0-0.1,0.1c0.1,0.6,0.3,1.1,0.8,1.5c0.1,0.6,0.3,1.2,0.7,1.6c0.4,0.4,0.7,0.6,1.1,0.9
		c-1.1,0.4,0.1,0.9,0.6,1.2c0.1,2.2,1.2,3.4,2.8,4.8c0.4,0.7,0.8,1.2,1.5,1.6c0.5,0.6,1,1.2,1.6,1.8c0,0-0.3,0-0.2,0
		c0.4,0.2,0.8,0.3,1.2,0.4c-0.2,0.1-0.5,0.2-0.7,0.4c1.1,1.2,2.3,2.3,3.6,3.2c0.7,0.8,1.4,1.4,2.5,1.7C25,127.8,24.9,127.9,24.9,128
		L24.9,128z M56.7,15.5C56.7,15.5,56.7,15.5,56.7,15.5C56.7,15.5,56.7,15.5,56.7,15.5C56.7,15.5,56.7,15.5,56.7,15.5z M3.1,85.1
		C3.1,85.1,3.1,85.1,3.1,85.1C3.1,85.1,3.1,85.1,3.1,85.1C3.1,85.1,3.1,85.1,3.1,85.1z M28.2,129.8
		C28.2,129.8,28.2,129.8,28.2,129.8C28.2,129.8,28.2,129.8,28.2,129.8C28.2,129.8,28.2,129.8,28.2,129.8z M150.2,86.2
		c-0.8,1.4-1.1,3-1.5,4.6C150.2,89.5,150.4,88.1,150.2,86.2z M146.3,87.3c-0.7,1.1-1.1,2.2-1.3,3.5
		C146.4,90.6,146.2,88.4,146.3,87.3z M77.8,20.7c-0.8-0.3-1.1-0.1-1.3,0.7C76.9,21.2,77.3,21,77.8,20.7z M152.7,86.8
		c-0.6,1.7-1.2,3.6-1.7,5.4c-0.2,0.8-0.3,1.7-0.6,2.3c-0.1,0.3-0.1,0.2-0.1,0.2c-0.3,0.2-0.7,0.7-0.2,0.9c0.5,0.2,0.7-0.5,0.6-0.9
		c0.6-0.7,0.7-1.3,0.5-2.2C152.9,90.8,152.8,88.9,152.7,86.8z M69.1,24.1c2.5-0.8,4.9-1.8,7.3-2.7C73.4,20.9,71.4,22.3,69.1,24.1z"
		/>
	<path class="st0" d="M138.9,84.1c0,0,0.5-4.2,0.3-7.9c0-0.2,0-0.3,0-0.5c0-0.2,0,0,0,0c0.3-1.1,0.4-2.3,0.4-3.5
		c0.8,0.2,1.1,0.9,1.2,1.6c0.1,0.7,0.4,1.4-0.3,1.7c-0.6-1.9,0.4,1.3,0.4,1.9c-0.1,0.7-0.2,1.5-0.2,2.3c-0.1-0.1-0.1-0.2-0.1-0.4
		c-0.4,0.9-0.9,1.8-1.2,2.7L138.9,84.1z"/>
	<path class="st0" d="M58.7,4.1c1-0.3,1.9-0.6,2.9-0.9c0.5-0.2,1.1-0.4,1.6-0.6c0.7-0.2,1.3-0.5,2-0.7C66,1.7,66.7,1.4,67.5,1
		c0.8-0.3,1.6-0.7,2.5-1c-1.4,0.2-2.7,0.5-4,0.9c-1.2,0.4-2.3,0.8-3.5,1.3C61.2,2.8,60,3.4,58.7,4.1z"/>
	<path class="st0" d="M111.1,15.4c-1.2-0.7-2.1-0.8-3.6-0.1C108.7,16,109.7,16,111.1,15.4z"/>
	<path class="st0" d="M83.4,18.7c1.5,0.5,2.4,0.1,3.5-0.7C85.5,17.6,84.5,17.8,83.4,18.7z"/>
	<path class="st0" d="M148.5,76.4C148.6,76.4,148.5,76.4,148.5,76.4C148.5,76.5,148.5,76.4,148.5,76.4c0,0.1,0.1,0.1,0,0.1
		c-0.9,1-0.5,1.9,0.2,2.9c0.1-0.6,0-1.2,0.2-1.7c0.2-0.5,0.2-0.8,0.1-1.4c-0.1-0.6-0.1-1.8-0.1-2.2c0-0.4,0-0.3,0-0.3
		c0.2-0.9-0.3-2.5-0.4-3.1c-0.3-1.4-0.5,4.8-0.4,5.8C148.2,76.6,148.4,76.5,148.5,76.4z"/>
</g>
</svg>
