<?xml version="1.0" encoding="utf-8"?>
<!-- Generator: Adobe Illustrator 27.8.1, SVG Export Plug-In . SVG Version: 6.00 Build 0)  -->
<svg version="1.1" id="Layer_1" xmlns="http://www.w3.org/2000/svg" xmlns:xlink="http://www.w3.org/1999/xlink" x="0px" y="0px"
	 viewBox="0 0 207.9 189.6" style="enable-background:new 0 0 207.9 189.6;" xml:space="preserve">
<style type="text/css">
	.st0{fill:#052F69;}
</style>
<g>
	<path class="st0" d="M61.1,184c-4.5,0-8.3-1.9-10.7-5c17.4-7.8,24.8-12.1,24.8-18.5c0-5-4.8-9.5-13.1-9.5
		c-10.7,0-20.2,7.5-20.2,19.3c0,11,8.1,19.3,19.2,19.3c6.8,0,12.8-3.6,16.4-8.1l-4.2-3.7C70.3,181.3,66.2,184,61.1,184z M47.6,170.2
		c0-8.8,7-14,14.7-14c5.1,0,6.9,2.1,6.9,4.1c0,4-5.9,7.4-21,14C47.9,173.1,47.6,171.7,47.6,170.2z M19.5,184
		c-7.9,0-13.8-5.9-13.8-13.7c0-7.7,5.9-13.7,13.5-13.7c3.8,0,7.2,1.5,9.7,4.1l4-4c-3.4-3.4-8.3-5.6-13.6-5.6
		C8.5,151.1,0,159.7,0,170.3c0,10.8,8.4,19.3,19.6,19.3c5.4,0,10.3-2.1,13.8-5.6l-4-4C26.8,182.4,23.3,184,19.5,184z M120.6,162.9
		c-1.9-6.4-7.2-11.9-16.4-11.9s-14.4,5.5-16.4,11.9c-0.6,2.1-1,5.3-1,9v16.6h5.7v-16.1c0-3.5,0.1-5.7,0.7-7.8c1.3-4.3,4.4-8,10.8-8
		s9.6,3.8,10.8,8c0.6,2.2,0.7,4.3,0.7,7.8v16.1h5.7v-16.6C121.6,168.2,121.3,165.1,120.6,162.9z M188.6,151
		c-10.8,0-19.3,8.6-19.3,19.3s8.5,19.3,19.3,19.3s19.3-8.6,19.3-19.3S199.5,151,188.6,151z M188.6,184c-7.6,0-13.5-6.1-13.5-13.7
		c0-7.7,5.9-13.7,13.5-13.7s13.5,6.1,13.5,13.7C202.2,177.9,196.2,184,188.6,184z M147.6,167.5c-8.1-1.8-9.3-3.2-9.3-6
		c0-2.5,2.2-5,7-5c5.2,0,8,2.1,9.9,3.6l3.7-4.4c-2.4-1.9-6.7-4.8-13.5-4.8c-7.3,0-12.8,4.4-12.8,10.7c0,6.5,4.5,9.3,12.4,11.1
		c6.7,1.5,9.3,2.5,9.3,5.8c0,3.4-3.3,5.4-7.4,5.4c-5,0-8.6-2-11.8-4.8l-3.9,4.2c6.7,5.8,12.7,6.1,15.6,6.1c6.1,0,13.2-3.2,13.2-11
		C160.1,171.1,153.6,168.8,147.6,167.5z"/>
	<g>
		<path class="st0" d="M157.2,84.8c0.2-0.1,0.3-0.2,0.2-0.5C157.3,84.5,157.3,84.6,157.2,84.8z M155.1,88.5c1-1.1,1.6-2.3,2.1-3.7
			C156.3,85.9,155.6,87,155.1,88.5z M154.2,93.8c-0.1,0.2-0.2,0.3-0.3,0.4s-0.1,0.1-0.1,0.1c-0.2,0.1-0.5,0.6-0.1,0.5
			c0.1-0.1,0.2-0.2,0.3-0.2c0.1-0.1,0.3-0.2,0.3-0.4c0.7-0.4,1-0.9,1.1-1.6C155,92.8,154.6,93.2,154.2,93.8z M125.3,12.3
			c-1-1-2.1-0.7-3.4-0.6c0.1,0.3,0.3,0.6,0.6,0.9c-0.3-0.1-0.7-0.1-1.1,0c0.2,0.3,0.5,0.5,0.9,0.5c0.3,0.1,0.6-0.1,0.9-0.2
			c0.7,0.1,1.3,0.1,1.9-0.1c0.1,0,0.1-0.1,0.2-0.1s0.2,0.1,0.3,0.1c0.2,0,0.5-0.1,0.7-0.1l0,0c0.4,0.1,0.7,0.1,0.9-0.3
			c-0.3-0.1-0.6,0.1-0.9,0C126,12.3,125.7,12.2,125.3,12.3z M123.8,9.3c-1-0.2-1.9,0.1-3,0.3c1.1,0.2,2.1,0.1,3.2-0.1
			c0.9-0.1,1.7,0,2.5-0.2C125.7,9,124.8,8.8,123.8,9.3z M80.6,40.6c-0.1,0.2-0.2,0.3-0.4,0.5C80.4,41,80.6,40.9,80.6,40.6z
			 M119,13.5c0.6,0,1.1-0.1,1.7-0.1C120.3,13.2,118.8,12.4,119,13.5z M114.4,11.5c0.2-0.1,0.6-0.1,0.7-0.1s0.1,0,0.1,0
			c0.7-0.1,1.3-0.3,1.8-0.8c-0.9-0.1-1.9-0.1-2.8,0c-0.1,0-0.1-0.1-0.2-0.1s-0.1,0-0.1,0c-0.1-0.2-0.2-0.3-0.5-0.3
			c-0.2,0.1,0.1,0.2-0.1,0.2c-0.1,0.1-0.3,0-0.5-0.1c-0.1,0,0.1-0.2,0.1-0.2c-0.6-0.1-1.2,0.1-1.8,0.2c-0.6,0.2-1.3,0.3-1.9,0.6
			c0,0,0.1,0,0,0s-0.5,0.1-0.5,0.2c-0.1,0.1,0.2-0.1,0.2,0s-0.1,0.2-0.1,0.3c-2.9,0.4-7,0.4-8,3.6c3.2-1.2,6.4-2.3,9.7-2.8
			c0.8-0.1,1.6-0.3,2.4-0.5C113.6,11.8,114.1,11.8,114.4,11.5z M74.5,63.7l-0.3-0.2c0.5-0.4,0.7-0.7,0.2-1.1
			c0.5-1.6,0.6-3.2,0.6-4.9c0-0.6-0.1-1.1,0.1-1.7c0-0.1,0.1,0.1,0.1,0.1c0.3-0.4,0.4-0.8,0.3-1.3c0.3-0.9,0.5-1.7,0.2-2.6
			c1.2-1,1.7-1.9,1.1-3.5c0.9-0.7,1.4-1.5,1.6-2.6c0.4-0.5,0.6-0.8,0.3-1.4c0-0.1,0.1,0,0.1,0c0.1-0.2,0.1-0.3,0-0.5
			c0.5-0.3,0.3-0.6,0-0.9c0.2-0.1,0.5-0.2,0.7-0.3c0.5-0.5,0.5-1,0.4-1.7c0.5,0.1,1-0.7,1-0.9C81,40,81,40,81,40
			c0.3-0.9,0.6-1.8,0.9-2.6c0-0.1,0.2-0.1,0.2-0.1c0.3-0.2,0.5-0.5,0.6-0.9c0-0.1,0.1,0,0.2-0.1c0.8-0.6,1.3-1.4,1.8-2.2
			c0.1,0,0.2,0.1,0.3,0c0.3-0.2,0.9-1,1.1-1.2s0.1-0.1,0.2-0.2c0.3-0.3,0.3-0.5,0.4-0.8c0.1-0.1,0.2,0,0.2,0c0.5-0.3,0.9-0.6,1-1.1
			c0.2-0.2,0.3-0.3,0.4-0.6c0.3-0.1,0.6-0.1,0.5-0.5c0.3-0.1,0.6-0.2,0.8-0.4l0,0c0.2-0.1,0.4-0.2,0.5-0.5c0-0.1-0.1,0.1-0.1,0.1
			s-0.1-0.1,0-0.1c0.9-0.3,1.7-0.7,2.4-1.3c0,0,0,0,0.1,0c0.2-0.1,0.3-0.1,0.5-0.2s0.3-0.3,0.5-0.5c0.1,0.2,0.4,0.1,0.5-0.1
			c0.1-0.1-0.1-0.1,0-0.1c0.1-0.1-0.3,0-0.3-0.1s0-0.1,0.1-0.1s0.2,0.1,0.2,0.1c0.1-0.1,0.2-0.1,0.2-0.1c0.1-0.1,0.1-0.1,0.2-0.1
			c0.4-0.3,0.7-0.6,0.9-1c1.1-0.2,1.9-0.7,2.6-1.7c-1.6-0.2-2.9-0.1-4.4,0.6c-0.2,0-0.5,0.1-0.6,0.2s-0.1,0.1-0.1,0.1
			c-0.1,0.1-0.1,0.1-0.1,0.1c-0.1,0.1-0.1,0.1-0.1,0.1c0,0.1,0.1-0.1,0.1,0s-0.1,0.2-0.1,0.3c-0.5-0.1-1,0-1.5-0.2s-0.9-0.4-1.3,0.1
			c-0.1-0.2-0.6-0.2-0.7-0.2c-0.2,0-0.1,0-0.1,0c-0.1,0,0,0,0,0c-0.2-0.4-0.9,0.2-1,0.3s0,0,0,0c-0.5,0.1-0.8,0.2-1.3,0.1
			c0.1-0.3,0.2-0.7,0.3-1c0.5-0.7,1-1.3,1.5-1.9c0.1,0.2-0.1,0.3,0.2,0.5c1.7-1.5,5.3-3.6,6.7-4.5c0.9-0.5,0.9-0.5,0.9-0.5
			c1.7-0.6,3.9-0.9,3.8-3c-1.9,0.6-3.6,1.1-5.1,2.4c-0.3,0.1-0.6,0.1-0.9,0.2c-0.1,0-0.2,0.1-0.2,0.1c-0.8,0.5-2.4,1.3-3.2,1.5
			c-1.2,0.5-1.3,0.4-1.8,1.4c-2.4,1-4.2,2.7-6.9,2.9c0.7-1,1.5-1.9,2.5-2.6c0.2-0.1,0.3-0.3,0.4-0.3s0-0.1,0.1-0.1
			c0.1-0.1,0-0.1,0-0.1c0.2,0.1,0.5-0.1,0.4-0.3c0-0.2-0.3-0.1-0.4-0.1s-0.1,0-0.1,0s-0.1-0.1,0-0.1c0.2,0,0.5-0.1,0.7-0.1
			c-0.1,0.1-0.1,0.2-0.2,0.2c0.2-0.1,0.5-0.2,0.6-0.4c0,0-0.1,0,0,0c0.3-0.1,0.8-0.5,0.9-0.7s0.1-0.1,0.1-0.1c0.5-0.4,0.9-0.7,1-1.3
			c-0.6,0.1-1,0.2-1.4,0.6c-0.5,0.1-1,0.4-1.4,0.6c-0.6,0.3-1,0.5-1.4,1c-0.9,0.4-1.6,0.7-2.5,0.5c0,0-0.1,0,0,0
			c0.9-0.3,1.5-0.7,2.1-1.5c-0.2-0.1-0.3-0.2-0.5-0.2c3.2-1.5,6.2-3.2,9.2-5c-0.1-0.1-0.2-0.1-0.2-0.2c-0.1-0.1,0-0.1,0.1-0.1
			c1.7-0.2,3.2-0.6,4-2.2c0-0.1,0-0.1,0.1,0c0.9,0.5,1.6,0.2,1.9-0.7c2-0.1,3.6-0.7,5.2-1.7c-0.2,0-0.3-0.1-0.5-0.1
			c3.4-0.8,6.7-1.8,10-2.9c0.2,0.1,0.3-0.1,0.4-0.1c0.1-0.1,0.2-0.1,0.2-0.1c0.6-0.1,1.1-0.2,1.6-0.5c-0.2,0-0.4-0.1-0.6-0.1
			c0.3-0.2,0.5-0.3,0.7-0.5c0.1,0.2,0.2,0.3,0.2,0.5c0.5,0,0.7-0.2,0.8-0.7c3.2,0.5,5.9-0.2,8.9-1c-3-0.5-5.8-0.2-8.8,0.1
			c-0.5,0.1-1.9-0.7-1.9,0.2c-3-0.6-5.9-0.5-8.9-0.2c-1.1-0.1-1.8,0.5-2.7,1.1c-0.7-0.2-1.4-0.1-2.2-0.1c-0.6-0.3-0.9-0.2-1.3,0.3
			c-0.5,0.2-1,0.3-1.5,0.5c-0.1,0-0.1-0.1-0.1,0c0.1,1.7,0.6,2.9,2.4,3c0.2,0.1,0.3,0.1,0.5,0.1c0.1-4.4-4-2.2-6.2-0.7
			c-1.6,0-2.9,0.3-4.3,1c-0.5,0.1-0.7,0.2-1,0.6c-0.5,0.1-0.8,0.1-1.1,0.6c-0.1-0.1-0.3-0.1-0.3,0c-0.1,0,0,0-0.1,0s0,0-0.1,0
			s0,0-0.1,0S87.1,9.7,87,9.8c0,0.1,0,0.1-0.2,0.1s-0.5,0.2-0.6,0.3s-0.1,0.1-0.1,0.1c-0.1,0.1-0.2,0.2-0.3,0.2
			c-0.3,0.2-0.6,0.4-0.8,0.7c-0.4-0.1-0.6-0.1-0.9,0.3c-0.1,0.1,0.1,0.2,0.1,0.2c-1,0.1-1.8,0.5-2.4,1.3c-0.6,0.2-1.2,0.4-0.6,1
			c0.1,0.1,0.3,0.1,0.3,0.2c-0.1,0.1-0.2,0.2-0.3,0.1c-0.1-0.1-0.3-0.2-0.4-0.3s-0.2-0.3-0.4-0.3c-0.2,0-0.5,0.1-0.6,0.3
			s-0.5,0.6-0.7,0.7c-0.2,0.1-0.1,0-0.1,0c-1.3-0.1-2,0.5-2.9,1.4c-0.1,0-0.3,0.1-0.4,0.2s-0.3,0.2-0.3,0.2c-0.1,0.1,0,0.1-0.1,0.1
			c-1,0.7-2.1,0.9-3.3,1.2c-0.1-0.1-0.1-0.1-0.1-0.2c0.5-0.2,0.9-0.6,1.1-1c0.1-0.2,0.2-0.2,0.2-0.3c0.1-0.2-0.1,0.2-0.2,0.1
			c0-0.1-0.1-0.3-0.1-0.4s0.2,0,0.3-0.1c0.1,0.4,0.5,0.2,0.5,0c0-0.1-0.3-0.1-0.3-0.1s1.7-1,2-2.2c0.3-0.2,0.6-0.4,0.9-0.7
			c-0.1,0-0.1-0.1-0.3,0c-0.1,0-0.1,0.1-0.2,0s-0.1-0.2,0.1-0.2c0.1,0,0.1,0,0.2,0.1s0.2,0,0.4,0c0.6-0.1,0.8-0.2,1-0.7
			c1.5-0.9,3.1-1.7,4.5-2.9c1.4-0.6,2.7-1,3.7-2.2c0.2,0,0.3-0.1,0.5-0.1S85.9,7.1,86.1,7s0.3-0.2,0.5-0.2c1.1-0.5,2.4-1.1,3.5-1.7
			c-0.3-1.2-3.7,0.9-4.4,1.2c-0.3,0.1-0.3,0.1-0.4,0.3c0.1-0.1,0.3-0.2,0.4-0.3c-0.1,0.1-0.2,0.3-0.3,0.3c-0.1,0.1-0.1-0.1-0.2-0.1
			c-0.6,0-1.1,0.2-1.7,0.3C84.8,5.9,86,5,87.3,4c-4.8,1.3-8.6,3.5-12.4,6.8l0,0c-1.1,0.2-1.9,0.4-2.3,1.5c-0.6,0.1-1,0.2-0.7,0.8
			c-0.2,0-0.4,0.1-0.5,0.1c-0.2,0,0.1-0.1-0.1-0.1c-0.1-0.1-0.2,0.1-0.3,0.1c-0.1,0.1,0.1,0.1,0.1,0.1c-0.9,0.4-1.4,0.7-1.3,1.7
			c-1.3,0.3-2.3,0.9-3.2,1.9c0.1,0,0.1,0.1,0.1,0.1c-1.1,0.6-1.8,1-2,2.4c-0.5,0.1-1.1,0.9-1.3,1.1c-0.2,0.3-0.1,0.1-0.2,0.2
			c-0.2,0.1-0.3,0.3-0.4,0.4c-0.1,0.1-0.3,0.3-0.3,0.4s0.1,0,0.1,0.1c-0.7,0.7-1.1,1.4-1.5,2.3c-0.1,0-0.3,0.1-0.3,0.2
			s0.2-0.2,0.1-0.1c-0.2,0.1-0.2,0.2-0.3,0.3s-0.3,0.5-0.4,0.6c-0.1,0.2-0.2,0.4-0.3,0.5s-0.1,0.1-0.1,0.1c-1.5,0.6-1.6,1.7-1.4,3.2
			c-0.2,0-0.3,0.1-0.5,0.1c-0.6,1.1-1.3,2.1-1.6,3.4c-0.2,0.2-0.4,0.5-0.5,0.7c0-0.1-0.1-0.2-0.1-0.2c-0.3,0.3-0.6,0.7-0.6,1.1
			c0,0.1-0.1,0.1-0.1,0.1c-0.7,1-1.3,1.9-1.2,3.2c-0.1,0.1-0.1,0.1-0.1,0.2c0,0.1,0.1,0.1,0.1,0.2c-0.6,0.1-0.7,0.5-0.6,1.1
			c0.2,0.1,0.5,0.2,0.6,0.3c-0.3-0.3-0.6,0.1-0.7,0.2c-0.1,0.2,0,0.2,0,0.2c-0.2,0.2-0.2,0.3-0.4,0.6c-0.1-0.3-0.3-0.4-0.3-0.9
			s0.5-1.1-0.1-1.4c0.1-0.1,0.1-0.2,0.2-0.3c0.1-0.1,0.1,0.2,0.2,0.2c0.2-0.2,0.2-0.4-0.1-0.5h-0.1c0.5-0.6,0.7-1.1,0.6-1.9
			c0.2,0,0.3,0,0.4-0.1c0.1-0.1,0.1-0.5-0.1-0.6c-0.1-0.1,0-0.1,0.1-0.2c0.5-1.3,0.5-2.6-1.2-2.5c-0.3,0-0.3,0.6-0.5,0.8
			c-0.1-0.1-0.2-0.1-0.2-0.2c0-0.1,0.1,0,0.1-0.2c0.7-1.7,1.3-3.4,1.7-5.2c0.7-1.3,1.4-2.6,1.8-4c-1.1,0.4-1.5,1-1.8,2.1
			c-0.6,0.2-0.9,0.6-1.4,1.1c-0.2,0.3-0.5,1-0.8,1.2c-1.5,1.4-2.9,3.8-2.8,5.7c0.1,1.3,0.3,0.2,0.1,0.5c-0.2,0.2-0.5,0.1-0.6,0.3
			s-0.1,0.2-0.1,0.4c-0.3,0.3-0.4,0.6-0.4,1.1c-0.3,0.4-0.5,0.7-0.3,1.1c-0.5,0.5-0.6,0.9-0.6,1.6c-0.6,0.1-0.7,1-0.8,1.3
			s0,0.2-0.1,0.2c-0.1,0.1,0,0.1,0,0.1c-1.6,1.9-2.5,5-2.5,7.1c0,1,0.1,0.2,0.1,0.6c0,0.4,0.1,0,0,0.2s-0.1,0.3,0,0.4
			c0,0.1-0.1-0.1-0.1,0c-0.4,1.1-0.7,2.2-0.6,3.5c0,0.1-0.1,0.1-0.1,0.1c-0.2,0.5-0.2,1-0.1,1.5c-0.5,2.6-0.6,5.1-0.2,7.8
			c-0.2,1-0.1,1.8,0.5,2.7c-0.1,0-0.1,0.2-0.2,0.1c-0.1-0.1-0.2-0.2-0.3-0.3c-0.2,1.7-0.2,3.3,0.5,5c0,0.3,0.1,0.5,0.2,0.8h-0.1
			c-0.2,0.2,0.1,0.7,0.2,0.8c0.1,0.1,0,0,0.1,0.1s0.3,0.2,0.5,0.1c0,0-0.1-0.1,0-0.1c0.1,0.1,0.2-0.1,0.3-0.2s0.1,0,0.1-0.1
			c0.1,2.1,0.6,4,1.3,6c0,0.6,0.1,1.2,0.3,1.8c-0.1-0.5-0.3-1-0.7-1.2c-0.1-0.1-0.1,0-0.1-0.1c-0.3-0.3-0.3-0.7-0.6-1.1
			c-0.1,0.6,0,0.9,0.6,1.1c-0.2,2.6,0.9,4.4,2.4,6.4c0,0.1-0.1-0.1-0.1,0c0.1,0.1,0.2,0.2,0.2,0.3c0.2,0.3,0.3,0.6,0.5,0.9
			c0,0.1,0.1,0,0.1,0c-0.1,0.3-0.1,0.6,0.2,0.7c0.1,0,0,0.1,0,0.1c0.3,1.1,0.9,2.2,1.5,3.2l-0.1,0.1c0.1,0.5,0.2,0.9,0.6,1.2
			c0.1,0.5,0.3,1,0.6,1.3s0.6,0.5,0.9,0.7c-0.9,0.3,0.1,0.7,0.5,1c0.1,1.8,1,2.8,2.2,3.9c0.3,0.6,0.6,1,1.3,1.3
			c0.4,0.5,0.9,1,1.3,1.4c0.1,0.1-0.2,0-0.1,0.1c0.3,0.1,0.7,0.2,1,0.3c-0.2,0.1-0.3,0.2-0.5,0.3c0.9,1,1.8,1.9,2.9,2.6
			c0.6,0.7,1.1,1.1,2.1,1.4c0,0.1-0.1,0.1-0.1,0.2s0.1,0.1,0.1,0.1c0,0.1-0.1-0.2-0.1-0.1s0.2,0.2,0.3,0.3c0.1,0-0.1-0.1-0.1-0.1
			c0.3,0.3,0.7,0.5,1,0.8c-0.1,0.2-0.2,0.2-0.2,0.4c0.1,0.2,0.2,0.3,0.5,0.2c0.4,1.3,1.1,1.8,2.4,2c0.1,0.1-0.1,0.2,0.1,0.3
			c0.2,0.1,0.5,0,0.6-0.2c0.5,1.1,1.2,1.7,2.4,2.2c0.9,0.8,1.9,1.4,3.1,1.8c-0.1,0.1-0.1,0.1-0.1,0.1c1.1,1,1.9,1.8,3.4,1.5
			c0.1,0,0.1-0.1,0.2,0c0.4,0.3,1.1,0.9,1.4,1.2c0.3,0.3,0,0.2,0.2,0.2c0.3,0.7,0.9,1,1.4,0.3c0.7,0.9,1.4,1.3,2.5,1.5
			c0.1,0,0.2,0,0.2,0.1c0.5,0.3,0.9,0.5,1.3,0c0,0,0-0.1,0,0c1.4,1.5,2.6,1.6,4.6,2.1c0.6,0.2,2.1,0.9,2.9,0.9
			c0.9,0.4,1.5,0.6,2.5,0.3c-0.7-0.3-1.3-0.6-2.1-0.6c-0.1-0.1-0.1-0.2-0.1-0.3c-0.1-0.1-0.2-0.1-0.2-0.1c0.5,0,0.9,0,1.4,0.1
			c0.7,0.5,1.3,0.6,2.1,0.3c0.7,0.3,1.5,0.4,2.3,0.3c0.1,0,0-0.2,0.1-0.2s0.2,0.1,0.3,0.1c0.3,0.7,2,0.6,2.4,0.6s0.1-0.1,0.2-0.1
			s0.2-0.1,0.4-0.1c0.1,0,0,0.1,0,0.1c0.3,0.1,0.6,0.1,0.7-0.3c0,0,0-0.1,0.1,0c1.1,0.6,1.8,0.2,2.9-0.3c1.5,1.3,5.2,0.6,6.5,0.5
			c2.5-0.2,2.9-0.1,4.9-1.1c0.2,0.1,0.6,0.1,0.9,0.1c-0.2,0.2-0.5,0.3-0.7,0.5c2.3-0.2,4.1-0.6,6.5-1.1c2-0.5,4.4-0.9,6.1-2.5
			c0.1,0,0.2,0.1,0.2,0.1s0-0.1,0.1-0.1c0.3-0.1,0.5,0,0.7,0.1c1.2-0.3,2.2-0.5,2.5-1.9c0.1,0.2,0.2,0.4,0.2,0.6
			c0.9-0.2,1.5-0.3,2-1.1c0.1,0,0.3-0.1,0.4-0.1c2.2-1.1,4.1-2.5,6-4.1c0.1,0.1,0.2,0.2,0.3,0.2c2.9-1,4.8-2.6,6.5-5.1
			c0.7-0.6,1.5-1.3,2.1-2c0,0,0,0.1,0.1,0c0.9-1.2,1.8-2.4,2.8-3.6c0.3-0.3,0.5-0.6,0.7-1h-0.1c0.1-0.2,0.2-0.5,0.3-0.7
			s0.1,0,0.2-0.1c0.3-0.2,0.3-0.5,0.5-0.9c-0.6-0.3-1,0-1,0.7c-0.2,0.1-0.5,0.1-0.6,0.2c0,0,0,0.1-0.1,0.1c0,0,0.1,0,0,0
			s-0.3,0.2-0.3,0.3s-0.1,0.1-0.1,0.1c-0.1,0.1-0.2,0.2-0.3,0.3c-0.9,0.8-1.6,1.2-2.8,1c-1.4-0.7-2.3,0.6-3.2,1.5
			c-0.2,0.2-0.5,0.4-0.7,0.6s-0.6,0.5-0.8,0.7c0,0,0.1-0.1,0,0s-0.2,0.1-0.3,0.2s0.1,0,0.1,0.1c-0.3,0.2-0.5,0.5-0.9,0.6
			c-0.6,0.2-1.1,0.3-1.7,0.5c0.3-0.3,0.5-0.6,0.6-1c0.5-0.4,0.9-0.8,1.2-1.3c-0.1-0.2-0.2-0.3-0.3-0.5c0.6-0.1,1.4-0.1,1.1-0.9
			c2-1.1,3.4-2.4,4.6-4.3c0,0.1,0,0.2,0,0.3c0.6-0.5,0.9-0.9,0.9-1.6c0.9-0.3,1.4-0.7,1.8-1.7c0.6-0.6,1-1,0.9-1.9
			c0.1-0.1,0.2-0.1,0.3-0.2s0.1-0.2,0.2-0.3c0.1-0.1,0.1,0,0.1,0c0.1,0-0.1,0,0.1-0.1s0.3-0.2,0.3-0.3c0.1-0.1-0.1,0-0.1,0
			c0.6-0.7,1.1-1.3,1-2.2c2-1.6,2.6-3.6,3.4-6c-2.4,1-3,3.8-4.1,5.9c-0.4,0.7-1.1,1.4-1.3,2.2c-0.4,0.1-0.6,0.3-0.9,0.6
			c-0.1,0.1-0.2,0.1-0.2,0.1c0.6-0.9,1.1-1.6,1.1-2.8c0.1,0,0.1,0.1,0.2,0.1c0.7-0.9,1.2-1.8,1.7-2.8c0.2-0.5,0.5-0.7,0.4-1.3
			c0.1,0.1,0.1,0.1,0.2,0.1c0.6-1.1,1.4-2.2,1.7-3.6c0.3-0.2,0.6-0.3,0.9-0.4c0.1-0.3,0-0.5-0.1-0.7c0.5-0.6,0.7-1.1,0.5-1.8
			c-0.3,0.3-0.6,0.5-0.9,0.7c0.9-1.3,1.3-2.6,1.4-4.2c0.3-1.1,0.4-2.2,0.3-3.4c0.1,0,0.2,0.1,0.2,0.1c0.3-1.1,0.4-2.2,0-3.3
			c-0.8,0.8-1.1,1.5-1,2.6c-0.8,0.2-1.4,0.6-2,1.1l0,0v-0.1l0.6-3.9c0.1-0.3,0.1-0.7,0-1c-1.3,0.5-1.4,1.7-2,2.8l0,0
			c-2.5,0.7-2.6,2.9-3.2,5.1c-0.6,0.3-1.3,1.7-1.4,2.2c-0.1,0.5-0.1,0.3-0.1,0.4c-0.9,1.3-1.7,1.4-3.2,1.5c-0.4,0.3-0.7,0.6-0.9,1
			c-0.1,0.1-0.1-0.1-0.1-0.1c-0.3,0.1-0.5,0.3-0.6,0.6c-1.5-0.5-2.5,0.4-3.7,1.4c0-0.1,0.1-0.2,0.1-0.3c-1.1,0.9-2,1.6-2.2,3.1
			c-0.6,0.5-1.5,0.9-1.9,0.2c-0.2-0.3,0.1-0.2-0.1-0.2c0.7-1,1.7-2,0.6-3c-0.8,0.7-1.4,1.3-1.6,2.3c-0.1-0.1-0.3-0.1-0.5-0.1
			c-0.6-0.1-0.7-0.2-0.7-0.8c-0.2,0.1-0.3,0.2-0.5,0.2s0-0.2-0.1-0.2c0.9-0.5,1.4-1,1.7-1.9c-0.1-0.1-0.3-0.2-0.4-0.2
			c0.5-0.4,0.9-0.8,1.3-1.4c0,0.1,0.1,0.1,0.1,0.2c0.5-0.9,0.9-1.5,0.5-2.5c0.2-0.1,0.3-0.2,0.5-0.2c0.1-2.4-1.7-0.4-2.5,0.5
			c0,0,0.1,0,0,0.1s-0.2,0.1-0.3,0.2c0.5-0.9,0.4-2.1-0.5-1.3c-0.5,0.5-0.2,0.3-0.3,0.4s0,0.1-0.1,0.1c-0.1,0.1,0,0,0,0.1
			c-0.2,0.3-0.4,0.5-0.6,0.8c-0.1,0.1-0.1,0.2-0.1,0.2s-0.1,0.3-0.2,0.4c0,0.1,0,0,0,0c-0.4,0.4-0.7,0.9-0.9,1.4
			c0,0.1,0.1,0,0.1,0.1s-0.2,0.2-0.2,0.2c-0.1,0,0.2-0.2,0.1-0.2c-0.1,0-0.4,0.2-0.4,0.4s0.1-0.1,0.1,0s-0.1,0.1-0.1,0.1l0,0
			c-0.2-0.1-0.4,0.3-0.5,0.4c0,0.1,0,0.1,0,0.1l0,0c0,0,0,0-0.1,0c0,0,0.1-0.1,0,0s-0.3,0.2-0.4,0.3c-0.1,0.1-0.4,0.4-0.5,0.5
			s-0.1,0.1-0.1,0.1c-0.1,0.1,0.1-0.1,0,0S129,80,129,80.1c-0.1,0.1-0.2,0.1-0.2,0.1c-0.1-0.1,0.1-0.2-0.1-0.2s-0.3,0.2-0.4,0.3
			s0.1,0.1,0.1,0.1c-0.9,0.5-1.5,1-1.9,2c-0.1-0.1-0.1-0.1-0.2-0.1c-1,0.6-2,1.3-2.9,2.2c-0.1,0.1-0.2,0-0.3,0.1
			c-0.6,0.6,0.1,0.5,0.6,0.4c-3.2,1.3-6.6,2.6-9.7,3.8c-0.6,0.2-0.4,0.2-0.9,0.4c-1-0.2-1.6,0.1-2.4,0.6c-0.2-0.2-0.4-0.3-0.6-0.5
			c-3-0.1-6-0.2-8.9-0.1c-2.6-0.3-4.9-0.4-7.3-1.5c-1.7-0.7-3.1-1.5-4.8-0.4H89c0.1-0.1-0.7,0.3-0.7,0.3s-0.2,0-0.1-0.1
			s0.7-0.2,0.8-0.3s0.4-0.5,0.1-0.5c0.2-0.3,0.3-0.5,0.5-0.8l0,0h-0.1c-1-0.6-2.1-1.1-3.2-1.7c-0.2-0.5-1.1-1-1.4-1.1
			S84.7,83,84.6,83c-0.7-0.5-1.2-0.6-1.9-0.4l0,0c0.2-0.5,0.2-0.7-0.2-1c0.1-0.1,0.2-0.2,0.3-0.2c-0.7-1-1.5-1.8-2.6-2.4
			c0.3-1.2-0.4-1.8-1.2-2.7c-0.1-0.1-0.2-0.2-0.2-0.3c-0.1,0,0-0.1-0.1-0.1s-0.1,0.2-0.2,0.1c0.7-0.3-0.4-1.7-0.5-1.9
			c-0.1-0.2-0.1,0-0.1-0.1c-0.1-0.1,0.2,0.3,0.1,0.1s-0.1-0.5-0.2-0.6s-0.1,0-0.1,0c0-0.3-0.1-0.6-0.2-0.9c-0.2-0.6-0.5-1.1-0.7-1.7
			c0.1,0,0.1,0.1,0.1,0.1c-0.1-1-0.3-1.6-1.2-2c0.1-0.3,0.1-0.5,0.1-0.8c0.1,0.1,0.3,0.1,0.4,0.2c0-0.4-0.1-0.8-0.3-1.1
			c0-0.1-0.1,0.2-0.2,0C76.9,67.1,75,64.1,74.5,63.7z M85.4,11.5L85.4,11.5C85.4,11.6,85.4,11.6,85.4,11.5L85.4,11.5z M88.1,12.6
			L88.1,12.6L88.1,12.6L88.1,12.6z M44.6,69.1L44.6,69.1L44.6,69.1L44.6,69.1z M50.9,33.3L50.9,33.3L50.9,33.3L50.9,33.3z
			 M59.8,25.5L59.8,25.5C59.8,25.6,59.8,25.5,59.8,25.5L59.8,25.5z M85.2,86.2C85.2,86.2,85.3,86.2,85.2,86.2
			C85.3,86.2,85.3,86.2,85.2,86.2C85.3,86.2,85.2,86.2,85.2,86.2z M156.7,82.9L156.7,82.9L156.7,82.9L156.7,82.9z M164.1,70
			c-0.6,1.1-0.9,2.4-1.3,3.7C164.1,72.7,164.3,71.6,164.1,70z M160.9,70.9c-0.5,0.9-0.9,1.8-1.1,2.8C161,73.6,160.9,71.8,160.9,70.9
			z M81,40.2c-0.1,0.2-0.2,0.3-0.3,0.5C80.8,40.5,80.9,40.4,81,40.2z M105.3,16.8c-0.6-0.2-0.9-0.1-1.1,0.6
			C104.6,17.2,104.9,17,105.3,16.8z M166.1,70.5c-0.5,1.4-1,2.9-1.3,4.4c-0.2,0.7-0.2,1.4-0.5,1.9c-0.1,0.2-0.1,0.1-0.1,0.2
			c-0.2,0.2-0.6,0.6-0.2,0.7c0.4,0.2,0.6-0.4,0.5-0.7c0.5-0.6,0.6-1.1,0.4-1.8C166.3,73.7,166.2,72.2,166.1,70.5z M98.3,19.6
			c2-0.6,4-1.4,5.9-2.2C101.7,17,100.2,18.1,98.3,19.6z"/>
		<path class="st0" d="M155,68.3c0,0,0.4-3.4,0.3-6.4c0-0.2,0-0.2,0-0.4c0-0.1,0,0.1,0.1,0c0.3-0.9,0.3-1.8,0.3-2.8
			c0.6,0.2,0.9,0.7,1,1.3s0.3,1.1-0.2,1.4c-0.5-1.5,0.3,1.1,0.3,1.5c-0.1,0.5-0.2,1.3-0.1,1.8c-0.1-0.1-0.1-0.2-0.1-0.3
			c-0.3,0.7-0.7,1.4-1,2.2L155,68.3z"/>
		<path class="st0" d="M89.8,3.4c0.8-0.2,1.5-0.5,2.4-0.7c0.5-0.2,0.9-0.3,1.3-0.5C94,2,94.6,1.8,95.1,1.6c0.6-0.2,1.3-0.5,1.9-0.7
			c0.7-0.3,1.3-0.6,2-0.9c-1.1,0.2-2.2,0.4-3.3,0.7c-1,0.3-1.9,0.6-2.8,1.1C91.8,2.2,90.8,2.8,89.8,3.4z"/>
		<path class="st0" d="M132.4,12.5c-1-0.5-1.7-0.6-2.9-0.1C130.4,13,131.2,13,132.4,12.5z"/>
		<path class="st0" d="M109.9,15.1c1.2,0.4,1.9,0.1,2.9-0.6C111.6,14.3,110.8,14.4,109.9,15.1z"/>
		<path class="st0" d="M162.7,62.1C162.8,62,162.7,62.1,162.7,62.1C162.8,62.1,162.7,62.1,162.7,62.1
			C162.7,62.2,162.8,62.2,162.7,62.1c-0.7,0.9-0.4,1.6,0.1,2.5c0.1-0.5,0-1,0.1-1.4c0.1-0.5,0.2-0.7,0.1-1.1
			c-0.1-0.5-0.1-1.4-0.1-1.8c-0.1-0.3,0-0.2,0-0.2c0.1-0.7-0.2-2-0.3-2.5c-0.3-1.1-0.4,4-0.3,4.7C162.5,62.2,162.6,62.1,162.7,62.1z
			"/>
	</g>
</g>
</svg>
