<svg width="33" height="32" viewBox="0 0 33 32" fill="none" xmlns="http://www.w3.org/2000/svg">
<path fill-rule="evenodd" clip-rule="evenodd" d="M16.7443 4C12.6942 4 9.41093 7.28325 9.41093 11.3333V14H8.74426C6.53512 14 4.74426 15.7909 4.74426 18V25.3334C4.74426 27.5425 6.53512 29.3334 8.74426 29.3334H24.7443C26.9534 29.3334 28.7443 27.5425 28.7443 25.3334V18C28.7443 15.7909 26.9534 14 24.7443 14H24.0776V11.3333C24.0776 7.28325 20.7944 4 16.7443 4ZM12.7443 11.3333V14H20.7443V11.3333C20.7443 9.12419 18.9534 7.33333 16.7443 7.33333C14.5351 7.33333 12.7443 9.12419 12.7443 11.3333ZM10.7443 23.3333C11.8488 23.3333 12.7443 22.4379 12.7443 21.3333C12.7443 20.2288 11.8488 19.3333 10.7443 19.3333C9.63969 19.3333 8.74426 20.2288 8.74426 21.3333C8.74426 22.4379 9.63969 23.3333 10.7443 23.3333ZM16.7443 23.3333C17.8488 23.3333 18.7443 22.4379 18.7443 21.3333C18.7443 20.2288 17.8488 19.3333 16.7443 19.3333C15.6397 19.3333 14.7443 20.2288 14.7443 21.3333C14.7443 22.4379 15.6397 23.3333 16.7443 23.3333ZM24.7443 21.3333C24.7443 22.4379 23.8488 23.3333 22.7443 23.3333C21.6397 23.3333 20.7443 22.4379 20.7443 21.3333C20.7443 20.2288 21.6397 19.3333 22.7443 19.3333C23.8488 19.3333 24.7443 20.2288 24.7443 21.3333Z" fill="#052F69"/>
</svg>
