<svg width="33" height="32" viewBox="0 0 33 32" fill="none" xmlns="http://www.w3.org/2000/svg">
<path fill-rule="evenodd" clip-rule="evenodd" d="M15.9693 5.58158C16.4329 5.25043 17.0557 5.25043 17.5193 5.58158L26.8526 12.2482C27.203 12.4985 27.411 12.9026 27.411 13.3332V25.3332C27.411 26.0696 26.814 26.6666 26.0776 26.6666H22.5905C20.8345 26.6666 19.411 25.243 19.411 23.4871V21.3334C19.411 19.8606 18.2171 18.6667 16.7443 18.6667C15.2715 18.6667 14.0776 19.8606 14.0776 21.3334V23.4871C14.0776 25.243 12.6541 26.6666 10.8982 26.6666H7.41097C6.67459 26.6666 6.07764 26.0696 6.07764 25.3332V13.3332C6.07764 12.9026 6.28559 12.4985 6.63599 12.2482L15.9693 5.58158Z" fill="#052F69"/>
</svg>
