<svg width="1024" height="1024" viewBox="0 0 1024 1024" fill="none" xmlns="http://www.w3.org/2000/svg">
<rect width="1024" height="1024" rx="200" fill="#1C305C"/>
<path d="M373.609 799.639C359.075 799.639 346.802 793.513 339.051 783.516C395.248 758.364 419.147 744.498 419.147 723.86C419.147 707.737 403.645 693.226 376.838 693.226C342.281 693.226 311.599 717.411 311.599 755.462C311.599 790.933 337.759 817.698 373.609 817.698C395.571 817.698 414.949 806.089 426.575 791.578L413.011 779.647C403.322 790.933 390.08 799.639 373.609 799.639ZM330.008 755.139C330.008 726.762 352.616 709.994 377.484 709.994C393.956 709.994 399.769 716.766 399.769 723.215C399.769 736.114 380.714 747.078 331.946 768.36C330.977 764.491 330.008 759.976 330.008 755.139ZM239.254 799.639C213.74 799.639 194.685 780.614 194.685 755.462C194.685 730.632 213.74 711.284 238.285 711.284C250.558 711.284 261.539 716.121 269.613 724.505L282.532 711.606C271.551 700.643 255.725 693.548 238.608 693.548C203.728 693.548 176.275 721.28 176.275 755.462C176.275 790.288 203.405 817.698 239.577 817.698C257.017 817.698 272.843 810.926 284.147 799.639L271.228 786.741C262.831 794.48 251.527 799.639 239.254 799.639ZM565.775 731.599C559.638 710.961 542.521 693.226 512.808 693.226C483.095 693.226 466.3 710.961 459.841 731.599C457.903 738.371 456.611 748.69 456.611 760.621V814.15H475.021V762.233C475.021 750.947 475.344 743.853 477.281 737.081C481.48 723.215 491.492 711.284 512.162 711.284C532.832 711.284 543.167 723.538 547.042 737.081C548.98 744.175 549.303 750.947 549.303 762.233V814.15H567.712V760.621C569.004 748.69 568.035 738.693 565.775 731.599ZM785.393 693.226C750.512 693.226 723.06 720.958 723.06 755.462C723.06 789.965 750.512 817.698 785.393 817.698C820.273 817.698 847.725 789.965 847.725 755.462C847.725 720.958 820.596 693.226 785.393 693.226ZM785.393 799.639C760.847 799.639 741.792 779.969 741.792 755.462C741.792 730.632 760.847 711.284 785.393 711.284C809.938 711.284 828.993 730.954 828.993 755.462C829.316 779.969 809.938 799.639 785.393 799.639ZM652.976 746.433C626.815 740.628 622.94 736.114 622.94 727.085C622.94 719.023 630.045 710.961 645.548 710.961C662.342 710.961 671.385 717.733 677.521 722.57L689.471 708.382C681.72 702.255 667.832 692.903 645.871 692.903C622.294 692.903 604.531 707.092 604.531 727.407C604.531 748.367 619.064 757.396 644.579 763.201C666.217 768.038 674.615 771.262 674.615 781.904C674.615 792.868 663.957 799.317 650.715 799.317C634.567 799.317 622.94 792.868 612.605 783.839L600.009 797.382C621.648 816.085 641.026 817.053 650.392 817.053C670.093 817.053 693.024 806.734 693.024 781.581C693.347 758.041 672.354 750.625 652.976 746.433Z" fill="#47F7F7"/>
<path d="M683.98 479.753C684.626 479.431 684.949 479.108 684.626 478.141C684.303 478.786 684.303 479.108 683.98 479.753ZM677.198 491.685C680.428 488.137 682.365 484.268 683.98 479.753C681.074 483.3 678.813 486.848 677.198 491.685ZM674.291 508.775C673.968 509.42 673.645 509.743 673.322 510.065C672.999 510.388 672.999 510.388 672.999 510.388C672.353 510.71 671.385 512.322 672.676 512C672.999 511.677 673.322 511.355 673.645 511.355C673.968 511.033 674.614 510.71 674.614 510.065C676.875 508.775 677.844 507.163 678.167 504.906C676.875 505.551 675.583 506.84 674.291 508.775ZM580.954 245.966C577.724 242.741 574.171 243.709 569.973 244.031C570.296 244.998 570.942 245.966 571.91 246.933C570.942 246.611 569.65 246.611 568.358 246.933C569.004 247.901 569.973 248.546 571.265 248.546C572.233 248.868 573.202 248.223 574.171 247.901C576.432 248.223 578.37 248.223 580.308 247.578C580.631 247.578 580.631 247.256 580.954 247.256C581.277 247.256 581.6 247.578 581.922 247.578C582.568 247.578 583.537 247.256 584.183 247.256C585.475 247.578 586.444 247.578 587.09 246.288C586.121 245.966 585.152 246.611 584.183 246.288C583.214 245.966 582.245 245.643 580.954 245.966ZM576.109 236.292C572.879 235.647 569.973 236.614 566.42 237.259C569.973 237.904 573.202 237.582 576.755 236.937C579.662 236.614 582.245 236.937 584.829 236.292C582.245 235.324 579.339 234.68 576.109 236.292ZM436.587 337.224C436.264 337.869 435.941 338.191 435.295 338.836C435.941 338.513 436.587 338.191 436.587 337.224ZM560.607 249.835C562.544 249.835 564.159 249.513 566.097 249.513C564.805 248.868 559.961 246.288 560.607 249.835ZM545.75 243.386C546.396 243.064 547.688 243.064 548.011 243.064C548.334 243.064 548.334 243.064 548.334 243.064C550.595 242.741 552.532 242.096 554.147 240.484C551.241 240.161 548.011 240.161 545.104 240.484C544.781 240.484 544.781 240.161 544.458 240.161C544.135 240.161 544.135 240.161 544.135 240.161C543.812 239.517 543.489 239.194 542.52 239.194C541.874 239.517 542.843 239.839 542.197 239.839C541.874 240.161 541.229 239.839 540.583 239.517C540.26 239.517 540.906 238.872 540.906 238.872C538.968 238.549 537.03 239.194 535.092 239.517C533.154 240.161 530.894 240.484 528.956 241.451C528.633 241.451 527.341 241.774 527.341 242.096C527.018 242.419 527.987 241.774 527.987 242.096C527.987 242.419 527.664 242.741 527.664 243.064C518.298 244.353 505.056 244.353 501.826 254.672C512.161 250.803 522.496 247.256 533.154 245.643C535.738 245.321 538.322 244.676 540.906 244.031C543.166 244.353 544.781 244.353 545.75 243.386ZM416.886 411.713L415.917 411.068C417.532 409.778 418.178 408.811 416.563 407.521C418.178 402.362 418.501 397.202 418.501 391.72C418.501 389.785 418.178 388.173 418.824 386.238C418.824 385.916 419.147 386.561 419.147 386.561C420.116 385.271 420.439 383.981 420.116 382.369C421.085 379.467 421.73 376.887 420.762 373.985C424.637 370.76 426.252 367.858 424.314 362.698C427.221 360.441 428.836 357.861 429.482 354.314C430.774 352.702 431.42 351.735 430.451 349.8C430.451 349.477 430.774 349.8 430.774 349.8C431.097 349.155 431.097 348.832 430.774 348.187C432.388 347.22 431.742 346.253 430.774 345.285C431.42 344.963 432.388 344.64 433.034 344.318C434.649 342.705 434.649 341.093 434.326 338.836C435.941 339.158 437.556 336.579 437.556 335.934C437.879 335.289 437.879 335.289 437.879 335.289C438.848 332.387 439.817 329.484 440.786 326.905C440.786 326.582 441.432 326.582 441.432 326.582C442.4 325.937 443.046 324.97 443.369 323.68C443.369 323.358 443.692 323.68 444.015 323.358C446.599 321.423 448.214 318.843 449.829 316.263C450.152 316.263 450.475 316.586 450.798 316.263C451.766 315.618 453.704 313.039 454.35 312.394C454.996 311.749 454.673 312.071 454.996 311.749C455.965 310.781 455.965 310.136 456.288 309.169C456.611 308.847 456.934 309.169 456.934 309.169C458.549 308.202 459.841 307.234 460.164 305.622C460.81 304.977 461.133 304.655 461.456 303.687C462.424 303.365 463.393 303.365 463.07 302.075C464.039 301.752 465.008 301.43 465.654 300.785C466.3 300.463 466.946 300.14 467.269 299.173C467.269 298.85 466.946 299.495 466.946 299.495C466.946 299.495 466.623 299.173 466.946 299.173C469.853 298.205 472.436 296.915 474.697 294.981C474.697 294.981 474.697 294.981 475.02 294.981C475.666 294.658 475.989 294.658 476.635 294.336C477.281 294.013 477.604 293.368 478.25 292.723C478.573 293.368 479.542 293.046 479.865 292.401C480.188 292.078 479.542 292.078 479.865 292.078C480.188 291.756 478.896 292.078 478.896 291.756C478.896 291.433 478.896 291.433 479.219 291.433C479.542 291.433 479.865 291.756 479.865 291.756C480.188 291.433 480.511 291.433 480.511 291.433C480.834 291.111 480.834 291.111 481.157 291.111C482.448 290.144 483.417 289.176 484.063 287.886C487.616 287.241 490.2 285.629 492.46 282.404C487.293 281.76 483.094 282.082 478.25 284.339C477.604 284.339 476.635 284.662 476.312 284.984C475.989 285.307 475.989 285.307 475.989 285.307C475.666 285.629 475.666 285.629 475.666 285.629C475.343 285.952 475.343 285.952 475.343 285.952C475.343 286.274 475.666 285.629 475.666 285.952C475.666 286.274 475.343 286.596 475.343 286.919C473.728 286.596 472.113 286.919 470.499 286.274C468.884 285.629 467.592 284.984 466.3 286.596C465.977 285.952 464.362 285.952 464.039 285.952C463.393 285.952 463.716 285.952 463.716 285.952C463.07 284.662 460.81 286.596 460.487 286.919C458.872 287.241 457.903 287.564 456.288 287.241C456.611 286.274 456.934 284.984 457.257 284.017C458.872 281.76 460.487 279.825 462.101 277.89C462.424 278.535 461.778 278.857 462.747 279.502C468.238 274.665 479.865 267.893 484.386 264.991C487.293 263.379 487.293 263.379 487.293 263.379C492.783 261.444 499.889 260.477 499.566 253.705C493.429 255.64 487.939 257.252 483.094 261.444C482.125 261.767 481.157 261.767 480.188 262.089C479.865 262.089 479.542 262.412 479.542 262.412C476.958 264.024 471.79 266.604 469.207 267.249C465.331 268.861 465.008 268.538 463.393 271.763C455.642 274.988 449.829 280.47 441.109 281.115C443.369 277.89 445.953 274.988 449.183 272.73C449.829 272.408 450.152 271.763 450.475 271.763C450.798 271.763 450.475 271.441 450.798 271.441C451.121 271.118 450.798 271.118 450.798 271.118C451.444 271.441 452.412 270.796 452.089 270.151C452.089 269.506 451.121 269.828 450.798 269.828C450.475 269.828 450.475 269.828 450.475 269.828C450.475 269.828 450.152 269.506 450.475 269.506C451.121 269.506 452.089 269.183 452.735 269.183C452.412 269.506 452.412 269.828 452.089 269.828C452.735 269.506 453.704 269.183 454.027 268.538C454.996 268.216 456.611 266.926 456.934 266.281C457.257 265.636 457.257 265.959 457.257 265.959C458.872 264.669 460.164 263.701 460.487 261.767C458.549 262.089 457.257 262.412 455.965 263.701C454.35 264.024 452.735 264.991 451.444 265.636C449.506 266.604 448.214 267.249 446.922 268.861C444.015 270.151 441.754 271.118 438.848 270.473C441.754 269.506 443.692 268.216 445.63 265.636C444.984 265.314 444.661 264.991 444.015 264.991C454.35 260.154 464.039 254.672 473.728 248.868C473.405 248.546 473.082 248.546 473.082 248.223C472.759 247.901 473.082 247.901 473.405 247.901C478.896 247.256 483.74 245.966 486.324 240.806C486.324 240.484 486.324 240.484 486.647 240.806C489.554 242.419 491.814 241.451 492.783 238.549C499.243 238.227 504.41 236.292 509.578 233.067C508.932 233.067 508.609 232.745 507.963 232.745C518.944 230.165 529.602 226.94 540.26 223.393C540.906 223.716 541.229 223.071 541.552 223.071C541.874 222.748 542.197 222.748 542.197 222.748C544.135 222.426 545.75 222.103 547.365 221.136C546.719 221.136 546.073 220.814 545.427 220.814C546.396 220.169 547.042 219.846 547.688 219.201C548.011 219.846 548.334 220.169 548.334 220.814C549.949 220.814 550.595 220.169 550.918 218.556C561.253 220.169 569.973 217.911 579.662 215.332C569.973 213.719 560.93 214.687 551.241 215.654C549.626 215.977 545.104 213.397 545.104 216.299C535.415 214.364 526.049 214.687 516.36 215.654C512.807 215.332 510.547 217.266 507.64 219.201C505.379 218.556 503.118 218.879 500.535 218.879C498.597 217.911 497.628 218.234 496.336 219.846C494.721 220.491 493.106 220.814 491.492 221.458C491.169 221.458 491.169 221.136 491.169 221.458C491.492 226.94 493.106 230.81 498.92 231.132C499.566 231.455 499.889 231.455 500.535 231.455C500.858 217.266 487.616 224.361 480.511 229.198C475.343 229.198 471.145 230.165 466.623 232.422C465.008 232.745 464.362 233.067 463.393 234.357C461.778 234.68 460.81 234.68 459.841 236.292C459.518 235.969 458.872 235.969 458.872 236.292C458.549 236.292 458.872 236.292 458.549 236.292C458.226 236.292 458.549 236.292 458.226 236.292C457.903 236.292 458.226 236.292 457.903 236.292C457.58 236.292 457.58 237.582 457.257 237.904C457.257 238.227 457.257 238.227 456.611 238.227C455.965 238.227 454.996 238.872 454.673 239.194C454.35 239.517 454.35 239.517 454.35 239.517C454.027 239.839 453.704 240.161 453.381 240.161C452.412 240.806 451.444 241.451 450.798 242.419C449.506 242.096 448.86 242.096 447.891 243.386C447.568 243.709 448.214 244.031 448.214 244.031C444.984 244.353 442.4 245.643 440.463 248.223C438.525 248.868 436.587 249.513 438.525 251.448C438.848 251.77 439.494 251.77 439.494 252.093C439.171 252.415 438.848 252.738 438.525 252.415C438.202 252.093 437.556 251.77 437.233 251.448C436.91 251.125 436.587 250.48 435.941 250.48C435.295 250.48 434.326 250.803 434.003 251.448C433.68 252.093 432.388 253.383 431.742 253.705C431.097 254.027 431.42 253.705 431.42 253.705C427.221 253.383 424.96 255.317 422.053 258.22C421.73 258.22 421.085 258.542 420.762 258.864C420.439 259.187 419.793 259.509 419.793 259.509C419.47 259.832 419.793 259.832 419.47 259.832C416.24 262.089 412.687 262.734 408.812 263.701C408.489 263.379 408.489 263.379 408.489 263.056C410.104 262.412 411.396 261.122 412.041 259.832C412.364 259.187 412.687 259.187 412.687 258.864C413.01 258.22 412.364 259.509 412.041 259.187C412.041 258.864 411.718 258.22 411.718 257.897C411.718 257.575 412.364 257.897 412.687 257.575C413.01 258.864 414.302 258.22 414.302 257.575C414.302 257.252 413.333 257.252 413.333 257.252C413.333 257.252 418.824 254.027 419.793 250.158C420.762 249.513 421.73 248.868 422.699 247.901C422.376 247.901 422.376 247.578 421.73 247.901C421.408 247.901 421.408 248.223 421.085 247.901C420.762 247.578 420.762 247.256 421.408 247.256C421.73 247.256 421.73 247.256 422.053 247.578C422.376 247.901 422.699 247.578 423.345 247.578C425.283 247.256 425.929 246.933 426.575 245.321C431.42 242.419 436.587 239.839 441.109 235.969C445.63 234.035 449.829 232.745 453.058 228.875C453.704 228.875 454.027 228.553 454.673 228.553C455.319 228.553 453.704 229.198 454.35 228.875C454.996 228.553 455.319 228.23 455.965 228.23C459.518 226.618 463.716 224.683 467.269 222.748C466.3 218.879 455.319 225.65 453.058 226.618C452.089 226.94 452.089 226.94 451.766 227.585C452.089 227.263 452.735 226.94 453.058 226.618C452.735 226.94 452.412 227.585 452.089 227.585C451.766 227.908 451.766 227.263 451.444 227.263C449.506 227.263 447.891 227.908 445.953 228.23C450.152 225.328 454.027 222.426 458.226 219.201C442.723 223.393 430.451 230.487 418.178 241.129C414.625 241.774 412.041 242.419 410.75 245.966C408.812 246.288 407.52 246.611 408.489 248.546C407.843 248.546 407.197 248.868 406.874 248.868C406.228 248.868 407.197 248.546 406.551 248.546C406.228 248.223 405.905 248.868 405.582 248.868C405.259 249.19 405.905 249.19 405.905 249.19C402.998 250.48 401.384 251.448 401.706 254.672C397.508 255.64 394.278 257.575 391.372 260.799C391.694 260.799 391.694 261.122 391.694 261.122C388.142 263.056 385.881 264.346 385.235 268.861C383.62 269.183 381.682 271.763 381.037 272.408C380.391 273.375 380.714 272.73 380.391 273.053C379.745 273.375 379.422 274.02 379.099 274.343C378.776 274.665 378.13 275.31 378.13 275.633C378.13 275.955 378.453 275.633 378.453 275.955C376.192 278.212 374.9 280.47 373.608 283.372C373.285 283.372 372.639 283.694 372.639 284.017C372.639 284.339 373.285 283.372 372.962 283.694C372.316 284.017 372.316 284.339 371.993 284.662C371.67 284.984 371.025 286.274 370.702 286.596C370.379 287.241 370.056 287.886 369.733 288.209C369.41 288.531 369.41 288.531 369.41 288.531C364.565 290.466 364.242 294.013 364.888 298.85C364.242 298.85 363.919 299.173 363.273 299.173C361.336 302.72 359.075 305.944 358.106 310.136C357.46 310.781 356.814 311.749 356.491 312.394C356.491 312.071 356.168 311.749 356.168 311.749C355.199 312.716 354.23 314.006 354.23 315.296C354.23 315.618 353.907 315.618 353.907 315.618C351.646 318.843 349.709 321.745 350.032 325.937C349.709 326.26 349.709 326.26 349.709 326.582C349.709 326.905 350.032 326.905 350.032 327.227C348.094 327.55 347.771 328.839 348.094 330.774C348.74 331.097 349.709 331.419 350.032 331.742C349.063 330.774 348.094 332.064 347.771 332.387C347.448 333.032 347.771 333.032 347.771 333.032C347.125 333.676 347.125 333.999 346.479 334.966C346.156 333.999 345.51 333.676 345.51 332.064C345.51 330.452 347.125 328.517 345.187 327.55C345.51 327.227 345.51 326.905 345.833 326.582C346.156 326.26 346.156 327.227 346.479 327.227C347.125 326.582 347.125 325.937 346.156 325.615H345.833C347.448 323.68 348.094 322.068 347.771 319.488C348.417 319.488 348.74 319.488 349.063 319.166C349.386 318.843 349.386 317.553 348.74 317.231C348.417 316.908 348.74 316.908 349.063 316.586C350.678 312.394 350.678 308.202 345.187 308.524C344.218 308.524 344.218 310.459 343.572 311.104C343.249 310.781 342.926 310.781 342.926 310.459C342.926 310.136 343.249 310.459 343.249 309.814C345.51 304.332 347.448 298.85 348.74 293.046C351.001 288.854 353.261 284.662 354.553 280.147C351.001 281.437 349.709 283.372 348.74 286.919C346.802 287.564 345.833 288.854 344.218 290.466C343.572 291.433 342.603 293.691 341.634 294.336C336.79 298.85 332.268 306.589 332.591 312.716C332.914 316.908 333.56 313.361 332.914 314.329C332.268 314.973 331.3 314.651 330.977 315.296C330.654 315.941 330.654 315.941 330.654 316.586C329.685 317.553 329.362 318.521 329.362 320.133C328.393 321.423 327.747 322.39 328.393 323.68C326.778 325.292 326.455 326.582 326.455 328.839C324.517 329.162 324.194 332.064 323.871 333.032C323.548 333.999 323.871 333.676 323.548 333.676C323.225 333.999 323.548 333.999 323.548 333.999C318.381 340.126 315.474 350.122 315.474 356.894C315.474 360.119 315.797 357.539 315.797 358.829C315.797 360.119 316.12 358.829 315.797 359.474C315.474 360.119 315.474 360.441 315.797 360.764C315.797 361.086 315.474 360.441 315.474 360.764C314.182 364.311 313.213 367.858 313.536 372.05C313.536 372.372 313.213 372.372 313.213 372.372C312.567 373.985 312.567 375.597 312.89 377.209C311.276 385.593 310.953 393.655 312.244 402.362C311.598 405.586 311.921 408.166 313.859 411.068C313.536 411.068 313.536 411.713 313.213 411.391C312.89 411.068 312.567 410.746 312.244 410.423C311.598 415.905 311.598 421.065 313.859 426.547C313.859 427.514 314.182 428.159 314.505 429.126H314.182C313.536 429.771 314.505 431.384 314.828 431.706C315.151 432.028 314.828 431.706 315.151 432.028C315.474 432.351 316.12 432.673 316.766 432.351C316.766 432.351 316.443 432.028 316.766 432.028C317.089 432.351 317.412 431.706 317.735 431.384C318.058 431.061 318.058 431.384 318.058 431.061C318.381 437.833 319.996 443.96 322.256 450.409C322.256 452.344 322.579 454.279 323.225 456.213C322.902 454.601 322.256 452.989 320.965 452.344C320.642 452.021 320.642 452.344 320.642 452.021C319.673 451.054 319.673 449.764 318.704 448.474C318.381 450.409 318.704 451.376 320.642 452.021C319.996 460.405 323.548 466.21 328.393 472.659C328.393 472.982 328.07 472.337 328.07 472.659C328.393 472.982 328.716 473.304 328.716 473.627C329.362 474.594 329.685 475.561 330.331 476.529C330.331 476.851 330.654 476.529 330.654 476.529C330.331 477.496 330.331 478.464 331.3 478.786C331.622 478.786 331.3 479.108 331.3 479.108C332.268 482.656 334.206 486.203 336.144 489.427L335.821 489.75C336.144 491.362 336.467 492.652 337.759 493.619C338.082 495.232 338.728 496.844 339.697 497.811C340.666 498.779 341.634 499.424 342.603 500.069C339.697 501.036 342.926 502.326 344.218 503.293C344.541 509.098 347.448 512.322 351.324 515.87C352.292 517.804 353.261 519.094 355.522 520.062C356.814 521.674 358.429 523.286 359.721 524.576C360.044 524.899 359.075 524.576 359.398 524.899C360.367 525.221 361.658 525.543 362.627 525.866C361.981 526.188 361.658 526.511 361.013 526.833C363.919 530.058 366.826 532.96 370.379 535.217C372.316 537.475 373.931 538.765 377.161 539.732C377.161 540.054 376.838 540.054 376.838 540.377C376.838 540.699 377.161 540.699 377.161 540.699C377.161 541.022 376.838 540.054 376.838 540.377C376.838 540.699 377.484 541.022 377.807 541.344C378.13 541.344 377.484 541.022 377.484 541.022C378.453 541.989 379.745 542.634 380.714 543.602C380.391 544.246 380.068 544.246 380.068 544.891C380.391 545.536 380.714 545.859 381.682 545.536C382.974 549.728 385.235 551.341 389.434 551.986C389.757 552.308 389.111 552.631 389.757 552.953C390.403 553.276 391.372 552.953 391.694 552.308C393.309 555.855 395.57 557.79 399.446 559.402C402.352 561.982 405.582 563.917 409.458 565.207C409.135 565.529 409.135 565.529 409.135 565.529C412.687 568.754 415.271 571.334 420.116 570.366C420.439 570.366 420.439 570.044 420.762 570.366C422.053 571.334 424.314 573.268 425.283 574.236C426.252 575.203 425.283 574.881 425.929 574.881C426.898 577.138 428.836 578.105 430.451 575.848C432.711 578.75 434.972 580.04 438.525 580.685C438.848 580.685 439.171 580.685 439.171 581.008C440.786 581.975 442.077 582.62 443.369 581.008C447.891 585.845 451.766 586.167 458.226 587.779C460.164 588.424 465.008 590.682 467.592 590.682C470.499 591.971 472.436 592.616 475.666 591.649C473.405 590.682 471.468 589.714 468.884 589.714C468.561 589.392 468.561 589.069 468.561 588.747C468.238 588.424 467.915 588.424 467.915 588.424C469.53 588.424 470.822 588.424 472.436 588.747C474.697 590.359 476.635 590.682 479.219 589.714C481.48 590.682 484.063 591.004 486.647 590.682C486.97 590.682 486.647 590.037 486.97 590.037C487.293 590.037 487.616 590.359 487.939 590.359C488.908 592.616 494.398 592.294 495.69 592.294C496.982 592.294 496.013 591.971 496.336 591.971C496.659 591.971 496.982 591.649 497.628 591.649C497.951 591.649 497.628 591.971 497.628 591.971C498.597 592.294 499.566 592.294 499.889 591.004C499.889 591.004 499.889 590.682 500.212 591.004C503.764 592.939 506.025 591.649 509.578 590.037C514.422 594.229 526.372 591.971 530.571 591.649C538.645 591.004 539.937 591.326 546.396 588.102C547.042 588.424 548.334 588.424 549.303 588.424C548.657 589.069 547.688 589.392 547.042 590.037C554.47 589.392 560.284 588.102 568.035 586.489C574.494 584.877 582.245 583.587 587.736 578.428C588.059 578.428 588.382 578.75 588.382 578.75C588.382 578.75 588.382 578.428 588.705 578.428C589.674 578.105 590.32 578.428 590.966 578.75C594.841 577.783 598.071 577.138 599.04 572.623C599.363 573.268 599.686 573.913 599.686 574.558C602.592 573.913 604.53 573.591 606.145 571.011C606.468 571.011 607.114 570.689 607.437 570.689C614.542 567.142 620.679 562.627 626.815 557.468C627.138 557.79 627.461 558.112 627.784 558.112C637.15 554.888 643.286 549.728 648.777 541.667C651.038 539.732 653.621 537.475 655.559 535.217C655.559 535.217 655.559 535.54 655.882 535.217C658.789 531.348 661.696 527.478 664.925 523.609C665.894 522.641 666.54 521.674 667.186 520.384H666.863C667.186 519.739 667.509 518.772 667.832 518.127C668.155 517.482 668.155 518.127 668.478 517.804C669.447 517.159 669.447 516.192 670.093 514.902C668.155 513.935 666.863 514.902 666.863 517.159C666.217 517.482 665.248 517.482 664.925 517.804C664.925 517.804 664.925 518.127 664.602 518.127C664.279 518.127 663.633 518.772 663.633 519.094C663.633 519.417 663.31 519.417 663.31 519.417C662.987 519.739 662.664 520.062 662.341 520.384C659.435 522.964 657.174 524.254 653.298 523.609C648.777 521.351 645.87 525.543 642.963 528.446C642.317 529.091 641.349 529.736 640.703 530.38C640.057 531.025 638.765 531.993 638.119 532.638C637.796 532.96 637.473 532.96 637.15 533.283C636.827 533.605 637.473 533.283 637.473 533.605C636.504 534.25 635.858 535.217 634.566 535.54C632.628 536.185 631.014 536.507 629.076 537.152C630.045 536.185 630.691 535.217 631.014 533.928C632.628 532.638 633.92 531.348 634.889 529.736C634.566 529.091 634.243 528.768 633.92 528.123C635.858 527.801 638.442 527.801 637.473 525.221C643.932 521.674 648.454 517.482 652.329 511.355C652.329 511.677 652.329 512 652.329 512.322C654.267 510.71 655.236 509.42 655.236 507.163C658.143 506.196 659.758 504.906 661.05 501.681C662.987 499.746 664.279 498.456 663.956 495.554C664.279 495.232 664.602 495.232 664.925 494.909C665.248 494.587 665.248 494.264 665.571 493.942C665.894 493.619 665.894 493.942 665.894 493.942C666.217 493.942 665.571 493.942 666.217 493.619C666.863 493.297 667.186 492.974 667.186 492.652C667.509 492.33 666.863 492.652 666.863 492.652C668.801 490.395 670.416 488.46 670.093 485.558C676.552 480.398 678.49 473.949 681.074 466.21C673.322 469.434 671.385 478.464 667.832 485.235C666.54 487.493 664.279 489.75 663.633 492.33C662.341 492.652 661.696 493.297 660.727 494.264C660.404 494.587 660.081 494.587 660.081 494.587C662.018 491.685 663.633 489.427 663.633 485.558C663.956 485.558 663.956 485.88 664.279 485.88C666.54 482.978 668.155 480.076 669.77 476.851C670.416 475.239 671.385 474.594 671.062 472.659C671.385 472.982 671.385 472.982 671.707 472.982C673.645 469.434 676.229 465.887 677.198 461.373C678.167 460.728 679.136 460.405 680.105 460.083C680.428 459.116 680.105 458.471 679.782 457.826C681.397 455.891 682.042 454.279 681.397 452.021C680.428 452.989 679.459 453.634 678.49 454.279C681.397 450.087 682.688 445.894 683.011 440.735C683.98 437.188 684.303 433.641 683.98 429.771C684.303 429.771 684.626 430.094 684.626 430.094C685.595 426.547 685.918 422.999 684.626 419.452C682.042 422.032 681.074 424.289 681.397 427.836C678.813 428.481 676.875 429.771 674.937 431.384V431.061L676.875 418.485C677.198 417.518 677.198 416.228 676.875 415.26C672.676 416.873 672.353 420.742 670.416 424.289C662.341 426.547 662.018 433.641 660.081 440.735C658.143 441.702 655.882 446.217 655.559 447.829C655.236 449.442 655.236 448.797 655.236 449.119C652.329 453.311 649.746 453.634 644.901 453.956C643.609 454.924 642.64 455.891 641.994 457.181C641.672 457.503 641.672 456.858 641.672 456.858C640.703 457.181 640.057 457.826 639.734 458.793C634.889 457.181 631.66 460.083 627.784 463.308C627.784 462.985 628.107 462.663 628.107 462.34C624.554 465.242 621.648 467.5 621.002 472.337C619.064 473.949 616.157 475.239 614.865 472.982C614.219 472.014 615.188 472.337 614.542 472.337C616.803 469.112 620.033 465.887 616.48 462.663C613.896 464.92 611.958 466.855 611.313 470.079C610.99 469.757 610.344 469.757 609.698 469.757C607.76 469.434 607.437 469.112 607.437 467.177C606.791 467.5 606.468 467.822 605.822 467.822C605.176 467.822 605.822 467.177 605.499 467.177C608.406 465.565 610.021 463.953 610.99 461.05C610.667 460.728 610.021 460.405 609.698 460.405C611.313 459.116 612.604 457.826 613.896 455.891C613.896 456.213 614.219 456.213 614.219 456.536C615.834 453.634 617.126 451.699 615.834 448.474C616.48 448.152 616.803 447.829 617.449 447.829C617.772 440.09 611.959 446.539 609.375 449.442C609.375 449.442 609.698 449.442 609.375 449.764C609.052 450.087 608.729 450.087 608.406 450.409C610.021 447.507 609.698 443.637 606.791 446.217C605.176 447.829 606.145 447.184 605.822 447.507C605.499 447.829 605.822 447.829 605.499 447.829C605.176 448.152 605.499 447.829 605.499 448.152C604.853 449.119 604.207 449.764 603.561 450.731C603.238 451.054 603.238 451.376 603.238 451.376C603.238 451.376 602.915 452.344 602.592 452.666C601.301 453.956 600.332 455.568 599.686 457.181C599.686 457.503 600.009 457.181 600.009 457.503C600.009 457.826 599.363 458.148 599.363 458.148C599.04 458.148 600.009 457.503 599.686 457.503C599.363 457.503 598.394 458.148 598.394 458.793C598.394 459.438 598.717 458.471 598.717 458.793C598.717 459.116 598.394 459.116 598.394 459.116C597.748 458.793 597.102 460.083 596.779 460.405C596.779 460.728 596.779 460.728 596.779 460.728C596.779 460.728 596.779 460.728 596.456 460.728C596.133 461.05 595.487 461.373 595.164 461.695C594.841 462.018 593.872 462.985 593.549 463.308C593.226 463.63 593.226 463.63 593.226 463.63C593.549 463.308 592.903 463.953 593.226 463.63C592.903 463.953 592.903 464.275 592.903 464.597C592.58 464.92 592.257 464.92 592.257 464.92C591.934 464.597 592.58 464.275 591.934 464.275C591.289 464.275 590.966 464.92 590.643 465.242C590.32 465.565 590.966 465.565 590.966 465.565C588.059 467.177 586.121 468.79 584.829 472.014C584.506 471.692 584.506 471.692 584.183 471.692C580.954 473.627 577.724 475.884 574.817 478.786C574.494 479.108 574.171 478.786 573.848 479.108C571.91 481.043 574.171 480.721 575.786 480.398C565.451 484.59 554.47 488.782 544.458 492.652C542.52 493.297 543.166 493.297 541.552 493.942C538.322 493.297 536.384 494.264 533.8 495.877C533.154 495.232 532.508 494.909 531.862 494.264C522.173 493.942 512.484 493.619 503.118 493.942C494.721 492.974 487.293 492.652 479.542 489.105C474.051 486.848 469.53 484.268 464.039 487.815H463.716C464.039 487.493 461.456 488.782 461.456 488.782C461.456 488.782 460.81 488.782 461.133 488.46C461.456 488.137 463.393 487.815 463.716 487.493C464.039 487.17 465.008 485.88 464.039 485.88C464.685 484.913 465.008 484.268 465.654 483.3H465.331C462.101 481.366 458.549 479.753 454.996 477.819C454.35 476.206 451.444 474.594 450.475 474.271C449.506 473.949 449.829 473.949 449.506 473.949C447.245 472.337 445.63 472.014 443.369 472.659C444.015 471.047 444.015 470.402 442.723 469.434C443.046 469.112 443.369 468.79 443.692 468.79C441.432 465.565 438.848 462.985 435.295 461.05C436.264 457.181 434.003 455.246 431.42 452.344C431.097 452.021 430.774 451.699 430.774 451.376C430.451 451.376 430.774 451.054 430.451 451.054C430.128 451.054 430.128 451.699 429.805 451.376C432.065 450.409 428.513 445.894 428.19 445.25C427.867 444.605 427.867 445.25 427.867 444.927C427.544 444.605 428.513 445.894 428.19 445.25C427.867 444.605 427.867 443.637 427.544 443.315C427.221 442.992 427.221 443.315 427.221 443.315C427.221 442.347 426.898 441.38 426.575 440.413C425.929 438.478 424.96 436.865 424.314 434.931C424.637 434.931 424.637 435.253 424.637 435.253C424.314 432.028 423.668 430.094 420.762 428.804C421.085 427.836 421.085 427.191 421.085 426.224C421.408 426.547 422.053 426.547 422.376 426.869C422.376 425.579 422.053 424.289 421.408 423.322C421.408 422.999 421.085 423.967 420.762 423.322C424.637 422.677 418.501 413.003 416.886 411.713ZM452.089 243.386C452.089 243.709 452.089 243.709 452.089 243.386ZM451.444 484.268C451.766 484.268 451.766 484.268 451.444 484.268ZM706.265 432.028C704.327 435.576 703.358 439.768 702.066 443.96C706.265 440.735 706.911 437.188 706.265 432.028ZM695.93 434.931C694.315 437.833 693.023 440.735 692.377 443.96C696.253 443.637 695.93 437.833 695.93 434.931ZM516.36 260.477C514.422 259.832 513.453 260.154 512.807 262.412C514.099 261.767 515.068 261.122 516.36 260.477ZM712.724 433.641C711.11 438.155 709.495 442.992 708.526 447.829C707.88 450.087 707.88 452.344 706.911 453.956C706.588 454.601 706.588 454.279 706.588 454.601C705.942 455.246 704.65 456.536 705.942 456.858C707.234 457.503 707.88 455.568 707.557 454.601C709.172 452.666 709.495 451.054 708.849 448.797C713.37 443.96 713.047 439.123 712.724 433.641ZM493.752 269.506C500.212 267.571 506.671 264.991 512.807 262.412C504.733 261.122 499.889 264.669 493.752 269.506Z" fill="#47F7F7"/>
<path d="M676.875 426.547C676.875 426.547 678.167 415.583 677.844 405.909C677.844 405.264 677.844 405.264 677.844 404.619C677.844 404.296 677.844 404.941 678.167 404.619C679.136 401.717 679.136 398.814 679.136 395.59C681.074 396.235 682.042 397.847 682.365 399.782C682.688 401.717 683.334 403.329 681.72 404.296C680.105 399.459 682.688 407.844 682.688 409.133C682.365 410.746 682.042 413.325 682.365 414.938C682.042 414.615 682.043 414.293 682.043 413.97C681.074 416.228 679.782 418.485 678.813 421.065L676.875 426.547Z" fill="#47F7F7"/>
<path d="M466.301 217.267C468.885 216.622 471.145 215.654 474.052 215.009C475.667 214.364 476.959 214.042 478.251 213.397C479.865 212.752 481.803 212.107 483.418 211.462C485.356 210.817 487.617 209.85 489.554 209.205C491.815 208.238 493.753 207.27 496.014 206.303C492.461 206.948 488.909 207.593 485.356 208.56C482.126 209.527 479.219 210.495 476.313 212.107C472.76 213.397 469.53 215.332 466.301 217.267Z" fill="#47F7F7"/>
<path d="M603.885 246.611C600.655 244.999 598.394 244.676 594.519 246.289C597.425 248.223 600.009 248.223 603.885 246.611Z" fill="#47F7F7"/>
<path d="M531.217 254.995C535.092 256.285 537.353 255.317 540.583 253.06C536.707 252.415 534.124 252.738 531.217 254.995Z" fill="#47F7F7"/>
<path d="M701.744 406.554C702.067 406.876 701.744 406.876 701.744 406.554C699.483 409.456 700.452 411.713 702.067 414.616C702.39 413.003 702.067 411.391 702.39 410.101C702.713 408.489 703.036 407.844 702.713 406.554C702.39 404.942 702.39 402.039 702.39 400.75C702.067 399.782 702.39 400.105 702.39 400.105C702.713 397.847 701.744 393.655 701.421 392.043C700.452 388.496 700.129 404.942 700.452 407.199C701.098 406.876 701.421 406.554 701.744 406.554Z" fill="#47F7F7"/>
</svg>
