<svg width="360" height="460" viewBox="0 0 360 460" fill="none" xmlns="http://www.w3.org/2000/svg">
<g clip-path="url(#clip0_1_337)">
<path d="M71.1419 136.692C66.5791 136.692 62.7698 135.729 59.714 133.803C56.7 131.834 54.4395 129.154 52.9326 125.762C51.4675 122.328 50.7349 118.412 50.7349 114.015C50.7349 109.659 51.4884 105.785 52.9954 102.393C54.5023 98.9589 56.7628 96.2576 59.7768 94.2893C62.8326 92.2791 66.6628 91.274 71.2675 91.274C74.5326 91.274 77.3372 91.7975 79.6814 92.8444C82.0675 93.8495 83.993 95.2525 85.4581 97.0533C86.9233 98.8542 87.9279 100.969 88.4721 103.398H82.9465C82.3186 101.22 80.9581 99.4824 78.8651 98.1841C76.814 96.8858 74.2186 96.2367 71.0791 96.2367C67.5628 96.2367 64.7163 97.0743 62.5395 98.7495C60.4047 100.383 58.8349 102.54 57.8302 105.22C56.8256 107.858 56.3233 110.727 56.3233 113.826C56.3233 117.093 56.8465 120.087 57.893 122.809C58.9395 125.531 60.5721 127.709 62.7907 129.342C65.0093 130.934 67.8349 131.73 71.2675 131.73C73.3605 131.73 75.2233 131.436 76.8558 130.85C78.5302 130.264 79.9116 129.426 81 128.337C82.1302 127.249 82.9047 125.992 83.3233 124.568H89.2884C88.6605 126.997 87.5302 129.133 85.8977 130.976C84.307 132.777 82.2768 134.18 79.807 135.185C77.3372 136.19 74.4488 136.692 71.1419 136.692ZM107.442 136.567C103.967 136.567 101.058 135.855 98.7137 134.431C96.3695 132.965 94.6114 130.955 93.4393 128.4C92.309 125.846 91.7439 122.935 91.7439 119.668C91.7439 116.36 92.33 113.449 93.5021 110.936C94.6741 108.382 96.4323 106.372 98.7765 104.906C101.121 103.44 104.051 102.707 107.567 102.707C111.042 102.707 113.93 103.44 116.232 104.906C118.576 106.372 120.314 108.382 121.444 110.936C122.616 113.449 123.202 116.36 123.202 119.668C123.202 122.935 122.616 125.846 121.444 128.4C120.272 130.955 118.514 132.965 116.169 134.431C113.867 135.855 110.958 136.567 107.442 136.567ZM107.442 131.855C109.869 131.855 111.837 131.311 113.344 130.222C114.893 129.133 116.023 127.667 116.735 125.825C117.488 123.982 117.865 121.93 117.865 119.668C117.865 117.407 117.488 115.355 116.735 113.512C116.023 111.669 114.893 110.204 113.344 109.115C111.837 108.026 109.869 107.481 107.442 107.481C105.056 107.481 103.088 108.026 101.539 109.115C100.032 110.204 98.9021 111.669 98.1486 113.512C97.4369 115.355 97.0811 117.407 97.0811 119.668C97.0811 121.93 97.4369 123.982 98.1486 125.825C98.9021 127.667 100.032 129.133 101.539 130.222C103.088 131.311 105.056 131.855 107.442 131.855ZM127.203 136.19V103.084H132.352L132.603 108.11C133.357 106.895 134.319 105.89 135.491 105.094C136.664 104.299 137.94 103.712 139.322 103.335C140.745 102.916 142.126 102.707 143.466 102.707C146.689 102.707 149.201 103.377 151.001 104.717C152.843 106.057 154.14 107.879 154.894 110.183C155.689 112.444 156.087 115.02 156.087 117.909V136.19H150.75V119.354C150.75 117.805 150.645 116.318 150.436 114.894C150.268 113.47 149.891 112.193 149.305 111.062C148.761 109.931 147.966 109.052 146.919 108.424C145.873 107.754 144.471 107.419 142.712 107.419C140.536 107.419 138.673 108.026 137.124 109.24C135.617 110.455 134.466 112.088 133.671 114.14C132.917 116.192 132.54 118.496 132.54 121.05V136.19H127.203ZM175.541 151.015C173.281 151.015 171.188 150.659 169.262 149.947C167.336 149.277 165.704 148.209 164.364 146.743C163.025 145.278 162.125 143.414 161.664 141.153H167.19C167.525 142.409 168.153 143.414 169.074 144.168C169.995 144.922 171.062 145.445 172.276 145.738C173.49 146.073 174.683 146.241 175.855 146.241C178.115 146.241 179.936 145.78 181.318 144.859C182.741 143.979 183.767 142.744 184.395 141.153C185.022 139.603 185.336 137.823 185.336 135.813V131.227C184.625 132.483 183.683 133.509 182.511 134.305C181.339 135.101 180.062 135.687 178.681 136.064C177.299 136.399 175.876 136.567 174.411 136.567C171.062 136.567 168.32 135.834 166.185 134.368C164.05 132.86 162.46 130.85 161.413 128.337C160.408 125.783 159.906 122.914 159.906 119.731C159.906 116.548 160.429 113.68 161.476 111.125C162.522 108.528 164.134 106.476 166.311 104.969C168.488 103.461 171.271 102.707 174.662 102.707C176.588 102.707 178.534 103.063 180.501 103.775C182.469 104.487 184.081 105.639 185.336 107.23L185.588 103.084H190.674V135.939C190.674 139.038 190.108 141.718 188.978 143.979C187.89 146.241 186.215 147.979 183.955 149.193C181.736 150.408 178.932 151.015 175.541 151.015ZM175.164 131.855C177.383 131.855 179.246 131.29 180.753 130.159C182.26 129.028 183.411 127.521 184.206 125.636C185.002 123.752 185.399 121.699 185.399 119.48C185.399 117.176 185.002 115.124 184.206 113.324C183.453 111.523 182.322 110.099 180.815 109.052C179.308 108.005 177.404 107.481 175.102 107.481C172.715 107.481 170.79 108.026 169.325 109.115C167.901 110.204 166.855 111.669 166.185 113.512C165.557 115.355 165.243 117.407 165.243 119.668C165.243 122.014 165.578 124.108 166.248 125.95C166.918 127.793 167.985 129.238 169.45 130.285C170.915 131.332 172.82 131.855 175.164 131.855ZM195.917 136.19V103.084H201.066L201.317 108.235C202.154 106.937 203.117 105.89 204.205 105.094C205.336 104.299 206.571 103.712 207.91 103.335C209.291 102.916 210.778 102.707 212.368 102.707C212.661 102.707 212.933 102.707 213.184 102.707C213.477 102.707 213.771 102.707 214.064 102.707V107.733H212.117C209.522 107.733 207.408 108.298 205.775 109.429C204.184 110.518 203.033 112.004 202.322 113.889C201.61 115.732 201.254 117.784 201.254 120.045V136.19H195.917ZM226.813 136.567C225.306 136.567 223.841 136.378 222.418 136.001C221.037 135.583 219.781 134.975 218.651 134.18C217.562 133.342 216.683 132.316 216.013 131.101C215.385 129.845 215.072 128.4 215.072 126.767C215.072 124.882 215.406 123.291 216.076 121.993C216.788 120.694 217.73 119.668 218.902 118.914C220.074 118.161 221.434 117.616 222.983 117.281C224.532 116.946 226.144 116.779 227.818 116.779H237.551C237.551 114.894 237.279 113.261 236.734 111.879C236.232 110.497 235.395 109.429 234.223 108.675C233.051 107.879 231.502 107.481 229.576 107.481C228.404 107.481 227.316 107.607 226.311 107.858C225.306 108.11 224.448 108.507 223.737 109.052C223.025 109.596 222.502 110.329 222.167 111.251H216.453C216.746 109.743 217.311 108.466 218.148 107.419C219.027 106.33 220.074 105.45 221.288 104.78C222.544 104.068 223.883 103.545 225.306 103.21C226.73 102.875 228.153 102.707 229.576 102.707C234.348 102.707 237.739 104.11 239.748 106.916C241.758 109.722 242.762 113.512 242.762 118.286V136.19H238.304L237.99 131.981C237.069 133.237 235.96 134.201 234.662 134.871C233.365 135.541 232.025 135.98 230.644 136.19C229.304 136.441 228.027 136.567 226.813 136.567ZM227.316 131.855C229.409 131.855 231.209 131.52 232.716 130.85C234.265 130.138 235.458 129.112 236.295 127.772C237.132 126.432 237.551 124.799 237.551 122.872V121.239H231.711C230.33 121.239 228.969 121.26 227.63 121.302C226.29 121.343 225.076 121.511 223.988 121.804C222.899 122.097 222.02 122.6 221.351 123.312C220.723 124.024 220.409 125.05 220.409 126.39C220.409 127.646 220.723 128.672 221.351 129.468C222.02 130.264 222.879 130.871 223.925 131.29C225.013 131.667 226.144 131.855 227.316 131.855ZM260.324 136.567C256.849 136.567 254.4 135.624 252.977 133.74C251.596 131.855 250.905 129.175 250.905 125.699V107.795H245.505V103.084H250.905V93.1585H256.242V103.084H266.414V107.795H256.242V125.008C256.242 126.264 256.347 127.416 256.556 128.463C256.765 129.468 257.205 130.285 257.875 130.913C258.544 131.499 259.549 131.813 260.889 131.855C261.851 131.855 262.689 131.688 263.4 131.353C264.154 131.018 264.782 130.62 265.284 130.159L267.607 134.054C266.896 134.64 266.142 135.122 265.347 135.499C264.593 135.876 263.798 136.148 262.961 136.315C262.165 136.483 261.286 136.567 260.324 136.567ZM281.703 136.567C280.196 136.567 278.668 136.42 277.12 136.127C275.613 135.834 274.189 135.331 272.85 134.619C271.552 133.907 270.464 132.944 269.585 131.73C268.706 130.515 268.141 129.007 267.889 127.207H273.289C273.708 128.337 274.378 129.259 275.299 129.971C276.261 130.641 277.329 131.122 278.501 131.416C279.715 131.709 280.866 131.855 281.954 131.855C282.624 131.855 283.399 131.813 284.278 131.73C285.157 131.646 285.994 131.457 286.789 131.164C287.627 130.829 288.296 130.348 288.799 129.719C289.343 129.091 289.615 128.212 289.615 127.081C289.615 126.243 289.427 125.552 289.05 125.008C288.673 124.464 288.15 124.024 287.48 123.689C286.81 123.312 285.994 123.04 285.031 122.872C283.064 122.453 280.95 122.055 278.689 121.679C276.471 121.302 274.503 120.59 272.787 119.543C272.201 119.166 271.657 118.747 271.155 118.286C270.694 117.784 270.296 117.239 269.962 116.653C269.627 116.025 269.355 115.355 269.145 114.643C268.978 113.889 268.894 113.072 268.894 112.193C268.894 110.559 269.208 109.157 269.836 107.984C270.506 106.769 271.427 105.785 272.599 105.031C273.771 104.236 275.11 103.649 276.617 103.272C278.166 102.896 279.82 102.707 281.578 102.707C283.755 102.707 285.701 103.063 287.417 103.775C289.175 104.445 290.62 105.45 291.75 106.79C292.88 108.089 293.55 109.701 293.759 111.627H288.799C288.506 110.413 287.71 109.429 286.413 108.675C285.115 107.879 283.461 107.481 281.452 107.481C280.782 107.481 280.029 107.544 279.192 107.67C278.355 107.754 277.559 107.963 276.806 108.298C276.052 108.591 275.424 109.052 274.922 109.68C274.42 110.266 274.168 111.062 274.168 112.067C274.168 112.989 274.399 113.763 274.859 114.391C275.361 115.02 276.052 115.522 276.931 115.899C277.81 116.276 278.815 116.59 279.945 116.841C281.41 117.135 283.022 117.449 284.78 117.784C286.538 118.077 287.92 118.391 288.924 118.726C290.264 119.145 291.373 119.731 292.252 120.485C293.173 121.239 293.843 122.139 294.261 123.186C294.722 124.233 294.952 125.448 294.952 126.83C294.952 128.798 294.555 130.41 293.759 131.667C293.006 132.923 291.98 133.907 290.682 134.619C289.385 135.331 287.941 135.834 286.35 136.127C284.801 136.42 283.252 136.567 281.703 136.567ZM300.464 122.37L299.711 91.7765H305.802L305.048 122.37H300.464ZM302.788 136.692C302.076 136.692 301.427 136.525 300.841 136.19C300.297 135.897 299.857 135.457 299.523 134.871C299.229 134.284 299.083 133.635 299.083 132.923C299.083 132.169 299.229 131.52 299.523 130.976C299.857 130.389 300.297 129.95 300.841 129.657C301.427 129.322 302.076 129.154 302.788 129.154C303.834 129.154 304.713 129.51 305.425 130.222C306.178 130.934 306.555 131.834 306.555 132.923C306.555 133.635 306.388 134.284 306.053 134.871C305.718 135.457 305.257 135.897 304.671 136.19C304.127 136.525 303.499 136.692 302.788 136.692Z" fill="#052F69"/>
<path d="M69.9561 229.869L140.241 207.385L146.147 222.617" fill="#47F7F7"/>
<path d="M-133.953 383.454C-134.29 382.009 -21.3857 321.755 39.0166 276.689C71.036 252.798 69.7474 229.549 69.7474 229.549L176.843 219.448L171.352 344.875L128.787 358.773L59.1148 336.443L-88.8246 408.095L-133.953 383.448V383.454Z" fill="#47F7F7"/>
<path d="M157.111 245.224L179.585 241.934" stroke="white" stroke-width="4.33428" stroke-miterlimit="10"/>
<path d="M154.918 279.224L177.94 274.289" stroke="white" stroke-width="4.33428" stroke-miterlimit="10"/>
<path d="M156.562 313.773L176.295 308.837" stroke="white" stroke-width="4.33428" stroke-miterlimit="10"/>
<path d="M213.056 205.298L183.349 208.703L216.726 334.348L282.164 328.61L317.325 308.201L378.134 459.5L412.744 427.692C412.106 425.778 342.974 248.792 342.974 248.792L276.429 188.932L213.316 191.163L212.041 261.674L237.543 256.778C237.543 256.778 253.484 237.402 244.554 213.164" fill="#B1EAEA"/>
<path d="M244.499 213.379C246.568 223.45 247.942 246.528 236.878 258.275L209.502 261.945L214.017 191.354" stroke="white" stroke-width="3.37111"/>
<path d="M245.909 230.037L259.535 227.834C259.535 227.834 249.973 271.204 283.44 285.877" stroke="white" stroke-width="3.37111" stroke-miterlimit="10"/>
<path d="M202.727 283.686C202.727 283.686 255.392 271.212 255.392 270.252C255.392 269.292 244.78 239.356 244.78 239.356" stroke="white" stroke-width="3.37111" stroke-miterlimit="10"/>
<path d="M210.347 310.792L263.995 291.299L255.387 270.252" stroke="white" stroke-width="3.37111" stroke-miterlimit="10"/>
<path d="M216.726 334.352C220.005 334.064 261.764 312.983 261.764 312.983L254.162 294.923" stroke="white" stroke-width="3.37111" stroke-miterlimit="10"/>
<path d="M212.042 253.989L230.528 250.493C230.528 250.493 234.033 226.882 221.282 227.836C208.53 228.791 212.036 253.989 212.036 253.989H212.042Z" stroke="white" stroke-width="3.37111" stroke-miterlimit="10"/>
<path d="M194.221 248.709L211.155 244.756" stroke="white" stroke-width="3.37111"/>
<path d="M329.978 114.799L301.513 141.602" stroke="#FFE34F" stroke-width="15"/>
<path d="M139.941 178.53L160.876 198.328" stroke="#FFE34F" stroke-width="15"/>
<path d="M225.526 2.03207L208.782 23.8094" stroke="#FFE34F" stroke-width="6"/>
<path d="M194.498 347.756L185.97 326.896" stroke="#FFE34F" stroke-width="6"/>
<path d="M113.197 133.319L107.955 160.289" stroke="#FFE34F" stroke-width="6"/>
<path d="M228.294 390.428L210.066 426.269" stroke="#FFE34F" stroke-width="20"/>
<path d="M103.775 283.626L94.5653 300.378" stroke="#FFE34F" stroke-width="25"/>
<path d="M300.877 340.518L276.133 350.583" stroke="#FFE34F" stroke-width="15"/>
<path d="M125.36 376.424L147.128 390.663" stroke="#FFE34F" stroke-width="10"/>
<path d="M137.594 38.0988L161.875 55.3853" stroke="#FFE34F" stroke-width="15"/>
<path d="M222.935 138.647L194.626 146.168" stroke="#FFE34F" stroke-width="15"/>
<path d="M-3.23456 179.524L39.6356 209.35" stroke="#FFE34F" stroke-width="25"/>
</g>
<defs>
<clipPath id="clip0_1_337">
<rect width="360" height="459" fill="white" transform="translate(0 0.5)"/>
</clipPath>
</defs>
</svg>
