<svg width="33" height="32" viewBox="0 0 33 32" fill="none" xmlns="http://www.w3.org/2000/svg">
<path d="M14.0773 16C14.0773 14.5273 15.2712 13.3334 16.744 13.3334C18.2167 13.3334 19.4106 14.5273 19.4106 16C19.4106 17.4728 18.2167 18.6667 16.744 18.6667C15.2712 18.6667 14.0773 17.4728 14.0773 16Z" fill="#052F69"/>
<path fill-rule="evenodd" clip-rule="evenodd" d="M13.7543 4.02315C15.3454 2.23293 18.1426 2.23292 19.7338 4.02315L21.819 6.36925C22.01 6.5841 22.2652 6.73148 22.5468 6.78943L25.6212 7.42226C27.9672 7.90515 29.3657 10.3275 28.6109 12.6007L27.6218 15.5796C27.5312 15.8524 27.5312 16.1471 27.6218 16.4199L28.6109 19.3989C29.3657 21.672 27.9672 24.0944 25.6212 24.5773L22.5468 25.2101C22.2652 25.2681 22.01 25.4154 21.819 25.6303L19.7338 27.9764C18.1426 29.7666 15.3454 29.7666 13.7543 27.9764L11.669 25.6303C11.478 25.4154 11.2228 25.2681 10.9412 25.2101L7.86683 24.5773C5.52086 24.0944 4.12229 21.672 4.87708 19.3989L5.86624 16.4199C5.95682 16.1471 5.95682 15.8524 5.86624 15.5796L4.87708 12.6007C4.12229 10.3275 5.52086 7.90515 7.86682 7.42226L10.9412 6.78943C11.2228 6.73148 11.478 6.5841 11.669 6.36925L13.7543 4.02315ZM16.744 10.6667C13.7985 10.6667 11.4106 13.0545 11.4106 16C11.4106 18.9455 13.7985 21.3334 16.744 21.3334C19.6895 21.3334 22.0773 18.9455 22.0773 16C22.0773 13.0545 19.6895 10.6667 16.744 10.6667Z" fill="#052F69"/>
</svg>
