<svg width="48" height="48" viewBox="0 0 48 48" fill="none" xmlns="http://www.w3.org/2000/svg">
<g id="Export">
<path id="Vector" d="M40.5 21.0087V39.0087C40.5 39.8044 40.1839 40.5675 39.6213 41.1301C39.0587 41.6927 38.2956 42.0087 37.5 42.0087H10.5C9.70435 42.0087 8.94129 41.6927 8.37868 41.1301C7.81607 40.5675 7.5 39.8044 7.5 39.0087V21.0087C7.5 20.2131 7.81607 19.45 8.37868 18.8874C8.94129 18.3248 9.70435 18.0087 10.5 18.0087H15C15.3978 18.0087 15.7794 18.1668 16.0607 18.4481C16.342 18.7294 16.5 19.1109 16.5 19.5087C16.5 19.9066 16.342 20.2881 16.0607 20.5694C15.7794 20.8507 15.3978 21.0087 15 21.0087H10.5V39.0087H37.5V21.0087H33C32.6022 21.0087 32.2206 20.8507 31.9393 20.5694C31.658 20.2881 31.5 19.9066 31.5 19.5087C31.5 19.1109 31.658 18.7294 31.9393 18.4481C32.2206 18.1668 32.6022 18.0087 33 18.0087H37.5C38.2956 18.0087 39.0587 18.3248 39.6213 18.8874C40.1839 19.45 40.5 20.2131 40.5 21.0087ZM17.5613 13.07L22.5 8.12937V25.5087C22.5 25.9066 22.658 26.2881 22.9393 26.5694C23.2206 26.8507 23.6022 27.0087 24 27.0087C24.3978 27.0087 24.7794 26.8507 25.0607 26.5694C25.342 26.2881 25.5 25.9066 25.5 25.5087V8.12937L30.4387 13.07C30.7202 13.3515 31.102 13.5096 31.5 13.5096C31.898 13.5096 32.2798 13.3515 32.5613 13.07C32.8427 12.7885 33.0008 12.4068 33.0008 12.0087C33.0008 11.6107 32.8427 11.229 32.5613 10.9475L25.0613 3.4475C24.9219 3.30803 24.7565 3.1974 24.5744 3.12191C24.3923 3.04642 24.1971 3.00757 24 3.00757C23.8029 3.00757 23.6077 3.04642 23.4256 3.12191C23.2435 3.1974 23.0781 3.30803 22.9387 3.4475L15.4387 10.9475C15.1573 11.229 14.9992 11.6107 14.9992 12.0087C14.9992 12.4068 15.1573 12.7885 15.4388 13.07C15.7202 13.3515 16.102 13.5096 16.5 13.5096C16.898 13.5096 17.2798 13.3515 17.5613 13.07Z" fill="black"/>
</g>
</svg>
