<svg width="64" height="64" xmlns="http://www.w3.org/2000/svg" fill="none">

 <g>
  <title>Layer 1</title>
  <rect x="0" y="0" stroke="null" id="svg_1" fill="#F2F2F2" rx="15" height="63.66662" width="63.99996"/>
  <path stroke="null" id="svg_2" fill="black" d="m31.49998,16.66664c-3.65899,0 -7.23576,1.085 -10.27808,3.11776c-3.04222,2.03284 -5.41346,4.92213 -6.81367,8.30259c-1.40022,3.38046 -1.76659,7.1002 -1.05276,10.68878c0.71383,3.58869 2.47578,6.88508 5.06307,9.47231c2.58722,2.58733 5.88362,4.34925 9.47231,5.06304c3.58859,0.71389 7.30832,0.34749 10.68878,-1.05275c3.38046,-1.40014 6.26975,-3.77133 8.30259,-6.81365c2.03274,-3.04232 3.11776,-6.61909 3.11776,-10.27808c-0.00565,-4.90476 -1.95648,-9.60705 -5.42471,-13.07528c-3.46824,-3.46819 -8.17052,-5.4191 -13.07528,-5.42471zm0,33.91666c-3.04911,0 -6.02977,-0.90414 -8.56499,-2.59822c-2.53532,-1.69398 -4.51133,-4.10176 -5.67816,-6.91869c-1.16684,-2.81704 -1.47214,-5.91681 -0.87728,-8.90744c0.59486,-2.99052 2.06313,-5.73747 4.2192,-7.89354c2.15607,-2.15607 4.90301,-3.62436 7.89364,-4.21923c2.99052,-0.59488 6.0903,-0.28952 8.90734,0.87731c2.81704,1.16684 5.22471,3.14284 6.91879,5.67806c1.69398,2.53532 2.59812,5.51598 2.59812,8.56509c-0.00462,4.08737 -1.63026,8.00598 -4.52047,10.89619c-2.89021,2.89011 -6.80882,4.51585 -10.89619,4.52047zm8.79911,-24.21568c0.14327,0.14317 0.25705,0.31316 0.33454,0.50032c0.0776,0.18716 0.11758,0.38778 0.11758,0.59036c0,0.20257 -0.03998,0.4032 -0.11758,0.59036c-0.07749,0.18716 -0.19127,0.35715 -0.33454,0.50042l-7.70833,7.70833c-0.14327,0.14317 -0.31337,0.25684 -0.50042,0.33434c-0.18716,0.07749 -0.38778,0.11737 -0.59036,0.11737c-0.20257,0 -0.40309,-0.03988 -0.59025,-0.11737c-0.18716,-0.07749 -0.35726,-0.19117 -0.50042,-0.33434c-0.14327,-0.14327 -0.25694,-0.31337 -0.33444,-0.50053c-0.07749,-0.18706 -0.11737,-0.38768 -0.11737,-0.59025c0,-0.20257 0.03988,-0.4032 0.11737,-0.59025c0.07749,-0.18716 0.19117,-0.35726 0.33444,-0.50042l7.70833,-7.70833c0.14317,-0.14337 0.31316,-0.25715 0.50032,-0.33464c0.18716,-0.0776 0.38778,-0.11758 0.59036,-0.11758c0.20257,0 0.4032,0.03998 0.59036,0.11758c0.18716,0.07749 0.35715,0.19127 0.50042,0.33464zm-14.96578,-14.32599c0,-0.40887 0.16239,-0.80101 0.4515,-1.09012c0.28922,-0.28911 0.68131,-0.45154 1.09016,-0.45154l9.25,0c0.40885,0 0.80105,0.16243 1.09016,0.45154c0.28911,0.28911 0.4515,0.68125 0.4515,1.09012c0,0.40887 -0.16239,0.80101 -0.4515,1.09012c-0.28911,0.28911 -0.68131,0.45154 -1.09016,0.45154l-9.25,0c-0.40885,0 -0.80095,-0.16243 -1.09016,-0.45154c-0.28911,-0.28911 -0.4515,-0.68125 -0.4515,-1.09012z"/>
 </g>
</svg>