<svg width="300" height="50" viewBox="0 0 300 50" fill="none" xmlns="http://www.w3.org/2000/svg">
<path d="M68.4929 33.4673C66.4035 33.4673 64.6742 32.591 63.5935 31.1306C71.5912 27.4794 74.9776 25.4713 74.9776 22.5139C74.9776 20.1772 72.78 18.0596 68.9613 18.0596C64.0618 18.0596 59.6667 21.5646 59.6667 27.0413C59.6667 32.1529 63.4133 36.0231 68.4929 36.0231C71.5912 36.0231 74.4012 34.3801 76.0223 32.2259L74.113 30.4734C72.744 32.1894 70.7986 33.4673 68.4929 33.4673ZM62.2965 27.0413C62.2965 22.9521 65.5028 20.5058 69.0694 20.5058C71.411 20.5058 72.2756 21.4916 72.2756 22.4409C72.2756 24.303 69.5737 25.873 62.6208 28.9764C62.4046 28.3922 62.2965 27.735 62.2965 27.0413ZM49.3273 33.4673C45.7247 33.4673 42.9868 30.7289 42.9868 27.0778C42.9868 23.4997 45.6887 20.6884 49.2192 20.6884C50.9845 20.6884 52.5336 21.4186 53.6864 22.587L55.5237 20.7249C53.9386 19.1184 51.741 18.0961 49.2553 18.0961C44.2837 18.0961 40.3929 22.1123 40.3929 27.0778C40.3929 32.1164 44.2837 36.0596 49.3994 36.0596C51.9212 36.0596 54.1547 35.0738 55.7759 33.4308L53.9386 31.5687C52.7137 32.7371 51.0926 33.4673 49.3273 33.4673ZM95.8724 23.6093C94.9718 20.6154 92.5581 18.0596 88.3431 18.0596C84.1281 18.0596 81.6783 20.6154 80.8137 23.6093C80.5255 24.5951 80.3814 26.0555 80.3814 27.808V35.5484H83.0113V28.0271C83.0113 26.3841 83.0473 25.3618 83.3715 24.376C83.984 22.3679 85.389 20.6154 88.3431 20.6154C91.2972 20.6154 92.7382 22.3679 93.3146 24.376C93.6028 25.3983 93.6749 26.3841 93.6749 28.0271V35.5484H96.3047V27.808C96.3408 26.092 96.1607 24.6316 95.8724 23.6093ZM127.179 18.0596C122.207 18.0596 118.316 22.0758 118.316 27.0413C118.316 32.0068 122.207 36.0231 127.179 36.0231C132.15 36.0231 136.041 32.0068 136.041 27.0413C136.041 22.0758 132.15 18.0596 127.179 18.0596ZM127.179 33.4673C123.684 33.4673 120.946 30.6194 120.946 27.0778C120.946 23.4997 123.648 20.6884 127.179 20.6884C130.673 20.6884 133.411 23.5362 133.411 27.0778C133.411 30.6194 130.673 33.4673 127.179 33.4673ZM108.265 25.7634C104.519 24.9237 103.978 24.303 103.978 22.9886C103.978 21.8202 105.023 20.6519 107.184 20.6519C109.562 20.6519 110.859 21.6377 111.724 22.3314L113.417 20.2868C112.3 19.4105 110.355 18.0596 107.221 18.0596C103.87 18.0596 101.348 20.1042 101.348 23.0251C101.348 26.0555 103.402 27.3699 107.076 28.2097C110.139 28.9034 111.363 29.3415 111.363 30.948C111.363 32.5545 109.85 33.4673 107.977 33.4673C105.671 33.4673 104.014 32.518 102.573 31.2036L100.772 33.1387C103.834 35.877 106.644 35.9865 107.941 35.9865C110.751 35.9865 114.029 34.4896 114.029 30.8385C114.029 27.4429 111.039 26.3841 108.265 25.7634Z" fill="#052F69"/>
<rect x="0.972565" y="10.9004" width="29.3077" height="30.1343" rx="7.03134" fill="#052F69"/>
<path d="M23.2301 29.3187C23.2583 29.3043 23.2724 29.2898 23.2583 29.2465C23.2442 29.2754 23.2442 29.2898 23.2301 29.3187ZM22.9343 29.8537C23.0752 29.6947 23.1597 29.5212 23.2301 29.3187C23.1033 29.4778 23.0048 29.6368 22.9343 29.8537ZM22.8076 30.62C22.7935 30.649 22.7794 30.6634 22.7653 30.6779C22.7512 30.6923 22.7512 30.6923 22.7512 30.6923C22.7231 30.7068 22.6808 30.7791 22.7372 30.7646C22.7512 30.7502 22.7653 30.7357 22.7794 30.7357C22.7935 30.7212 22.8217 30.7068 22.8217 30.6779C22.9203 30.62 22.9625 30.5477 22.9766 30.4465C22.9203 30.4754 22.8639 30.5333 22.8076 30.62ZM18.7373 18.8361C18.5965 18.6916 18.4415 18.7349 18.2584 18.7494C18.2725 18.7928 18.3007 18.8361 18.3429 18.8795C18.3007 18.8651 18.2444 18.8651 18.188 18.8795C18.2162 18.9229 18.2584 18.9518 18.3148 18.9518C18.357 18.9663 18.3993 18.9374 18.4415 18.9229C18.5401 18.9374 18.6246 18.9374 18.7091 18.9084C18.7232 18.9084 18.7232 18.894 18.7373 18.894C18.7514 18.894 18.7655 18.9084 18.7795 18.9084C18.8077 18.9084 18.85 18.894 18.8781 18.894C18.9345 18.9084 18.9767 18.9084 19.0049 18.8506C18.9626 18.8361 18.9204 18.8651 18.8781 18.8506C18.8359 18.8361 18.7936 18.8217 18.7373 18.8361ZM18.526 18.4024C18.3852 18.3735 18.2584 18.4168 18.1035 18.4458C18.2584 18.4747 18.3993 18.4602 18.5542 18.4313C18.681 18.4168 18.7936 18.4313 18.9063 18.4024C18.7936 18.359 18.6669 18.3301 18.526 18.4024ZM12.4417 22.928C12.4276 22.9569 12.4136 22.9713 12.3854 23.0003C12.4136 22.9858 12.4417 22.9713 12.4417 22.928ZM17.85 19.0096C17.9345 19.0096 18.0049 18.9952 18.0894 18.9952C18.0331 18.9663 17.8218 18.8506 17.85 19.0096ZM17.2021 18.7205C17.2303 18.706 17.2866 18.706 17.3007 18.706C17.3148 18.706 17.3148 18.706 17.3148 18.706C17.4134 18.6916 17.4979 18.6626 17.5683 18.5903C17.4416 18.5759 17.3007 18.5759 17.174 18.5903C17.1599 18.5903 17.1599 18.5759 17.1458 18.5759C17.1317 18.5759 17.1317 18.5759 17.1317 18.5759C17.1176 18.547 17.1035 18.5325 17.0613 18.5325C17.0331 18.547 17.0754 18.5614 17.0472 18.5614C17.0331 18.5759 17.005 18.5614 16.9768 18.547C16.9627 18.547 16.9909 18.5181 16.9909 18.5181C16.9064 18.5036 16.8219 18.5325 16.7374 18.547C16.6529 18.5759 16.5543 18.5903 16.4698 18.6337C16.4557 18.6337 16.3993 18.6482 16.3993 18.6626C16.3853 18.6771 16.4275 18.6482 16.4275 18.6626C16.4275 18.6771 16.4134 18.6916 16.4134 18.706C16.005 18.7639 15.4275 18.7639 15.2867 19.2265C15.7374 19.053 16.1881 18.894 16.6529 18.8217C16.7655 18.8072 16.8782 18.7783 16.9909 18.7494C17.0895 18.7639 17.1599 18.7639 17.2021 18.7205ZM11.5826 26.2679L11.5404 26.239C11.6108 26.1812 11.6389 26.1378 11.5685 26.08C11.6389 25.8486 11.653 25.6173 11.653 25.3715C11.653 25.2848 11.6389 25.2125 11.6671 25.1257C11.6671 25.1112 11.6812 25.1402 11.6812 25.1402C11.7234 25.0823 11.7375 25.0245 11.7234 24.9522C11.7657 24.8221 11.7939 24.7064 11.7516 24.5763C11.9206 24.4317 11.991 24.3016 11.9065 24.0702C12.0333 23.969 12.1037 23.8533 12.1319 23.6943C12.1882 23.622 12.2164 23.5786 12.1741 23.4919C12.1741 23.4774 12.1882 23.4919 12.1882 23.4919C12.2023 23.4629 12.2023 23.4485 12.1882 23.4196C12.2586 23.3762 12.2305 23.3328 12.1882 23.2894C12.2164 23.275 12.2586 23.2605 12.2868 23.2461C12.3572 23.1738 12.3572 23.1015 12.3431 23.0003C12.4136 23.0147 12.484 22.8991 12.484 22.8701C12.4981 22.8412 12.4981 22.8412 12.4981 22.8412C12.5403 22.7111 12.5826 22.581 12.6248 22.4653C12.6248 22.4508 12.653 22.4508 12.653 22.4508C12.6952 22.4219 12.7234 22.3785 12.7375 22.3207C12.7375 22.3062 12.7516 22.3207 12.7657 22.3062C12.8783 22.2195 12.9488 22.1038 13.0192 21.9882C13.0333 21.9882 13.0473 22.0026 13.0614 21.9882C13.1037 21.9592 13.1882 21.8436 13.2164 21.8146C13.2445 21.7857 13.2304 21.8002 13.2445 21.7857C13.2868 21.7424 13.2868 21.7134 13.3009 21.6701C13.3149 21.6556 13.329 21.6701 13.329 21.6701C13.3994 21.6267 13.4558 21.5833 13.4699 21.511C13.498 21.4821 13.5121 21.4676 13.5262 21.4243C13.5685 21.4098 13.6107 21.4098 13.5966 21.352C13.6389 21.3375 13.6811 21.3231 13.7093 21.2941C13.7375 21.2797 13.7656 21.2652 13.7797 21.2218C13.7797 21.2074 13.7656 21.2363 13.7656 21.2363C13.7656 21.2363 13.7515 21.2218 13.7656 21.2218C13.8924 21.1785 14.0051 21.1206 14.1036 21.0339C14.1036 21.0339 14.1036 21.0339 14.1177 21.0339C14.1459 21.0194 14.16 21.0194 14.1882 21.005C14.2163 20.9905 14.2304 20.9616 14.2586 20.9327C14.2727 20.9616 14.3149 20.9471 14.329 20.9182C14.3431 20.9037 14.3149 20.9037 14.329 20.9037C14.3431 20.8893 14.2867 20.9037 14.2867 20.8893C14.2867 20.8748 14.2867 20.8748 14.3008 20.8748C14.3149 20.8748 14.329 20.8893 14.329 20.8893C14.3431 20.8748 14.3572 20.8748 14.3572 20.8748C14.3712 20.8604 14.3712 20.8604 14.3853 20.8604C14.4417 20.817 14.4839 20.7736 14.5121 20.7158C14.667 20.6869 14.7797 20.6146 14.8783 20.47C14.6529 20.4411 14.4698 20.4555 14.2586 20.5567C14.2304 20.5567 14.1882 20.5712 14.1741 20.5857C14.16 20.6001 14.16 20.6001 14.16 20.6001C14.1459 20.6146 14.1459 20.6146 14.1459 20.6146C14.1318 20.629 14.1318 20.629 14.1318 20.629C14.1318 20.6435 14.1459 20.6146 14.1459 20.629C14.1459 20.6435 14.1318 20.6579 14.1318 20.6724C14.0614 20.6579 13.991 20.6724 13.9206 20.6435C13.8501 20.6146 13.7938 20.5857 13.7375 20.6579C13.7234 20.629 13.653 20.629 13.6389 20.629C13.6107 20.629 13.6248 20.629 13.6248 20.629C13.5966 20.5712 13.498 20.6579 13.484 20.6724C13.4135 20.6869 13.3713 20.7013 13.3009 20.6869C13.3149 20.6435 13.329 20.5857 13.3431 20.5423C13.4135 20.4411 13.484 20.3543 13.5544 20.2676C13.5685 20.2965 13.5403 20.3109 13.5825 20.3399C13.822 20.123 14.329 19.8193 14.5262 19.6892C14.6529 19.6169 14.6529 19.6169 14.6529 19.6169C14.8924 19.5302 15.2022 19.4868 15.1881 19.1832C14.9205 19.2699 14.6811 19.3422 14.4698 19.5302C14.4276 19.5446 14.3853 19.5446 14.3431 19.5591C14.329 19.5591 14.3149 19.5735 14.3149 19.5735C14.2022 19.6458 13.9769 19.7615 13.8642 19.7904C13.6952 19.8627 13.6811 19.8483 13.6107 19.9928C13.2727 20.1374 13.0192 20.3832 12.6389 20.4121C12.7375 20.2676 12.8502 20.1374 12.991 20.0362C13.0192 20.0218 13.0333 19.9928 13.0473 19.9928C13.0614 19.9928 13.0473 19.9784 13.0614 19.9784C13.0755 19.9639 13.0614 19.9639 13.0614 19.9639C13.0896 19.9784 13.1319 19.9495 13.1178 19.9206C13.1178 19.8916 13.0755 19.9061 13.0614 19.9061C13.0473 19.9061 13.0473 19.9061 13.0473 19.9061C13.0473 19.9061 13.0333 19.8916 13.0473 19.8916C13.0755 19.8916 13.1178 19.8772 13.1459 19.8772C13.1319 19.8916 13.1319 19.9061 13.1178 19.9061C13.1459 19.8916 13.1882 19.8772 13.2023 19.8483C13.2445 19.8338 13.3149 19.776 13.329 19.747C13.3431 19.7181 13.3431 19.7326 13.3431 19.7326C13.4135 19.6748 13.4699 19.6314 13.484 19.5446C13.3994 19.5591 13.3431 19.5735 13.2868 19.6314C13.2164 19.6458 13.1459 19.6892 13.0896 19.7181C13.0051 19.7615 12.9488 19.7904 12.8924 19.8627C12.7657 19.9206 12.6671 19.9639 12.5403 19.935C12.6671 19.8916 12.7516 19.8338 12.8361 19.7181C12.8079 19.7037 12.7938 19.6892 12.7657 19.6892C13.2164 19.4723 13.6389 19.2265 14.0614 18.9663C14.0473 18.9518 14.0332 18.9518 14.0332 18.9374C14.0191 18.9229 14.0332 18.9229 14.0473 18.9229C14.2867 18.894 14.498 18.8361 14.6107 18.6048C14.6107 18.5903 14.6107 18.5903 14.6248 18.6048C14.7515 18.6771 14.8501 18.6337 14.8924 18.5036C15.174 18.4891 15.3994 18.4024 15.6247 18.2578C15.5966 18.2578 15.5825 18.2433 15.5543 18.2433C16.0332 18.1277 16.4979 17.9831 16.9627 17.824C16.9909 17.8385 17.005 17.8096 17.019 17.8096C17.0331 17.7951 17.0472 17.7951 17.0472 17.7951C17.1317 17.7807 17.2021 17.7662 17.2726 17.7228C17.2444 17.7228 17.2162 17.7084 17.1881 17.7084C17.2303 17.6794 17.2585 17.665 17.2866 17.6361C17.3007 17.665 17.3148 17.6794 17.3148 17.7084C17.3852 17.7084 17.4134 17.6794 17.4275 17.6072C17.8782 17.6794 18.2584 17.5782 18.681 17.4626C18.2584 17.3903 17.8641 17.4336 17.4416 17.477C17.3711 17.4915 17.174 17.3758 17.174 17.5059C16.7514 17.4192 16.343 17.4336 15.9205 17.477C15.7656 17.4626 15.667 17.5493 15.5402 17.6361C15.4416 17.6072 15.343 17.6216 15.2304 17.6216C15.1459 17.5782 15.1036 17.5927 15.0473 17.665C14.9769 17.6939 14.9064 17.7084 14.836 17.7373C14.8219 17.7373 14.8219 17.7228 14.8219 17.7373C14.836 17.9831 14.9064 18.1566 15.16 18.171C15.1881 18.1855 15.2022 18.1855 15.2304 18.1855C15.2445 17.5493 14.667 17.8674 14.3572 18.0843C14.1318 18.0843 13.9487 18.1277 13.7515 18.2289C13.6811 18.2433 13.653 18.2578 13.6107 18.3156C13.5403 18.3301 13.498 18.3301 13.4558 18.4024C13.4417 18.3879 13.4135 18.3879 13.4135 18.4024C13.3994 18.4024 13.4135 18.4024 13.3994 18.4024C13.3854 18.4024 13.3994 18.4024 13.3854 18.4024C13.3713 18.4024 13.3854 18.4024 13.3713 18.4024C13.3572 18.4024 13.3572 18.4602 13.3431 18.4747C13.3431 18.4891 13.3431 18.4891 13.3149 18.4891C13.2868 18.4891 13.2445 18.5181 13.2304 18.5325C13.2164 18.547 13.2164 18.547 13.2164 18.547C13.2023 18.5614 13.1882 18.5759 13.1741 18.5759C13.1319 18.6048 13.0896 18.6337 13.0614 18.6771C13.0051 18.6626 12.9769 18.6626 12.9347 18.7205C12.9206 18.7349 12.9488 18.7494 12.9488 18.7494C12.8079 18.7639 12.6952 18.8217 12.6107 18.9374C12.5262 18.9663 12.4417 18.9952 12.5262 19.0819C12.5403 19.0964 12.5685 19.0964 12.5685 19.1109C12.5544 19.1253 12.5403 19.1398 12.5262 19.1253C12.5122 19.1109 12.484 19.0964 12.4699 19.0819C12.4558 19.0675 12.4417 19.0386 12.4136 19.0386C12.3854 19.0386 12.3431 19.053 12.3291 19.0819C12.315 19.1109 12.2586 19.1687 12.2305 19.1832C12.2023 19.1976 12.2164 19.1832 12.2164 19.1832C12.0333 19.1687 11.9347 19.2554 11.808 19.3856C11.7939 19.3856 11.7657 19.4 11.7516 19.4145C11.7375 19.429 11.7094 19.4434 11.7094 19.4434C11.6953 19.4579 11.7094 19.4579 11.6953 19.4579C11.5544 19.5591 11.3995 19.588 11.2305 19.6314C11.2164 19.6169 11.2164 19.6169 11.2164 19.6025C11.2868 19.5735 11.3432 19.5157 11.3713 19.4579C11.3854 19.429 11.3995 19.429 11.3995 19.4145C11.4136 19.3856 11.3854 19.4434 11.3713 19.429C11.3713 19.4145 11.3573 19.3856 11.3573 19.3711C11.3573 19.3567 11.3854 19.3711 11.3995 19.3567C11.4136 19.4145 11.4699 19.3856 11.4699 19.3567C11.4699 19.3422 11.4277 19.3422 11.4277 19.3422C11.4277 19.3422 11.6671 19.1976 11.7094 19.0241C11.7516 18.9952 11.7939 18.9663 11.8361 18.9229C11.822 18.9229 11.822 18.9084 11.7939 18.9229C11.7798 18.9229 11.7798 18.9374 11.7657 18.9229C11.7516 18.9084 11.7516 18.894 11.7798 18.894C11.7939 18.894 11.7939 18.894 11.808 18.9084C11.822 18.9229 11.8361 18.9084 11.8643 18.9084C11.9488 18.894 11.977 18.8795 12.0051 18.8072C12.2164 18.6771 12.4417 18.5614 12.6389 18.3879C12.8361 18.3012 13.0192 18.2433 13.16 18.0698C13.1882 18.0698 13.2023 18.0554 13.2304 18.0554C13.2586 18.0554 13.1882 18.0843 13.2164 18.0698C13.2445 18.0554 13.2586 18.0409 13.2868 18.0409C13.4417 17.9686 13.6248 17.8819 13.7797 17.7951C13.7375 17.6216 13.2586 17.9252 13.16 17.9686C13.1178 17.9831 13.1178 17.9831 13.1037 18.012C13.1178 17.9975 13.1459 17.9831 13.16 17.9686C13.1459 17.9831 13.1319 18.012 13.1178 18.012C13.1037 18.0265 13.1037 17.9975 13.0896 17.9975C13.0051 17.9975 12.9347 18.0265 12.8502 18.0409C13.0333 17.9108 13.2023 17.7807 13.3854 17.6361C12.7093 17.824 12.1741 18.1421 11.6389 18.6193C11.484 18.6482 11.3713 18.6771 11.315 18.8361C11.2305 18.8506 11.1742 18.8651 11.2164 18.9518C11.1883 18.9518 11.1601 18.9663 11.146 18.9663C11.1178 18.9663 11.1601 18.9518 11.1319 18.9518C11.1178 18.9374 11.1038 18.9663 11.0897 18.9663C11.0756 18.9807 11.1038 18.9807 11.1038 18.9807C10.977 19.0386 10.9066 19.0819 10.9207 19.2265C10.7376 19.2699 10.5967 19.3567 10.47 19.5012C10.4841 19.5012 10.4841 19.5157 10.4841 19.5157C10.3291 19.6025 10.2305 19.6603 10.2024 19.8627C10.132 19.8772 10.0474 19.9928 10.0193 20.0218C9.99111 20.0651 10.0052 20.0362 9.99111 20.0507C9.96294 20.0651 9.94886 20.0941 9.93478 20.1085C9.92069 20.123 9.89252 20.1519 9.89252 20.1664C9.89252 20.1808 9.90661 20.1664 9.90661 20.1808C9.80802 20.282 9.75168 20.3832 9.69535 20.5134C9.68126 20.5134 9.65309 20.5278 9.65309 20.5423C9.65309 20.5567 9.68126 20.5134 9.66718 20.5278C9.63901 20.5423 9.63901 20.5567 9.62493 20.5712C9.61084 20.5857 9.58268 20.6435 9.56859 20.6579C9.55451 20.6869 9.54042 20.7158 9.52634 20.7302C9.51226 20.7447 9.51225 20.7447 9.51225 20.7447C9.30099 20.8315 9.28691 20.9905 9.31508 21.2074C9.28691 21.2074 9.27283 21.2218 9.24466 21.2218C9.16015 21.3809 9.06157 21.5255 9.01931 21.7134C8.99115 21.7424 8.96298 21.7857 8.94889 21.8146C8.94889 21.8002 8.93481 21.7857 8.93481 21.7857C8.89256 21.8291 8.8503 21.8869 8.8503 21.9448C8.8503 21.9592 8.83622 21.9592 8.83622 21.9592C8.73763 22.1038 8.65313 22.234 8.66721 22.4219C8.65313 22.4364 8.65313 22.4364 8.65313 22.4508C8.65313 22.4653 8.66721 22.4653 8.66721 22.4798C8.58271 22.4942 8.56862 22.552 8.58271 22.6388C8.61088 22.6533 8.65313 22.6677 8.66721 22.6822C8.62496 22.6388 8.58271 22.6966 8.56862 22.7111C8.55454 22.74 8.56862 22.74 8.56862 22.74C8.54046 22.7689 8.54046 22.7834 8.51229 22.8268C8.4982 22.7834 8.47004 22.7689 8.47004 22.6966C8.47004 22.6243 8.54046 22.5376 8.45595 22.4942C8.47004 22.4798 8.47004 22.4653 8.48412 22.4508C8.4982 22.4364 8.4982 22.4798 8.51229 22.4798C8.54046 22.4508 8.54046 22.4219 8.4982 22.4075H8.48412C8.55454 22.3207 8.58271 22.2484 8.56862 22.1327C8.59679 22.1327 8.61088 22.1327 8.62496 22.1183C8.63904 22.1038 8.63904 22.046 8.61088 22.0315C8.59679 22.0171 8.61088 22.0171 8.62496 22.0026C8.69538 21.8146 8.69538 21.6267 8.45595 21.6411C8.4137 21.6411 8.4137 21.7279 8.38553 21.7568C8.37145 21.7424 8.35736 21.7424 8.35736 21.7279C8.35736 21.7134 8.37145 21.7279 8.37145 21.699C8.47004 21.4532 8.55454 21.2074 8.61088 20.9471C8.70947 20.7592 8.80805 20.5712 8.86439 20.3688C8.70947 20.4266 8.65313 20.5134 8.61088 20.6724C8.52637 20.7013 8.48412 20.7592 8.4137 20.8315C8.38553 20.8748 8.34328 20.976 8.30103 21.005C8.08977 21.2074 7.89259 21.5544 7.90668 21.8291C7.92076 22.0171 7.94893 21.858 7.92076 21.9014C7.89259 21.9303 7.85034 21.9159 7.83626 21.9448C7.82217 21.9737 7.82217 21.9737 7.82217 22.0026C7.77992 22.046 7.76584 22.0894 7.76584 22.1617C7.72358 22.2195 7.69541 22.2629 7.72358 22.3207C7.65316 22.393 7.63908 22.4508 7.63908 22.552C7.55457 22.5665 7.54049 22.6966 7.52641 22.74C7.51232 22.7834 7.52641 22.7689 7.51232 22.7689C7.49824 22.7834 7.51232 22.7834 7.51232 22.7834C7.28698 23.0581 7.16022 23.5063 7.16022 23.81C7.16022 23.9545 7.17431 23.8389 7.17431 23.8967C7.17431 23.9545 7.18839 23.8967 7.17431 23.9256C7.16022 23.9545 7.16022 23.969 7.17431 23.9835C7.17431 23.9979 7.16022 23.969 7.16022 23.9835C7.10389 24.1425 7.06163 24.3016 7.07572 24.4895C7.07572 24.504 7.06163 24.504 7.06163 24.504C7.03347 24.5763 7.03347 24.6486 7.04755 24.7209C6.97713 25.0968 6.96304 25.4583 7.01938 25.8486C6.99121 25.9932 7.0053 26.1089 7.0898 26.239C7.07572 26.239 7.07572 26.2679 7.06163 26.2535C7.04755 26.239 7.03347 26.2246 7.01938 26.2101C6.99121 26.4559 6.99121 26.6873 7.0898 26.933C7.0898 26.9764 7.10389 27.0053 7.11797 27.0487H7.10389C7.07572 27.0776 7.11797 27.1499 7.13205 27.1644C7.14614 27.1788 7.13205 27.1644 7.14614 27.1788C7.16022 27.1933 7.18839 27.2078 7.21656 27.1933C7.21656 27.1933 7.20247 27.1788 7.21656 27.1788C7.23064 27.1933 7.24473 27.1644 7.25881 27.1499C7.27289 27.1355 7.27289 27.1499 7.27289 27.1355C7.28698 27.4391 7.3574 27.7138 7.45599 28.003C7.45599 28.0897 7.47007 28.1765 7.49824 28.2633C7.48415 28.191 7.45599 28.1187 7.39965 28.0898C7.38557 28.0753 7.38557 28.0897 7.38557 28.0753C7.34331 28.0319 7.34331 27.9741 7.30106 27.9162C7.28698 28.003 7.30106 28.0464 7.38557 28.0753C7.3574 28.4512 7.51232 28.7115 7.72358 29.0007C7.72358 29.0151 7.7095 28.9862 7.7095 29.0007C7.72358 29.0151 7.73767 29.0296 7.73767 29.044C7.76583 29.0874 7.77992 29.1308 7.80809 29.1742C7.80809 29.1886 7.82217 29.1742 7.82217 29.1742C7.80809 29.2175 7.80809 29.2609 7.85034 29.2754C7.86442 29.2754 7.85034 29.2898 7.85034 29.2898C7.89259 29.4489 7.9771 29.6079 8.0616 29.7525L8.04752 29.767C8.0616 29.8393 8.07568 29.8971 8.13202 29.9405C8.1461 30.0128 8.17427 30.0851 8.21652 30.1284C8.25878 30.1718 8.30103 30.2007 8.34328 30.2296C8.21652 30.273 8.35736 30.3309 8.4137 30.3742C8.42778 30.6345 8.55454 30.7791 8.72355 30.9381C8.7658 31.0249 8.80805 31.0827 8.90664 31.1261C8.96298 31.1984 9.0334 31.2707 9.08973 31.3285C9.10382 31.343 9.06157 31.3285 9.07565 31.343C9.1179 31.3574 9.17424 31.3719 9.21649 31.3863C9.18832 31.4008 9.17424 31.4153 9.14607 31.4297C9.27283 31.5743 9.39958 31.7044 9.55451 31.8057C9.63901 31.9069 9.70943 31.9647 9.85027 32.0081C9.85027 32.0225 9.83619 32.0225 9.83619 32.037C9.83619 32.0514 9.85027 32.0514 9.85027 32.0514C9.85027 32.0659 9.83619 32.0225 9.83619 32.037C9.83619 32.0514 9.86436 32.0659 9.87844 32.0804C9.89252 32.0804 9.86436 32.0659 9.86436 32.0659C9.90661 32.1093 9.96294 32.1382 10.0052 32.1816C9.99111 32.2105 9.97703 32.2105 9.97703 32.2394C9.99111 32.2683 10.0052 32.2828 10.0474 32.2683C10.1038 32.4563 10.2024 32.5286 10.3855 32.5575C10.3995 32.572 10.3714 32.5864 10.3995 32.6009C10.4277 32.6153 10.47 32.6009 10.4841 32.572C10.5545 32.731 10.6531 32.8178 10.8221 32.8901C10.9488 33.0057 11.0897 33.0925 11.2587 33.1503C11.2446 33.1648 11.2446 33.1648 11.2446 33.1648C11.3995 33.3094 11.5122 33.425 11.7234 33.3817C11.7375 33.3817 11.7375 33.3672 11.7516 33.3817C11.808 33.425 11.9065 33.5118 11.9488 33.5552C11.991 33.5985 11.9488 33.5841 11.977 33.5841C12.0192 33.6853 12.1037 33.7287 12.1741 33.6275C12.2727 33.7576 12.3713 33.8154 12.5262 33.8443C12.5403 33.8443 12.5544 33.8443 12.5544 33.8588C12.6248 33.9022 12.6812 33.9311 12.7375 33.8588C12.9347 34.0757 13.1037 34.0901 13.3854 34.1624C13.4699 34.1913 13.6811 34.2926 13.7938 34.2926C13.9206 34.3504 14.0051 34.3793 14.1459 34.3359C14.0473 34.2926 13.9628 34.2492 13.8501 34.2492C13.8361 34.2347 13.8361 34.2203 13.8361 34.2058C13.822 34.1913 13.8079 34.1913 13.8079 34.1913C13.8783 34.1913 13.9346 34.1913 14.0051 34.2058C14.1036 34.2781 14.1882 34.2926 14.3008 34.2492C14.3994 34.2926 14.5121 34.307 14.6248 34.2926C14.6388 34.2926 14.6248 34.2636 14.6388 34.2636C14.6529 34.2636 14.667 34.2781 14.6811 34.2781C14.7233 34.3793 14.9628 34.3648 15.0191 34.3648C15.0754 34.3648 15.0332 34.3504 15.0473 34.3504C15.0614 34.3504 15.0754 34.3359 15.1036 34.3359C15.1177 34.3359 15.1036 34.3504 15.1036 34.3504C15.1459 34.3649 15.1881 34.3649 15.2022 34.307C15.2022 34.307 15.2022 34.2926 15.2163 34.307C15.3712 34.3938 15.4698 34.3359 15.6247 34.2636C15.836 34.4516 16.3571 34.3504 16.5402 34.3359C16.8923 34.307 16.9486 34.3215 17.2303 34.1769C17.2585 34.1913 17.3148 34.1913 17.3571 34.1913C17.3289 34.2203 17.2866 34.2347 17.2585 34.2636C17.5824 34.2347 17.8359 34.1769 18.1739 34.1046C18.4556 34.0323 18.7936 33.9745 19.0331 33.7431C19.0471 33.7431 19.0612 33.7576 19.0612 33.7576C19.0612 33.7576 19.0612 33.7431 19.0753 33.7431C19.1176 33.7287 19.1457 33.7431 19.1739 33.7576C19.3429 33.7142 19.4837 33.6853 19.526 33.4829C19.5401 33.5118 19.5542 33.5407 19.5542 33.5696C19.6809 33.5407 19.7654 33.5262 19.8359 33.4106C19.8499 33.4106 19.8781 33.3961 19.8922 33.3961C20.202 33.2371 20.4696 33.0346 20.7372 32.8033C20.7513 32.8178 20.7654 32.8322 20.7795 32.8322C21.1879 32.6876 21.4555 32.4563 21.6949 32.0948C21.7935 32.0081 21.9062 31.9069 21.9907 31.8057C21.9907 31.8057 21.9907 31.8201 22.0048 31.8057C22.1315 31.6321 22.2583 31.4586 22.3991 31.2851C22.4414 31.2418 22.4696 31.1984 22.4977 31.1405H22.4836C22.4977 31.1116 22.5118 31.0683 22.5259 31.0393C22.54 31.0104 22.54 31.0393 22.5541 31.0249C22.5963 30.996 22.5963 30.9526 22.6245 30.8947C22.54 30.8514 22.4836 30.8947 22.4836 30.996C22.4555 31.0104 22.4132 31.0104 22.3991 31.0249C22.3991 31.0249 22.3991 31.0393 22.3851 31.0393C22.371 31.0393 22.3428 31.0683 22.3428 31.0827C22.3428 31.0972 22.3287 31.0972 22.3287 31.0972C22.3146 31.1116 22.3006 31.1261 22.2865 31.1405C22.1597 31.2562 22.0611 31.3141 21.8921 31.2851C21.6949 31.1839 21.5682 31.3719 21.4414 31.502C21.4133 31.5309 21.371 31.5599 21.3428 31.5888C21.3147 31.6177 21.2583 31.6611 21.2302 31.69C21.2161 31.7044 21.202 31.7044 21.1879 31.7189C21.1738 31.7334 21.202 31.7189 21.202 31.7334C21.1597 31.7623 21.1316 31.8057 21.0752 31.8201C20.9907 31.849 20.9203 31.8635 20.8358 31.8924C20.8781 31.849 20.9062 31.8057 20.9203 31.7478C20.9907 31.69 21.0471 31.6321 21.0893 31.5599C21.0752 31.5309 21.0612 31.5165 21.0471 31.4876C21.1316 31.4731 21.2443 31.4731 21.202 31.3574C21.4837 31.1984 21.6809 31.0104 21.8499 30.7357C21.8499 30.7502 21.8499 30.7646 21.8499 30.7791C21.9344 30.7068 21.9766 30.649 21.9766 30.5477C22.1034 30.5044 22.1738 30.4465 22.2301 30.3019C22.3146 30.2152 22.371 30.1574 22.3569 30.0272C22.371 30.0128 22.3851 30.0128 22.3991 29.9983C22.4132 29.9838 22.4132 29.9694 22.4273 29.9549C22.4414 29.9405 22.4414 29.9549 22.4414 29.9549C22.4555 29.9549 22.4273 29.9549 22.4555 29.9405C22.4836 29.926 22.4977 29.9116 22.4977 29.8971C22.5118 29.8826 22.4836 29.8971 22.4836 29.8971C22.5682 29.7959 22.6386 29.7091 22.6245 29.579C22.9062 29.3477 22.9907 29.0585 23.1033 28.7115C22.7653 28.8561 22.6808 29.2609 22.5259 29.5645C22.4696 29.6658 22.371 29.767 22.3428 29.8826C22.2865 29.8971 22.2583 29.926 22.2161 29.9694C22.202 29.9838 22.1879 29.9838 22.1879 29.9838C22.2724 29.8537 22.3428 29.7525 22.3428 29.579C22.3569 29.579 22.3569 29.5935 22.371 29.5935C22.4696 29.4633 22.54 29.3332 22.6104 29.1886C22.6386 29.1163 22.6808 29.0874 22.6667 29.0007C22.6808 29.0151 22.6808 29.0151 22.6949 29.0151C22.7794 28.8561 22.8921 28.697 22.9343 28.4946C22.9766 28.4657 23.0188 28.4512 23.0611 28.4368C23.0752 28.3934 23.0611 28.3645 23.047 28.3355C23.1174 28.2488 23.1456 28.1765 23.1174 28.0753C23.0752 28.1187 23.0329 28.1476 22.9907 28.1765C23.1174 27.9885 23.1738 27.8006 23.1878 27.5692C23.2301 27.4102 23.2442 27.2511 23.2301 27.0776C23.2442 27.0776 23.2583 27.0921 23.2583 27.0921C23.3005 26.933 23.3146 26.774 23.2583 26.615C23.1456 26.7306 23.1033 26.8318 23.1174 26.9909C23.0048 27.0198 22.9203 27.0776 22.8357 27.1499V27.1355L22.9203 26.5716C22.9343 26.5282 22.9343 26.4704 22.9203 26.427C22.7372 26.4993 22.7231 26.6728 22.6386 26.8318C22.2865 26.933 22.2724 27.2511 22.1879 27.5692C22.1034 27.6126 22.0048 27.815 21.9907 27.8873C21.9766 27.9596 21.9766 27.9307 21.9766 27.9452C21.8499 28.1331 21.7372 28.1476 21.5259 28.162C21.4696 28.2054 21.4273 28.2488 21.3992 28.3066C21.3851 28.3211 21.3851 28.2922 21.3851 28.2922C21.3428 28.3066 21.3147 28.3355 21.3006 28.3789C21.0893 28.3066 20.9485 28.4368 20.7795 28.5813C20.7795 28.5669 20.7936 28.5524 20.7936 28.538C20.6386 28.6681 20.5119 28.7693 20.4837 28.9862C20.3992 29.0585 20.2725 29.1163 20.2161 29.0151C20.188 28.9717 20.2302 28.9862 20.202 28.9862C20.3006 28.8416 20.4415 28.697 20.2865 28.5524C20.1739 28.6536 20.0894 28.7404 20.0612 28.885C20.0471 28.8705 20.0189 28.8705 19.9908 28.8705C19.9063 28.8561 19.8922 28.8416 19.8922 28.7549C19.864 28.7693 19.8499 28.7838 19.8218 28.7838C19.7936 28.7838 19.8218 28.7549 19.8077 28.7549C19.9344 28.6826 20.0049 28.6103 20.0471 28.4801C20.033 28.4657 20.0049 28.4512 19.9908 28.4512C20.0612 28.3934 20.1175 28.3355 20.1739 28.2488C20.1739 28.2633 20.188 28.2633 20.188 28.2777C20.2584 28.1476 20.3147 28.0608 20.2584 27.9162C20.2865 27.9018 20.3006 27.8873 20.3288 27.8873C20.3429 27.5403 20.0894 27.8295 19.9767 27.9596C19.9767 27.9596 19.9908 27.9596 19.9767 27.9741C19.9626 27.9885 19.9485 27.9885 19.9344 28.003C20.0049 27.8729 19.9908 27.6994 19.864 27.815C19.7936 27.8873 19.8358 27.8584 19.8218 27.8729C19.8077 27.8873 19.8218 27.8873 19.8077 27.8873C19.7936 27.9018 19.8077 27.8873 19.8077 27.9018C19.7795 27.9452 19.7513 27.9741 19.7232 28.0175C19.7091 28.0319 19.7091 28.0464 19.7091 28.0464C19.7091 28.0464 19.695 28.0897 19.6809 28.1042C19.6246 28.162 19.5823 28.2343 19.5542 28.3066C19.5542 28.3211 19.5683 28.3066 19.5683 28.3211C19.5683 28.3355 19.5401 28.35 19.5401 28.35C19.526 28.35 19.5683 28.3211 19.5542 28.3211C19.5401 28.3211 19.4978 28.35 19.4978 28.3789C19.4978 28.4078 19.5119 28.3645 19.5119 28.3789C19.5119 28.3934 19.4978 28.3934 19.4978 28.3934C19.4697 28.3789 19.4415 28.4368 19.4274 28.4512C19.4274 28.4657 19.4274 28.4657 19.4274 28.4657C19.4274 28.4657 19.4274 28.4657 19.4133 28.4657C19.3992 28.4801 19.3711 28.4946 19.357 28.5091C19.3429 28.5235 19.3007 28.5669 19.2866 28.5813C19.2725 28.5958 19.2725 28.5958 19.2725 28.5958C19.2866 28.5813 19.2584 28.6103 19.2725 28.5958C19.2584 28.6103 19.2584 28.6247 19.2584 28.6392C19.2443 28.6536 19.2302 28.6536 19.2302 28.6536C19.2162 28.6392 19.2443 28.6247 19.2162 28.6247C19.188 28.6247 19.1739 28.6536 19.1598 28.6681C19.1457 28.6826 19.1739 28.6826 19.1739 28.6826C19.0471 28.7549 18.9626 28.8271 18.9063 28.9717C18.8922 28.9573 18.8922 28.9573 18.8781 28.9573C18.7373 29.044 18.5965 29.1452 18.4697 29.2754C18.4556 29.2898 18.4415 29.2754 18.4274 29.2898C18.3429 29.3766 18.4415 29.3621 18.5119 29.3477C18.0613 29.5356 17.5824 29.7236 17.1458 29.8971C17.0613 29.926 17.0895 29.926 17.019 29.9549C16.8782 29.926 16.7937 29.9694 16.681 30.0417C16.6529 30.0128 16.6247 29.9983 16.5965 29.9694C16.174 29.9549 15.7515 29.9405 15.343 29.9549C14.9769 29.9116 14.6529 29.8971 14.3149 29.738C14.0755 29.6368 13.8783 29.5212 13.6389 29.6802H13.6248C13.6389 29.6658 13.5262 29.7236 13.5262 29.7236C13.5262 29.7236 13.498 29.7236 13.5121 29.7091C13.5262 29.6947 13.6107 29.6802 13.6248 29.6658C13.6389 29.6513 13.6811 29.5935 13.6389 29.5935C13.667 29.5501 13.6811 29.5212 13.7093 29.4778H13.6952C13.5544 29.391 13.3994 29.3187 13.2445 29.232C13.2164 29.1597 13.0896 29.0874 13.0473 29.0729C13.0051 29.0585 13.0192 29.0585 13.0051 29.0585C12.9065 28.9862 12.8361 28.9717 12.7375 29.0007C12.7657 28.9284 12.7657 28.8994 12.7093 28.8561C12.7234 28.8416 12.7375 28.8271 12.7516 28.8271C12.653 28.6826 12.5403 28.5669 12.3854 28.4801C12.4276 28.3066 12.3291 28.2199 12.2164 28.0898C12.2023 28.0753 12.1882 28.0608 12.1882 28.0464C12.1741 28.0464 12.1882 28.0319 12.1741 28.0319C12.1601 28.0319 12.1601 28.0608 12.146 28.0464C12.2446 28.003 12.0896 27.8006 12.0755 27.7717C12.0615 27.7427 12.0615 27.7717 12.0615 27.7572C12.0474 27.7427 12.0896 27.8006 12.0755 27.7717C12.0615 27.7427 12.0615 27.6994 12.0474 27.6849C12.0333 27.6704 12.0333 27.6849 12.0333 27.6849C12.0333 27.6415 12.0192 27.5982 12.0051 27.5548C11.977 27.468 11.9347 27.3957 11.9065 27.309C11.9206 27.309 11.9206 27.3234 11.9206 27.3234C11.9065 27.1788 11.8784 27.0921 11.7516 27.0343C11.7657 26.9909 11.7657 26.962 11.7657 26.9186C11.7798 26.933 11.808 26.933 11.822 26.9475C11.822 26.8897 11.808 26.8318 11.7798 26.7885C11.7798 26.774 11.7657 26.8174 11.7516 26.7885C11.9206 26.7595 11.653 26.3258 11.5826 26.2679ZM13.1178 18.7205C13.1178 18.7349 13.1178 18.7349 13.1178 18.7205ZM13.0896 29.5212C13.1037 29.5212 13.1037 29.5212 13.0896 29.5212ZM24.2019 27.1788C24.1174 27.3379 24.0751 27.5259 24.0188 27.7138C24.2019 27.5692 24.2301 27.4102 24.2019 27.1788ZM23.7512 27.309C23.6808 27.4391 23.6245 27.5692 23.5963 27.7138C23.7653 27.6994 23.7512 27.4391 23.7512 27.309ZM15.9205 19.4868C15.836 19.4579 15.7937 19.4723 15.7656 19.5735C15.8219 19.5446 15.8642 19.5157 15.9205 19.4868ZM24.4836 27.2511C24.4132 27.4536 24.3427 27.6704 24.3005 27.8873C24.2723 27.9885 24.2723 28.0898 24.2301 28.162C24.216 28.191 24.216 28.1765 24.216 28.191C24.1878 28.2199 24.1315 28.2777 24.1878 28.2922C24.2442 28.3211 24.2723 28.2343 24.2582 28.191C24.3287 28.1042 24.3427 28.0319 24.3146 27.9307C24.5117 27.7138 24.4977 27.4969 24.4836 27.2511ZM14.9346 19.8916C15.2163 19.8049 15.498 19.6892 15.7656 19.5735C15.4135 19.5157 15.2022 19.6748 14.9346 19.8916Z" fill="#47F7F7"/>
<path d="M22.92 26.9325C22.92 26.9325 22.9764 26.4409 22.9623 26.0071C22.9623 25.9782 22.9623 25.9782 22.9623 25.9493C22.9623 25.9348 22.9623 25.9637 22.9764 25.9493C23.0186 25.8192 23.0186 25.689 23.0186 25.5444C23.1031 25.5734 23.1454 25.6457 23.1595 25.7324C23.1736 25.8192 23.2017 25.8915 23.1313 25.9348C23.0609 25.7179 23.1736 26.0939 23.1736 26.1517C23.1595 26.224 23.1454 26.3397 23.1595 26.412C23.1454 26.3975 23.1454 26.383 23.1454 26.3686C23.1031 26.4698 23.0468 26.571 23.0045 26.6867L22.92 26.9325Z" fill="#47F7F7"/>
<path d="M13.7375 17.5492C13.8501 17.5203 13.9487 17.4769 14.0755 17.448C14.1459 17.419 14.2022 17.4046 14.2586 17.3757C14.329 17.3467 14.4135 17.3178 14.4839 17.2889C14.5684 17.26 14.667 17.2166 14.7515 17.1877C14.8501 17.1443 14.9346 17.1009 15.0332 17.0576C14.8783 17.0865 14.7233 17.1154 14.5684 17.1588C14.4276 17.2022 14.3008 17.2455 14.1741 17.3178C14.0191 17.3757 13.8783 17.4624 13.7375 17.5492Z" fill="#47F7F7"/>
<path d="M19.7373 18.8645C19.5964 18.7922 19.4978 18.7778 19.3288 18.8501C19.4556 18.9368 19.5683 18.9368 19.7373 18.8645Z" fill="#47F7F7"/>
<path d="M16.5686 19.2406C16.7376 19.2984 16.8362 19.2551 16.977 19.1539C16.808 19.1249 16.6954 19.1394 16.5686 19.2406Z" fill="#47F7F7"/>
<path d="M24.0049 26.0359C24.019 26.0503 24.0049 26.0503 24.0049 26.0359C23.9063 26.166 23.9485 26.2672 24.019 26.3974C24.0331 26.3251 24.019 26.2528 24.0331 26.1949C24.0471 26.1226 24.0612 26.0937 24.0471 26.0359C24.0331 25.9636 24.0331 25.8335 24.0331 25.7756C24.019 25.7323 24.0331 25.7467 24.0331 25.7467C24.0471 25.6455 24.0049 25.4575 23.9908 25.3852C23.9485 25.2262 23.9345 25.9636 23.9485 26.0648C23.9767 26.0503 23.9908 26.0359 24.0049 26.0359Z" fill="#47F7F7"/>
<path d="M170.378 25V19.51H168.362V18.637H173.339V19.51H171.332V25H170.378ZM174.294 25V18.637H175.248V21.436H178.434V18.637H179.388V25H178.434V22.309H175.248V25H174.294ZM180.976 25V18.637H185.359V19.51H181.93V21.418H184.963V22.282H181.93V24.127H185.359V25H180.976ZM191.485 25.072C191.071 25.072 190.681 25.012 190.315 24.892C189.949 24.772 189.64 24.577 189.388 24.307C189.136 24.037 188.968 23.68 188.884 23.236H189.865C189.943 23.488 190.069 23.686 190.243 23.83C190.417 23.968 190.618 24.064 190.846 24.118C191.08 24.172 191.314 24.199 191.548 24.199C191.77 24.199 191.977 24.169 192.169 24.109C192.367 24.049 192.529 23.95 192.655 23.812C192.781 23.674 192.844 23.494 192.844 23.272C192.844 23.104 192.811 22.966 192.745 22.858C192.679 22.75 192.586 22.663 192.466 22.597C192.352 22.525 192.214 22.468 192.052 22.426C191.866 22.366 191.665 22.315 191.449 22.273C191.239 22.231 191.029 22.183 190.819 22.129C190.615 22.075 190.423 22.006 190.243 21.922C190.093 21.862 189.946 21.79 189.802 21.706C189.664 21.616 189.544 21.511 189.442 21.391C189.34 21.265 189.256 21.118 189.19 20.95C189.13 20.782 189.1 20.59 189.1 20.374C189.1 20.086 189.145 19.84 189.235 19.636C189.331 19.432 189.454 19.261 189.604 19.123C189.76 18.985 189.937 18.877 190.135 18.799C190.339 18.715 190.552 18.655 190.774 18.619C190.996 18.583 191.212 18.565 191.422 18.565C191.806 18.565 192.16 18.625 192.484 18.745C192.808 18.865 193.075 19.057 193.285 19.321C193.501 19.579 193.618 19.921 193.636 20.347H192.709C192.685 20.119 192.607 19.939 192.475 19.807C192.349 19.669 192.19 19.573 191.998 19.519C191.806 19.459 191.602 19.429 191.386 19.429C191.23 19.429 191.074 19.444 190.918 19.474C190.762 19.498 190.618 19.546 190.486 19.618C190.36 19.684 190.258 19.774 190.18 19.888C190.108 20.002 190.072 20.143 190.072 20.311C190.072 20.455 190.102 20.584 190.162 20.698C190.222 20.806 190.306 20.899 190.414 20.977C190.528 21.049 190.654 21.112 190.792 21.166C191.044 21.262 191.32 21.337 191.62 21.391C191.92 21.439 192.202 21.508 192.466 21.598C192.658 21.658 192.838 21.733 193.006 21.823C193.174 21.907 193.318 22.012 193.438 22.138C193.558 22.258 193.651 22.402 193.717 22.57C193.783 22.732 193.816 22.921 193.816 23.137C193.816 23.491 193.753 23.794 193.627 24.046C193.501 24.292 193.33 24.49 193.114 24.64C192.898 24.79 192.649 24.901 192.367 24.973C192.085 25.039 191.791 25.072 191.485 25.072ZM195.142 25V18.637H199.525V19.51H196.096V21.418H199.129V22.282H196.096V24.127H199.525V25H195.142ZM200.76 25V18.637H205.143V19.51H201.714V21.418H204.747V22.282H201.714V24.127H205.143V25H200.76ZM206.378 25V18.637H208.682C209.348 18.637 209.906 18.769 210.356 19.033C210.812 19.291 211.154 19.66 211.382 20.14C211.616 20.614 211.733 21.175 211.733 21.823C211.733 22.471 211.619 23.032 211.391 23.506C211.163 23.98 210.821 24.349 210.365 24.613C209.915 24.871 209.357 25 208.691 25H206.378ZM207.332 24.127H208.646C209.138 24.127 209.54 24.031 209.852 23.839C210.164 23.641 210.395 23.371 210.545 23.029C210.695 22.681 210.77 22.279 210.77 21.823C210.77 21.379 210.695 20.983 210.545 20.635C210.401 20.287 210.173 20.014 209.861 19.816C209.555 19.612 209.159 19.51 208.673 19.51H207.332V24.127ZM215.532 25V18.637H217.827C218.301 18.637 218.709 18.712 219.051 18.862C219.399 19.012 219.666 19.246 219.852 19.564C220.038 19.876 220.131 20.281 220.131 20.779C220.131 21.259 220.023 21.661 219.807 21.985C219.597 22.309 219.309 22.555 218.943 22.723C218.577 22.885 218.16 22.966 217.692 22.966H216.486V25H215.532ZM216.486 22.102H217.656C218.112 22.102 218.478 21.997 218.754 21.787C219.03 21.571 219.168 21.226 219.168 20.752C219.168 20.338 219.054 20.029 218.826 19.825C218.598 19.615 218.253 19.51 217.791 19.51H216.486V22.102ZM221.361 25V18.637H222.315V21.436H225.501V18.637H226.455V25H225.501V22.309H222.315V25H221.361ZM228.043 25V18.637H230.491C230.833 18.637 231.145 18.673 231.427 18.745C231.709 18.811 231.955 18.922 232.165 19.078C232.375 19.228 232.537 19.432 232.651 19.69C232.765 19.948 232.822 20.266 232.822 20.644C232.822 20.986 232.762 21.28 232.642 21.526C232.522 21.772 232.357 21.976 232.147 22.138C231.937 22.3 231.7 22.423 231.436 22.507L232.795 25H231.742L230.482 22.66H228.997V25H228.043ZM228.997 21.805H230.293C230.509 21.805 230.71 21.79 230.896 21.76C231.088 21.724 231.256 21.664 231.4 21.58C231.544 21.49 231.655 21.37 231.733 21.22C231.817 21.064 231.859 20.866 231.859 20.626C231.865 20.35 231.811 20.131 231.697 19.969C231.589 19.801 231.427 19.684 231.211 19.618C230.995 19.546 230.734 19.51 230.428 19.51H228.997V21.805ZM233.461 25L235.864 18.637H237.097L239.491 25H238.465L237.997 23.722H234.955L234.487 25H233.461ZM235.27 22.867H237.682L236.476 19.546L235.27 22.867ZM242.56 25.072C242.146 25.072 241.756 25.012 241.39 24.892C241.024 24.772 240.715 24.577 240.463 24.307C240.211 24.037 240.043 23.68 239.959 23.236H240.94C241.018 23.488 241.144 23.686 241.318 23.83C241.492 23.968 241.693 24.064 241.921 24.118C242.155 24.172 242.389 24.199 242.623 24.199C242.845 24.199 243.052 24.169 243.244 24.109C243.442 24.049 243.604 23.95 243.73 23.812C243.856 23.674 243.919 23.494 243.919 23.272C243.919 23.104 243.886 22.966 243.82 22.858C243.754 22.75 243.661 22.663 243.541 22.597C243.427 22.525 243.289 22.468 243.127 22.426C242.941 22.366 242.74 22.315 242.524 22.273C242.314 22.231 242.104 22.183 241.894 22.129C241.69 22.075 241.498 22.006 241.318 21.922C241.168 21.862 241.021 21.79 240.877 21.706C240.739 21.616 240.619 21.511 240.517 21.391C240.415 21.265 240.331 21.118 240.265 20.95C240.205 20.782 240.175 20.59 240.175 20.374C240.175 20.086 240.22 19.84 240.31 19.636C240.406 19.432 240.529 19.261 240.679 19.123C240.835 18.985 241.012 18.877 241.21 18.799C241.414 18.715 241.627 18.655 241.849 18.619C242.071 18.583 242.287 18.565 242.497 18.565C242.881 18.565 243.235 18.625 243.559 18.745C243.883 18.865 244.15 19.057 244.36 19.321C244.576 19.579 244.693 19.921 244.711 20.347H243.784C243.76 20.119 243.682 19.939 243.55 19.807C243.424 19.669 243.265 19.573 243.073 19.519C242.881 19.459 242.677 19.429 242.461 19.429C242.305 19.429 242.149 19.444 241.993 19.474C241.837 19.498 241.693 19.546 241.561 19.618C241.435 19.684 241.333 19.774 241.255 19.888C241.183 20.002 241.147 20.143 241.147 20.311C241.147 20.455 241.177 20.584 241.237 20.698C241.297 20.806 241.381 20.899 241.489 20.977C241.603 21.049 241.729 21.112 241.867 21.166C242.119 21.262 242.395 21.337 242.695 21.391C242.995 21.439 243.277 21.508 243.541 21.598C243.733 21.658 243.913 21.733 244.081 21.823C244.249 21.907 244.393 22.012 244.513 22.138C244.633 22.258 244.726 22.402 244.792 22.57C244.858 22.732 244.891 22.921 244.891 23.137C244.891 23.491 244.828 23.794 244.702 24.046C244.576 24.292 244.405 24.49 244.189 24.64C243.973 24.79 243.724 24.901 243.442 24.973C243.16 25.039 242.866 25.072 242.56 25.072ZM246.216 25V18.637H250.599V19.51H247.17V21.418H250.203V22.282H247.17V24.127H250.599V25H246.216ZM254.394 25V18.637H255.753L257.598 21.994L259.407 18.637H260.73V25H259.785V19.762L257.778 23.416H257.364L255.348 19.762V25H254.394ZM261.632 25L264.035 18.637H265.268L267.662 25H266.636L266.168 23.722H263.126L262.658 25H261.632ZM263.441 22.867H265.853L264.647 19.546L263.441 22.867ZM268.558 25V18.637H269.665L272.86 23.605V18.637H273.805V25H272.725L269.512 20.059V25H268.558ZM274.705 25L277.108 18.637H278.341L280.735 25H279.709L279.241 23.722H276.199L275.731 25H274.705ZM276.514 22.867H278.926L277.72 19.546L276.514 22.867ZM284.101 25.072C283.441 25.072 282.889 24.934 282.445 24.658C282.007 24.382 281.677 24.001 281.455 23.515C281.233 23.023 281.122 22.462 281.122 21.832C281.122 21.358 281.182 20.923 281.302 20.527C281.428 20.125 281.614 19.777 281.86 19.483C282.106 19.189 282.412 18.964 282.778 18.808C283.15 18.646 283.579 18.565 284.065 18.565C284.539 18.565 284.956 18.64 285.316 18.79C285.676 18.934 285.973 19.144 286.207 19.42C286.447 19.696 286.609 20.029 286.693 20.419H285.685C285.631 20.209 285.529 20.032 285.379 19.888C285.235 19.744 285.052 19.633 284.83 19.555C284.614 19.477 284.368 19.438 284.092 19.438C283.732 19.438 283.426 19.501 283.174 19.627C282.922 19.753 282.715 19.927 282.553 20.149C282.397 20.365 282.283 20.617 282.211 20.905C282.139 21.193 282.103 21.499 282.103 21.823C282.103 22.255 282.172 22.651 282.31 23.011C282.448 23.371 282.664 23.659 282.958 23.875C283.252 24.091 283.636 24.199 284.11 24.199C284.476 24.199 284.791 24.136 285.055 24.01C285.319 23.878 285.526 23.692 285.676 23.452C285.826 23.206 285.904 22.909 285.91 22.561H283.939V21.724H286.846V22.192C286.846 22.774 286.738 23.281 286.522 23.713C286.306 24.145 285.994 24.481 285.586 24.721C285.178 24.955 284.683 25.072 284.101 25.072ZM288.076 25V18.637H292.459V19.51H289.03V21.418H292.063V22.282H289.03V24.127H292.459V25H288.076ZM293.694 25V18.637H296.142C296.484 18.637 296.796 18.673 297.078 18.745C297.36 18.811 297.606 18.922 297.816 19.078C298.026 19.228 298.188 19.432 298.302 19.69C298.416 19.948 298.473 20.266 298.473 20.644C298.473 20.986 298.413 21.28 298.293 21.526C298.173 21.772 298.008 21.976 297.798 22.138C297.588 22.3 297.351 22.423 297.087 22.507L298.446 25H297.393L296.133 22.66H294.648V25H293.694ZM294.648 21.805H295.944C296.16 21.805 296.361 21.79 296.547 21.76C296.739 21.724 296.907 21.664 297.051 21.58C297.195 21.49 297.306 21.37 297.384 21.22C297.468 21.064 297.51 20.866 297.51 20.626C297.516 20.35 297.462 20.131 297.348 19.969C297.24 19.801 297.078 19.684 296.862 19.618C296.646 19.546 296.385 19.51 296.079 19.51H294.648V21.805ZM168.992 37V30.637H171.413C171.719 30.637 171.998 30.664 172.25 30.718C172.508 30.766 172.73 30.853 172.916 30.979C173.102 31.099 173.243 31.264 173.339 31.474C173.441 31.678 173.492 31.936 173.492 32.248C173.492 32.554 173.423 32.83 173.285 33.076C173.147 33.316 172.937 33.496 172.655 33.616C173.033 33.7 173.318 33.871 173.51 34.129C173.708 34.387 173.807 34.726 173.807 35.146C173.807 35.506 173.741 35.806 173.609 36.046C173.477 36.286 173.294 36.475 173.06 36.613C172.826 36.751 172.556 36.85 172.25 36.91C171.944 36.97 171.617 37 171.269 37H168.992ZM169.946 36.127H171.305C171.485 36.127 171.665 36.118 171.845 36.1C172.025 36.076 172.19 36.031 172.34 35.965C172.496 35.899 172.619 35.8 172.709 35.668C172.805 35.536 172.853 35.359 172.853 35.137C172.853 34.951 172.817 34.798 172.745 34.678C172.673 34.552 172.577 34.453 172.457 34.381C172.337 34.309 172.196 34.258 172.034 34.228C171.878 34.198 171.716 34.183 171.548 34.183H169.946V36.127ZM169.946 33.364H171.152C171.356 33.364 171.542 33.346 171.71 33.31C171.884 33.274 172.034 33.214 172.16 33.13C172.286 33.046 172.382 32.941 172.448 32.815C172.52 32.683 172.556 32.524 172.556 32.338C172.562 32.092 172.508 31.912 172.394 31.798C172.286 31.678 172.139 31.6 171.953 31.564C171.767 31.522 171.563 31.501 171.341 31.501H169.946V33.364ZM176.609 37V34.615L174.314 30.637H175.421L177.095 33.688L178.76 30.637H179.84L177.554 34.606V37H176.609ZM185.962 37.072C185.308 37.072 184.759 36.934 184.315 36.658C183.877 36.382 183.547 36.001 183.325 35.515C183.103 35.029 182.992 34.468 182.992 33.832C182.992 33.196 183.103 32.632 183.325 32.14C183.553 31.648 183.886 31.264 184.324 30.988C184.768 30.706 185.317 30.565 185.971 30.565C186.445 30.565 186.859 30.643 187.213 30.799C187.567 30.949 187.852 31.165 188.068 31.447C188.29 31.723 188.437 32.053 188.509 32.437H187.573C187.483 32.131 187.3 31.888 187.024 31.708C186.748 31.528 186.394 31.438 185.962 31.438C185.482 31.438 185.095 31.549 184.801 31.771C184.513 31.993 184.303 32.284 184.171 32.644C184.039 32.998 183.973 33.382 183.973 33.796C183.973 34.222 184.042 34.618 184.18 34.984C184.318 35.35 184.537 35.644 184.837 35.866C185.137 36.088 185.521 36.199 185.989 36.199C186.277 36.199 186.532 36.16 186.754 36.082C186.976 35.998 187.162 35.881 187.312 35.731C187.462 35.575 187.564 35.395 187.618 35.191H188.617C188.539 35.581 188.38 35.917 188.14 36.199C187.9 36.481 187.597 36.697 187.231 36.847C186.865 36.997 186.442 37.072 185.962 37.072ZM189.796 37V30.637H194.179V31.51H190.75V33.418H193.783V34.282H190.75V36.127H194.179V37H189.796ZM195.414 37V30.637H196.521L199.716 35.605V30.637H200.661V37H199.581L196.368 32.059V37H195.414ZM204.576 37.072C204.162 37.072 203.772 37.012 203.406 36.892C203.04 36.772 202.731 36.577 202.479 36.307C202.227 36.037 202.059 35.68 201.975 35.236H202.956C203.034 35.488 203.16 35.686 203.334 35.83C203.508 35.968 203.709 36.064 203.937 36.118C204.171 36.172 204.405 36.199 204.639 36.199C204.861 36.199 205.068 36.169 205.26 36.109C205.458 36.049 205.62 35.95 205.746 35.812C205.872 35.674 205.935 35.494 205.935 35.272C205.935 35.104 205.902 34.966 205.836 34.858C205.77 34.75 205.677 34.663 205.557 34.597C205.443 34.525 205.305 34.468 205.143 34.426C204.957 34.366 204.756 34.315 204.54 34.273C204.33 34.231 204.12 34.183 203.91 34.129C203.706 34.075 203.514 34.006 203.334 33.922C203.184 33.862 203.037 33.79 202.893 33.706C202.755 33.616 202.635 33.511 202.533 33.391C202.431 33.265 202.347 33.118 202.281 32.95C202.221 32.782 202.191 32.59 202.191 32.374C202.191 32.086 202.236 31.84 202.326 31.636C202.422 31.432 202.545 31.261 202.695 31.123C202.851 30.985 203.028 30.877 203.226 30.799C203.43 30.715 203.643 30.655 203.865 30.619C204.087 30.583 204.303 30.565 204.513 30.565C204.897 30.565 205.251 30.625 205.575 30.745C205.899 30.865 206.166 31.057 206.376 31.321C206.592 31.579 206.709 31.921 206.727 32.347H205.8C205.776 32.119 205.698 31.939 205.566 31.807C205.44 31.669 205.281 31.573 205.089 31.519C204.897 31.459 204.693 31.429 204.477 31.429C204.321 31.429 204.165 31.444 204.009 31.474C203.853 31.498 203.709 31.546 203.577 31.618C203.451 31.684 203.349 31.774 203.271 31.888C203.199 32.002 203.163 32.143 203.163 32.311C203.163 32.455 203.193 32.584 203.253 32.698C203.313 32.806 203.397 32.899 203.505 32.977C203.619 33.049 203.745 33.112 203.883 33.166C204.135 33.262 204.411 33.337 204.711 33.391C205.011 33.439 205.293 33.508 205.557 33.598C205.749 33.658 205.929 33.733 206.097 33.823C206.265 33.907 206.409 34.012 206.529 34.138C206.649 34.258 206.742 34.402 206.808 34.57C206.874 34.732 206.907 34.921 206.907 35.137C206.907 35.491 206.844 35.794 206.718 36.046C206.592 36.292 206.421 36.49 206.205 36.64C205.989 36.79 205.74 36.901 205.458 36.973C205.176 37.039 204.882 37.072 204.576 37.072ZM210.985 37.072C210.331 37.072 209.776 36.934 209.32 36.658C208.87 36.376 208.528 35.989 208.294 35.497C208.06 35.005 207.943 34.447 207.943 33.823C207.943 33.193 208.06 32.632 208.294 32.14C208.528 31.648 208.873 31.264 209.329 30.988C209.785 30.706 210.34 30.565 210.994 30.565C211.654 30.565 212.209 30.703 212.659 30.979C213.109 31.255 213.451 31.639 213.685 32.131C213.919 32.623 214.036 33.184 214.036 33.814C214.036 34.438 213.919 34.996 213.685 35.488C213.451 35.98 213.106 36.367 212.65 36.649C212.2 36.931 211.645 37.072 210.985 37.072ZM210.994 36.199C211.474 36.199 211.867 36.088 212.173 35.866C212.479 35.644 212.704 35.353 212.848 34.993C212.992 34.633 213.064 34.243 213.064 33.823C213.064 33.505 213.022 33.202 212.938 32.914C212.86 32.626 212.737 32.371 212.569 32.149C212.401 31.927 212.185 31.753 211.921 31.627C211.657 31.501 211.348 31.438 210.994 31.438C210.52 31.438 210.127 31.549 209.815 31.771C209.509 31.993 209.281 32.284 209.131 32.644C208.981 33.004 208.906 33.397 208.906 33.823C208.906 34.243 208.978 34.633 209.122 34.993C209.272 35.353 209.5 35.644 209.806 35.866C210.118 36.088 210.514 36.199 210.994 36.199ZM217.826 37V30.637H218.78V37H217.826ZM220.368 37V30.637H221.475L224.67 35.605V30.637H225.615V37H224.535L221.322 32.059V37H220.368ZM229.818 37.072C229.164 37.072 228.615 36.934 228.171 36.658C227.733 36.382 227.403 36.001 227.181 35.515C226.959 35.029 226.848 34.468 226.848 33.832C226.848 33.196 226.959 32.632 227.181 32.14C227.409 31.648 227.742 31.264 228.18 30.988C228.624 30.706 229.173 30.565 229.827 30.565C230.301 30.565 230.715 30.643 231.069 30.799C231.423 30.949 231.708 31.165 231.924 31.447C232.146 31.723 232.293 32.053 232.365 32.437H231.429C231.339 32.131 231.156 31.888 230.88 31.708C230.604 31.528 230.25 31.438 229.818 31.438C229.338 31.438 228.951 31.549 228.657 31.771C228.369 31.993 228.159 32.284 228.027 32.644C227.895 32.998 227.829 33.382 227.829 33.796C227.829 34.222 227.898 34.618 228.036 34.984C228.174 35.35 228.393 35.644 228.693 35.866C228.993 36.088 229.377 36.199 229.845 36.199C230.133 36.199 230.388 36.16 230.61 36.082C230.832 35.998 231.018 35.881 231.168 35.731C231.318 35.575 231.42 35.395 231.474 35.191H232.473C232.395 35.581 232.236 35.917 231.996 36.199C231.756 36.481 231.453 36.697 231.087 36.847C230.721 36.997 230.298 37.072 229.818 37.072ZM233.839 37.09C233.659 37.09 233.509 37.033 233.389 36.919C233.275 36.805 233.218 36.655 233.218 36.469C233.218 36.283 233.278 36.133 233.398 36.019C233.518 35.899 233.665 35.839 233.839 35.839C234.013 35.839 234.157 35.899 234.271 36.019C234.391 36.133 234.451 36.283 234.451 36.469C234.451 36.655 234.391 36.805 234.271 36.919C234.157 37.033 234.013 37.09 233.839 37.09Z" fill="#122E65"/>
<line x1="153.193" y1="15" x2="153.193" y2="41" stroke="#D9D9D9"/>
</svg>
