<svg width="36" height="36" viewBox="0 0 36 36" fill="none" xmlns="http://www.w3.org/2000/svg">
<path d="M31.5 6.75V10.6875C31.5 10.9859 31.3815 11.272 31.1705 11.483C30.9595 11.694 30.6734 11.8125 30.375 11.8125C30.0766 11.8125 29.7905 11.694 29.5795 11.483C29.3685 11.272 29.25 10.9859 29.25 10.6875V6.75H25.3125C25.0141 6.75 24.728 6.63147 24.517 6.42049C24.306 6.20952 24.1875 5.92337 24.1875 5.625C24.1875 5.32663 24.306 5.04048 24.517 4.82951C24.728 4.61853 25.0141 4.5 25.3125 4.5H29.25C29.8467 4.5 30.419 4.73705 30.841 5.15901C31.2629 5.58097 31.5 6.15326 31.5 6.75ZM30.375 24.1875C30.0766 24.1875 29.7905 24.306 29.5795 24.517C29.3685 24.728 29.25 25.0141 29.25 25.3125V29.25H25.3125C25.0141 29.25 24.728 29.3685 24.517 29.5795C24.306 29.7905 24.1875 30.0766 24.1875 30.375C24.1875 30.6734 24.306 30.9595 24.517 31.1705C24.728 31.3815 25.0141 31.5 25.3125 31.5H29.25C29.8467 31.5 30.419 31.2629 30.841 30.841C31.2629 30.419 31.5 29.8467 31.5 29.25V25.3125C31.5 25.0141 31.3815 24.728 31.1705 24.517C30.9595 24.306 30.6734 24.1875 30.375 24.1875ZM10.6875 29.25H6.75V25.3125C6.75 25.0141 6.63147 24.728 6.42049 24.517C6.20952 24.306 5.92337 24.1875 5.625 24.1875C5.32663 24.1875 5.04048 24.306 4.82951 24.517C4.61853 24.728 4.5 25.0141 4.5 25.3125V29.25C4.5 29.8467 4.73705 30.419 5.15901 30.841C5.58097 31.2629 6.15326 31.5 6.75 31.5H10.6875C10.9859 31.5 11.272 31.3815 11.483 31.1705C11.694 30.9595 11.8125 30.6734 11.8125 30.375C11.8125 30.0766 11.694 29.7905 11.483 29.5795C11.272 29.3685 10.9859 29.25 10.6875 29.25ZM5.625 11.8125C5.92337 11.8125 6.20952 11.694 6.42049 11.483C6.63147 11.272 6.75 10.9859 6.75 10.6875V6.75H10.6875C10.9859 6.75 11.272 6.63147 11.483 6.42049C11.694 6.20952 11.8125 5.92337 11.8125 5.625C11.8125 5.32663 11.694 5.04048 11.483 4.82951C11.272 4.61853 10.9859 4.5 10.6875 4.5H6.75C6.15326 4.5 5.58097 4.73705 5.15901 5.15901C4.73705 5.58097 4.5 6.15326 4.5 6.75V10.6875C4.5 10.9859 4.61853 11.272 4.82951 11.483C5.04048 11.694 5.32663 11.8125 5.625 11.8125ZM24.75 24.75C24.5752 24.7504 24.4028 24.71 24.2463 24.6322C24.0898 24.5543 23.9537 24.4411 23.8486 24.3014C23.1675 23.3932 22.2842 22.6561 21.2688 22.1484C20.2535 21.6407 19.1338 21.3764 17.9986 21.3764C16.8634 21.3764 15.7437 21.6407 14.7283 22.1484C13.713 22.6561 12.8297 23.3932 12.1486 24.3014C11.9692 24.5401 11.7023 24.6978 11.4067 24.7397C11.1111 24.7816 10.8109 24.7044 10.5722 24.525C10.3335 24.3456 10.1758 24.0787 10.1339 23.7831C10.092 23.4875 10.1692 23.1873 10.3486 22.9486C11.3456 21.6136 12.6744 20.5626 14.2031 19.8998C13.3654 19.135 12.7785 18.1348 12.5195 17.0305C12.2604 15.9262 12.3412 14.7694 12.7514 13.7118C13.1615 12.6543 13.8818 11.7454 14.8178 11.1046C15.7537 10.4637 16.8615 10.1208 17.9958 10.1208C19.1301 10.1208 20.2379 10.4637 21.1738 11.1046C22.1097 11.7454 22.83 12.6543 23.2402 13.7118C23.6503 14.7694 23.7312 15.9262 23.4721 17.0305C23.213 18.1348 22.6261 19.135 21.7884 19.8998C23.3182 20.5622 24.648 21.6132 25.6458 22.9486C25.7713 23.1154 25.848 23.3139 25.8671 23.5219C25.8862 23.7298 25.8471 23.9389 25.7542 24.1259C25.6612 24.3129 25.518 24.4703 25.3407 24.5805C25.1633 24.6907 24.9588 24.7494 24.75 24.75ZM18 19.125C18.6675 19.125 19.32 18.9271 19.875 18.5562C20.4301 18.1854 20.8626 17.6583 21.1181 17.0416C21.3735 16.4249 21.4404 15.7463 21.3102 15.0916C21.1799 14.4369 20.8585 13.8355 20.3865 13.3635C19.9145 12.8915 19.3131 12.5701 18.6584 12.4398C18.0037 12.3096 17.3251 12.3765 16.7084 12.6319C16.0917 12.8874 15.5646 13.3199 15.1938 13.875C14.8229 14.43 14.625 15.0825 14.625 15.75C14.625 16.6451 14.9806 17.5036 15.6135 18.1365C16.2464 18.7694 17.1049 19.125 18 19.125Z" fill="white"/>
</svg>

