<svg width="64" height="64" viewBox="0 0 64 64" fill="none" xmlns="http://www.w3.org/2000/svg">
<path d="M50 17V22.25C50 22.6478 49.842 23.0294 49.5607 23.3107C49.2794 23.592 48.8978 23.75 48.5 23.75C48.1022 23.75 47.7206 23.592 47.4393 23.3107C47.158 23.0294 47 22.6478 47 22.25V17H41.75C41.3522 17 40.9706 16.842 40.6893 16.5607C40.408 16.2794 40.25 15.8978 40.25 15.5C40.25 15.1022 40.408 14.7206 40.6893 14.4393C40.9706 14.158 41.3522 14 41.75 14H47C47.7957 14 48.5587 14.3161 49.1213 14.8787C49.6839 15.4413 50 16.2044 50 17ZM48.5 40.25C48.1022 40.25 47.7206 40.408 47.4393 40.6893C47.158 40.9706 47 41.3522 47 41.75V47H41.75C41.3522 47 40.9706 47.158 40.6893 47.4393C40.408 47.7206 40.25 48.1022 40.25 48.5C40.25 48.8978 40.408 49.2794 40.6893 49.5607C40.9706 49.842 41.3522 50 41.75 50H47C47.7957 50 48.5587 49.6839 49.1213 49.1213C49.6839 48.5587 50 47.7957 50 47V41.75C50 41.3522 49.842 40.9706 49.5607 40.6893C49.2794 40.408 48.8978 40.25 48.5 40.25ZM22.25 47H17V41.75C17 41.3522 16.842 40.9706 16.5607 40.6893C16.2794 40.408 15.8978 40.25 15.5 40.25C15.1022 40.25 14.7206 40.408 14.4393 40.6893C14.158 40.9706 14 41.3522 14 41.75V47C14 47.7957 14.3161 48.5587 14.8787 49.1213C15.4413 49.6839 16.2044 50 17 50H22.25C22.6478 50 23.0294 49.842 23.3107 49.5607C23.592 49.2794 23.75 48.8978 23.75 48.5C23.75 48.1022 23.592 47.7206 23.3107 47.4393C23.0294 47.158 22.6478 47 22.25 47ZM15.5 23.75C15.8978 23.75 16.2794 23.592 16.5607 23.3107C16.842 23.0294 17 22.6478 17 22.25V17H22.25C22.6478 17 23.0294 16.842 23.3107 16.5607C23.592 16.2794 23.75 15.8978 23.75 15.5C23.75 15.1022 23.592 14.7206 23.3107 14.4393C23.0294 14.158 22.6478 14 22.25 14H17C16.2044 14 15.4413 14.3161 14.8787 14.8787C14.3161 15.4413 14 16.2044 14 17V22.25C14 22.6478 14.158 23.0294 14.4393 23.3107C14.7206 23.592 15.1022 23.75 15.5 23.75ZM41 41C40.767 41.0005 40.537 40.9467 40.3284 40.8429C40.1198 40.7391 39.9382 40.5881 39.7981 40.4019C38.8899 39.191 37.7123 38.2081 36.3585 37.5312C35.0046 36.8543 33.5118 36.5019 31.9981 36.5019C30.4845 36.5019 28.9916 36.8543 27.6378 37.5312C26.284 38.2081 25.1063 39.191 24.1981 40.4019C23.9589 40.7201 23.6031 40.9303 23.2089 40.9862C22.8148 41.0422 22.4145 40.9392 22.0963 40.7C21.778 40.4608 21.5678 40.105 21.5119 39.7108C21.456 39.3166 21.5589 38.9164 21.7981 38.5981C23.1275 36.8182 24.8992 35.4168 26.9375 34.5331C25.8206 33.5134 25.0381 32.1798 24.6926 30.7074C24.3472 29.2349 24.455 27.6925 25.0019 26.2824C25.5487 24.8723 26.5091 23.6606 27.757 22.8061C29.0049 21.9516 30.482 21.4944 31.9944 21.4944C33.5068 21.4944 34.9838 21.9516 36.2317 22.8061C37.4796 23.6606 38.44 24.8723 38.9869 26.2824C39.5338 27.6925 39.6416 29.2349 39.2961 30.7074C38.9507 32.1798 38.1682 33.5134 37.0513 34.5331C39.0909 35.4162 40.864 36.8176 42.1944 38.5981C42.3618 38.8206 42.4639 39.0853 42.4895 39.3625C42.515 39.6397 42.4629 39.9186 42.3389 40.1679C42.2149 40.4172 42.024 40.627 41.7876 40.774C41.5511 40.921 41.2784 40.9992 41 41ZM32 33.5C32.89 33.5 33.76 33.2361 34.5001 32.7416C35.2401 32.2471 35.8169 31.5443 36.1575 30.7221C36.4981 29.8998 36.5872 28.995 36.4135 28.1221C36.2399 27.2492 35.8113 26.4474 35.182 25.818C34.5526 25.1887 33.7508 24.7601 32.8779 24.5865C32.005 24.4128 31.1002 24.5019 30.2779 24.8425C29.4557 25.1831 28.7529 25.7599 28.2584 26.4999C27.7639 27.24 27.5 28.11 27.5 29C27.5 30.1935 27.9741 31.3381 28.818 32.182C29.6619 33.0259 30.8065 33.5 32 33.5Z" fill="black"/>
</svg>

