<svg width="49" height="24" viewBox="0 0 49 24" fill="none" xmlns="http://www.w3.org/2000/svg">
<path d="M10.53 12.1289C9.57294 12.1289 8.69794 11.8737 7.90497 11.3633C7.112 10.8529 6.47854 10.1693 6.00458 9.3125C5.53062 8.45573 5.29364 7.50326 5.29364 6.45508C5.29364 5.43424 5.52606 4.50456 5.99091 3.66602C6.46486 2.82747 7.09833 2.15755 7.8913 1.65625C8.68427 1.15495 9.56382 0.904297 10.53 0.904297C11.4961 0.904297 12.3757 1.15039 13.1686 1.64258C13.9616 2.13477 14.5951 2.80013 15.069 3.63867C15.543 4.47721 15.78 5.41146 15.78 6.44141C15.78 7.48958 15.543 8.44206 15.069 9.29883C14.5951 10.1556 13.9571 10.8438 13.155 11.3633C12.362 11.8737 11.487 12.1289 10.53 12.1289ZM3.40692 23.2852C2.41343 23.2852 1.66148 23.1165 1.15106 22.7793C0.64976 22.4512 0.399109 21.9408 0.399109 21.248C0.399109 20.4642 0.622416 19.6257 1.06903 18.7324C1.51565 17.8392 2.16734 17.0007 3.02411 16.2168C3.88999 15.4238 4.95184 14.7812 6.20966 14.2891C7.46747 13.7878 8.90302 13.5371 10.5163 13.5371C12.1387 13.5371 13.5742 13.7878 14.8229 14.2891C16.0807 14.7812 17.1426 15.4238 18.0085 16.2168C18.8744 17.0007 19.5306 17.8392 19.9772 18.7324C20.4238 19.6257 20.6472 20.4642 20.6472 21.248C20.6472 21.9408 20.3919 22.4512 19.8815 22.7793C19.3802 23.1165 18.6328 23.2852 17.6393 23.2852H3.40692ZM38.8171 12.1973C37.8509 12.1973 36.9714 11.9421 36.1784 11.4316C35.3854 10.9212 34.752 10.2376 34.278 9.38086C33.8041 8.52409 33.5671 7.57161 33.5671 6.52344C33.5671 5.5026 33.8041 4.57292 34.278 3.73438C34.752 2.89583 35.3854 2.22591 36.1784 1.72461C36.9714 1.22331 37.8509 0.972656 38.8171 0.972656C39.7832 0.972656 40.6628 1.21875 41.4557 1.71094C42.2487 2.20312 42.8776 2.86849 43.3425 3.70703C43.8164 4.54557 44.0534 5.47982 44.0534 6.50977C44.0534 7.55794 43.8164 8.51042 43.3425 9.36719C42.8685 10.224 42.235 10.9121 41.4421 11.4316C40.6491 11.9421 39.7741 12.1973 38.8171 12.1973ZM31.694 23.3535C30.6914 23.3535 29.9395 23.1849 29.4382 22.8477C28.9369 22.5195 28.6862 22.0091 28.6862 21.3164C28.6862 20.5326 28.905 19.694 29.3425 18.8008C29.7891 17.9076 30.4453 17.069 31.3112 16.2852C32.1771 15.4922 33.2344 14.8496 34.4831 14.3574C35.7409 13.8561 37.181 13.6055 38.8034 13.6055C40.4258 13.6055 41.8613 13.8561 43.11 14.3574C44.3679 14.8496 45.4252 15.4922 46.2819 16.2852C47.1478 17.069 47.8041 17.9076 48.2507 18.8008C48.6973 19.694 48.9206 20.5326 48.9206 21.3164C48.9206 22.0091 48.6654 22.5195 48.155 22.8477C47.6537 23.1849 46.9063 23.3535 45.9128 23.3535H31.694ZM20.1413 12.252C19.8223 12.252 19.5443 12.138 19.3073 11.9102C19.0794 11.6823 18.9655 11.4043 18.9655 11.0762C18.9655 10.7572 19.0794 10.4837 19.3073 10.2559C19.5443 10.0189 19.8223 9.90039 20.1413 9.90039C20.4694 9.90039 20.7474 10.0189 20.9753 10.2559C21.2031 10.4837 21.3171 10.7572 21.3171 11.0762C21.3171 11.4043 21.2031 11.6823 20.9753 11.9102C20.7474 12.138 20.4694 12.252 20.1413 12.252ZM24.6804 12.252C24.3522 12.252 24.0742 12.138 23.8464 11.9102C23.6185 11.6823 23.5046 11.4043 23.5046 11.0762C23.5046 10.7572 23.6185 10.4837 23.8464 10.2559C24.0742 10.0189 24.3522 9.90039 24.6804 9.90039C24.9994 9.90039 25.2728 10.0189 25.5007 10.2559C25.7377 10.4837 25.8561 10.7572 25.8561 11.0762C25.8561 11.4043 25.7377 11.6823 25.5007 11.9102C25.2728 12.138 24.9994 12.252 24.6804 12.252ZM29.1921 12.252C28.8731 12.252 28.5951 12.138 28.3581 11.9102C28.1302 11.6823 28.0163 11.4043 28.0163 11.0762C28.0163 10.7572 28.1302 10.4837 28.3581 10.2559C28.5951 10.0189 28.8731 9.90039 29.1921 9.90039C29.5111 9.90039 29.7845 10.0189 30.0124 10.2559C30.2494 10.4837 30.3679 10.7572 30.3679 11.0762C30.3679 11.4043 30.2494 11.6823 30.0124 11.9102C29.7845 12.138 29.5111 12.252 29.1921 12.252Z" fill="#052F69"/>
</svg>

