<svg width="48" height="48" viewBox="0 0 48 48" fill="none" xmlns="http://www.w3.org/2000/svg">
<path d="M44.4 35.2668L28.0031 6.79113C27.5934 6.09349 27.0084 5.51504 26.3063 5.11312C25.6041 4.7112 24.8091 4.49976 24 4.49976C23.1909 4.49976 22.3959 4.7112 21.6937 5.11312C20.9916 5.51504 20.4066 6.09349 19.9969 6.79113L3.6 35.2668C3.20575 35.9415 2.99799 36.709 2.99799 37.4905C2.99799 38.272 3.20575 39.0395 3.6 39.7143C4.00449 40.4161 4.58844 40.9977 5.29192 41.3994C5.99541 41.801 6.79309 42.0083 7.60312 41.9999H40.3969C41.2063 42.0076 42.0032 41.8 42.7059 41.3984C43.4087 40.9968 43.9921 40.4156 44.3962 39.7143C44.7911 39.0398 44.9995 38.2725 45.0001 37.491C45.0008 36.7095 44.7937 35.9419 44.4 35.2668ZM41.7994 38.2124C41.6564 38.4562 41.4512 38.6577 41.2048 38.796C40.9583 38.9344 40.6795 39.0048 40.3969 38.9999H7.60312C7.32052 39.0048 7.04169 38.9344 6.79524 38.796C6.54879 38.6577 6.34357 38.4562 6.20062 38.2124C6.07114 37.9932 6.00284 37.7432 6.00284 37.4886C6.00284 37.234 6.07114 36.9841 6.20062 36.7649L22.5975 8.28925C22.7433 8.04658 22.9495 7.84577 23.1959 7.70636C23.4423 7.56695 23.7206 7.49368 24.0037 7.49368C24.2869 7.49368 24.5652 7.56695 24.8116 7.70636C25.058 7.84577 25.2642 8.04658 25.41 8.28925L41.8069 36.7649C41.9352 36.9848 42.0022 37.2351 42.0009 37.4897C41.9996 37.7443 41.93 37.9938 41.7994 38.2124ZM22.5 26.9999V19.4999C22.5 19.1021 22.658 18.7205 22.9393 18.4392C23.2206 18.1579 23.6022 17.9999 24 17.9999C24.3978 17.9999 24.7794 18.1579 25.0607 18.4392C25.342 18.7205 25.5 19.1021 25.5 19.4999V26.9999C25.5 27.3977 25.342 27.7792 25.0607 28.0605C24.7794 28.3418 24.3978 28.4999 24 28.4999C23.6022 28.4999 23.2206 28.3418 22.9393 28.0605C22.658 27.7792 22.5 27.3977 22.5 26.9999ZM26.25 33.7499C26.25 34.1949 26.118 34.6299 25.8708 34.9999C25.6236 35.3699 25.2722 35.6583 24.861 35.8286C24.4499 35.9989 23.9975 36.0435 23.561 35.9566C23.1246 35.8698 22.7237 35.6555 22.409 35.3409C22.0943 35.0262 21.88 34.6253 21.7932 34.1888C21.7064 33.7524 21.751 33.3 21.9213 32.8888C22.0916 32.4777 22.38 32.1263 22.75 31.8791C23.12 31.6318 23.555 31.4999 24 31.4999C24.5967 31.4999 25.169 31.7369 25.591 32.1589C26.0129 32.5808 26.25 33.1531 26.25 33.7499Z" fill="white"/>
</svg>

