<svg width="33" height="32" viewBox="0 0 33 32" fill="none" xmlns="http://www.w3.org/2000/svg">
<path d="M16.7442 10.6666C16.7442 13.6122 14.3564 16 11.4109 16C8.46537 16 6.07756 13.6122 6.07756 10.6666C6.07756 7.72113 8.46537 5.33331 11.4109 5.33331C14.3564 5.33331 16.7442 7.72113 16.7442 10.6666Z" fill="#052F69"/>
<path d="M3.86826 25.6744C4.36869 21.6709 7.77189 18.6666 11.8065 18.6666H12.3486C16.3832 18.6666 19.7864 21.6709 20.2869 25.6744L20.7442 29.3333H3.41089L3.86826 25.6744Z" fill="#052F69"/>
<path d="M18.4119 14.5407C19.0484 13.3929 19.4109 12.0721 19.4109 10.6666C19.4109 9.2612 19.0484 7.9404 18.4119 6.79261C19.3676 5.88806 20.6578 5.33331 22.0775 5.33331C25.023 5.33331 27.4109 7.72113 27.4109 10.6666C27.4109 13.6122 25.023 16 22.0775 16C20.6578 16 19.3676 15.4452 18.4119 14.5407Z" fill="#052F69"/>
<path d="M22.9329 25.3436L23.4316 29.3333H30.0775L29.6202 25.6744C29.1197 21.6709 25.7165 18.6666 21.6819 18.6666H21.1398C20.6051 18.6666 20.0816 18.7194 19.5744 18.8203C21.3744 20.4776 22.6092 22.7538 22.9329 25.3436Z" fill="#052F69"/>
</svg>
