<svg width="36" height="36" viewBox="0 0 36 36" fill="none" xmlns="http://www.w3.org/2000/svg">
<path d="M23.625 21.3748C23.625 21.6732 23.5065 21.9593 23.2955 22.1703C23.0845 22.3813 22.7984 22.4998 22.5 22.4998H13.5C13.2016 22.4998 12.9155 22.3813 12.7045 22.1703C12.4935 21.9593 12.375 21.6732 12.375 21.3748C12.375 21.0764 12.4935 20.7903 12.7045 20.5793C12.9155 20.3683 13.2016 20.2498 13.5 20.2498H22.5C22.7984 20.2498 23.0845 20.3683 23.2955 20.5793C23.5065 20.7903 23.625 21.0764 23.625 21.3748ZM22.5 15.7498H13.5C13.2016 15.7498 12.9155 15.8683 12.7045 16.0793C12.4935 16.2903 12.375 16.5764 12.375 16.8748C12.375 17.1732 12.4935 17.4593 12.7045 17.6703C12.9155 17.8813 13.2016 17.9998 13.5 17.9998H22.5C22.7984 17.9998 23.0845 17.8813 23.2955 17.6703C23.5065 17.4593 23.625 17.1732 23.625 16.8748C23.625 16.5764 23.5065 16.2903 23.2955 16.0793C23.0845 15.8683 22.7984 15.7498 22.5 15.7498ZM30.375 6.7498V30.3748C30.375 30.9715 30.1379 31.5438 29.716 31.9658C29.294 32.3877 28.7217 32.6248 28.125 32.6248H7.875C7.27826 32.6248 6.70597 32.3877 6.28401 31.9658C5.86205 31.5438 5.625 30.9715 5.625 30.3748V6.7498C5.625 6.15306 5.86205 5.58076 6.28401 5.15881C6.70597 4.73685 7.27826 4.4998 7.875 4.4998H12.9741C13.6062 3.79206 14.3806 3.22581 15.2467 2.83811C16.1129 2.45041 17.0511 2.25 18 2.25C18.9489 2.25 19.8871 2.45041 20.7533 2.83811C21.6194 3.22581 22.3938 3.79206 23.0259 4.4998H28.125C28.7217 4.4998 29.294 4.73685 29.716 5.15881C30.1379 5.58076 30.375 6.15306 30.375 6.7498ZM13.5 8.9998H22.5C22.5 7.80632 22.0259 6.66173 21.182 5.81782C20.3381 4.9739 19.1935 4.4998 18 4.4998C16.8065 4.4998 15.6619 4.9739 14.818 5.81782C13.9741 6.66173 13.5 7.80632 13.5 8.9998ZM28.125 6.7498H24.3633C24.6192 7.47235 24.75 8.23326 24.75 8.9998V10.1248C24.75 10.4232 24.6315 10.7093 24.4205 10.9203C24.2095 11.1313 23.9234 11.2498 23.625 11.2498H12.375C12.0766 11.2498 11.7905 11.1313 11.5795 10.9203C11.3685 10.7093 11.25 10.4232 11.25 10.1248V8.9998C11.25 8.23326 11.3808 7.47235 11.6367 6.7498H7.875V30.3748H28.125V6.7498Z" fill="white"/>
</svg>
