<?xml version="1.0" standalone="yes"?><svg xmlns="http://www.w3.org/2000/svg" width="403" height="539" viewBox="0 0 403 539" fill="none" style="zoom: 1;"><path d="M171.748 538.375C173.269 538.375 171.748 418.797 171.748 419.558C171.748 420.318 107.904 370.917 107.904 370.917L98.0254 299.476H118.544C118.544 299.476 135.778 305.202 129.944 344.321C129.944 344.321 166.425 351.159 165.664 348.884C164.904 346.609 158.114 282.073 158.114 282.073C158.114 282.073 137.541 299.482 118.544 299.482L105.623 288.843L162.118 240.202L188.464 281.245L210.025 179L234.025 182.5L218.861 283.527L252.525 197.5L275.525 205.5L248.525 292.5L288.021 233.364L307.025 244.004L269.528 313.419L261.419 400.574L229.117 422.613V538.389H171.734L171.748 538.375Z" fill="#B1EAEA" visibility="visible"></path><path d="M110.688 280.264L118.918 287.175C118.918 287.175 137.074 275.661 127.599 265.701" stroke="white" stroke-width="4.09722" stroke-miterlimit="10" visibility="visible"></path><path d="M95 306.521H106.238C106.238 306.521 113.17 336.865 98.6138 332.646" stroke="white" stroke-width="4.09722" stroke-miterlimit="10"></path><path d="M189.658 388.426C191.132 375.385 196.448 362.8 204.773 352.652C213.097 342.504 224.396 334.825 236.893 330.828" stroke="white" stroke-width="4.09722" stroke-miterlimit="10"></path><path d="M173.852 299.053C196.174 301.832 218.246 306.563 239.747 313.171" stroke="white" stroke-width="4.09722" stroke-miterlimit="10"></path><line x1="15.1365" y1="295.737" x2="66.3425" y2="331.346" stroke="#FFE34F" stroke-width="25"></line><line x1="395.14" y1="148.462" x2="361.14" y2="180.462" stroke="#FFE34F" stroke-width="15"></line><line x1="276.378" y1="13.8291" x2="256.378" y2="39.8291" stroke="#FFE34F" stroke-width="6"></line><line x1="239.317" y1="426.589" x2="229.131" y2="401.684" stroke="#FFE34F" stroke-width="6"></line><line x1="129.207" y1="170.573" x2="122.946" y2="202.772" stroke="#FFE34F" stroke-width="6"></line><line x1="279.684" y1="477.535" x2="257.912" y2="520.325" stroke="#FFE34F" stroke-width="20"></line><line x1="130.953" y1="350.024" x2="119.953" y2="370.024" stroke="#FFE34F" stroke-width="25"></line><line x1="171.348" y1="56.8892" x2="200.351" y2="77.5275" stroke="#FFE34F" stroke-width="15"></line><line x1="273.284" y1="176.934" x2="239.47" y2="185.913" stroke="#FFE34F" stroke-width="15"></line><line x1="192.152" y1="221.55" x2="217.158" y2="245.187" stroke="#FFE34F" stroke-width="15"></line><line x1="125.736" y1="442.815" x2="151.736" y2="459.815" stroke="#FFE34F" stroke-width="10"></line><line x1="399.381" y1="417.948" x2="369.825" y2="429.964" stroke="#FFE34F" stroke-width="15"></line><line x1="143.381" y1="6.94775" x2="113.825" y2="18.9643" stroke="#FFE34F" stroke-width="15"></line></svg>
