<svg width="26" height="31" viewBox="0 0 26 31" fill="none" xmlns="http://www.w3.org/2000/svg">
<path d="M18.3734 19.3748C18.3734 19.6732 18.2549 19.9593 18.0439 20.1703C17.8329 20.3813 17.5468 20.4998 17.2484 20.4998H8.24841C7.95004 20.4998 7.6639 20.3813 7.45292 20.1703C7.24194 19.9593 7.12341 19.6732 7.12341 19.3748C7.12341 19.0764 7.24194 18.7903 7.45292 18.5793C7.6639 18.3683 7.95004 18.2498 8.24841 18.2498H17.2484C17.5468 18.2498 17.8329 18.3683 18.0439 18.5793C18.2549 18.7903 18.3734 19.0764 18.3734 19.3748ZM17.2484 13.7498H8.24841C7.95004 13.7498 7.6639 13.8683 7.45292 14.0793C7.24194 14.2903 7.12341 14.5764 7.12341 14.8748C7.12341 15.1732 7.24194 15.4593 7.45292 15.6703C7.6639 15.8813 7.95004 15.9998 8.24841 15.9998H17.2484C17.5468 15.9998 17.8329 15.8813 18.0439 15.6703C18.2549 15.4593 18.3734 15.1732 18.3734 14.8748C18.3734 14.5764 18.2549 14.2903 18.0439 14.0793C17.8329 13.8683 17.5468 13.7498 17.2484 13.7498ZM25.1234 4.7498V28.3748C25.1234 28.9715 24.8864 29.5438 24.4644 29.9658C24.0424 30.3877 23.4701 30.6248 22.8734 30.6248H2.62341C2.02668 30.6248 1.45438 30.3877 1.03242 29.9658C0.610466 29.5438 0.373413 28.9715 0.373413 28.3748V4.7498C0.373413 4.15306 0.610466 3.58076 1.03242 3.15881C1.45438 2.73685 2.02668 2.4998 2.62341 2.4998H7.72248C8.35459 1.79206 9.12905 1.22581 9.99516 0.838112C10.8613 0.450411 11.7995 0.25 12.7484 0.25C13.6973 0.25 14.6356 0.450411 15.5017 0.838112C16.3678 1.22581 17.1422 1.79206 17.7744 2.4998H22.8734C23.4701 2.4998 24.0424 2.73685 24.4644 3.15881C24.8864 3.58076 25.1234 4.15306 25.1234 4.7498ZM8.24841 6.9998H17.2484C17.2484 5.80632 16.7743 4.66173 15.9304 3.81782C15.0865 2.9739 13.9419 2.4998 12.7484 2.4998C11.5549 2.4998 10.4103 2.9739 9.56643 3.81782C8.72252 4.66173 8.24841 5.80632 8.24841 6.9998ZM22.8734 4.7498H19.1117C19.3676 5.47235 19.4984 6.23326 19.4984 6.9998V8.1248C19.4984 8.42316 19.3799 8.70931 19.1689 8.92029C18.9579 9.13127 18.6718 9.2498 18.3734 9.2498H7.12341C6.82504 9.2498 6.5389 9.13127 6.32792 8.92029C6.11694 8.70931 5.99841 8.42316 5.99841 8.1248V6.9998C5.99844 6.23326 6.12922 5.47235 6.38513 4.7498H2.62341V28.3748H22.8734V4.7498Z" fill="white"/>
</svg>

