<svg width="14" height="20" viewBox="0 0 14 20" fill="none" xmlns="http://www.w3.org/2000/svg">
<path d="M13.75 5.09125V1.75C13.75 1.35218 13.592 0.970644 13.3107 0.68934C13.0294 0.408035 12.6478 0.25 12.25 0.25H1.75C1.35218 0.25 0.970644 0.408035 0.68934 0.68934C0.408035 0.970644 0.25 1.35218 0.25 1.75V5.125C0.250507 5.35778 0.304947 5.58727 0.409049 5.79548C0.51315 6.00368 0.664082 6.18493 0.85 6.325L5.75031 10L0.85 13.675C0.664082 13.8151 0.51315 13.9963 0.409049 14.2045C0.304947 14.4127 0.250507 14.6422 0.25 14.875V18.25C0.25 18.6478 0.408035 19.0294 0.68934 19.3107C0.970644 19.592 1.35218 19.75 1.75 19.75H12.25C12.6478 19.75 13.0294 19.592 13.3107 19.3107C13.592 19.0294 13.75 18.6478 13.75 18.25V14.9088C13.7495 14.6769 13.6955 14.4482 13.5922 14.2406C13.489 14.033 13.3393 13.8519 13.1547 13.7116L8.24406 10L13.1547 6.2875C13.3393 6.14742 13.4891 5.96658 13.5924 5.75908C13.6957 5.55158 13.7496 5.32303 13.75 5.09125ZM1.75 1.75H12.25V5.09125L11.7091 5.5H2.24969L1.75 5.125V1.75ZM7 9.0625L4.25031 7H9.72531L7 9.0625ZM12.25 18.25H1.75V14.875L6.25 11.5V13.75C6.25 13.9489 6.32902 14.1397 6.46967 14.2803C6.61032 14.421 6.80109 14.5 7 14.5C7.19891 14.5 7.38968 14.421 7.53033 14.2803C7.67098 14.1397 7.75 13.9489 7.75 13.75V11.5075L12.25 14.9088V18.25Z" fill="black"/>
</svg>

