<svg width="200" height="200" viewBox="0 0 200 200" fill="none" xmlns="http://www.w3.org/2000/svg">
<path d="M162.5 62.5H137.5V43.75C137.5 33.8044 133.549 24.2661 126.517 17.2335C119.484 10.2009 109.946 6.25 100 6.25C90.0544 6.25 80.5161 10.2009 73.4835 17.2335C66.4509 24.2661 62.5 33.8044 62.5 43.75V62.5H37.5C34.1848 62.5 31.0054 63.817 28.6612 66.1612C26.317 68.5054 25 71.6848 25 75V162.5C25 165.815 26.317 168.995 28.6612 171.339C31.0054 173.683 34.1848 175 37.5 175H162.5C165.815 175 168.995 173.683 171.339 171.339C173.683 168.995 175 165.815 175 162.5V75C175 71.6848 173.683 68.5054 171.339 66.1612C168.995 63.817 165.815 62.5 162.5 62.5ZM37.5 100H162.5V112.5H37.5V100ZM37.5 125H162.5V137.5H37.5V125ZM75 43.75C75 37.1196 77.6339 30.7607 82.3223 26.0723C87.0107 21.3839 93.3696 18.75 100 18.75C106.63 18.75 112.989 21.3839 117.678 26.0723C122.366 30.7607 125 37.1196 125 43.75V62.5H75V43.75ZM162.5 75V87.5H37.5V75H162.5ZM162.5 162.5H37.5V150H162.5V162.5Z" fill="black"/>
</svg>

